<?xml version="1.0" standalone="no"?>
<!DOCTYPE svg PUBLIC "-//W3C//DTD SVG 1.1//EN" "http://www.w3.org/Graphics/SVG/1.1/DTD/svg11.dtd" >
<svg xmlns="http://www.w3.org/2000/svg" xmlns:xlink="http://www.w3.org/1999/xlink" version="1.1">
<metadata>
Created by FontForge 20200511 at Mon Feb  4 03:53:48 2019
 By convertio
Copyright 2017-2019 The Inter project authors
</metadata>
<defs>
<font id="Inter-Regular" horiz-adv-x="0" >
  <font-face 
    font-family="Inter"
    font-weight="400"
    font-stretch="normal"
    units-per-em="2816"
    panose-1="2 11 5 2 3 0 0 0 0 4"
    ascent="2252"
    descent="-564"
    x-height="1536"
    cap-height="2048"
    bbox="-2080 -1084 4650 3072"
    underline-thickness="192"
    underline-position="-560"
    unicode-range="U+0020-1F16B"
  />
<missing-glyph horiz-adv-x="2800" 
d="M248 -640v512h2304v-512h-2304zM248 64v512h2304v-512h-2304zM248 768v512h2304v-512h-2304zM248 1472v512h2304v-512h-2304zM248 2176v512h2304v-512h-2304z" />
    <glyph glyph-name=".notdef" horiz-adv-x="2800" 
d="M248 -640v512h2304v-512h-2304zM248 64v512h2304v-512h-2304zM248 768v512h2304v-512h-2304zM248 1472v512h2304v-512h-2304zM248 2176v512h2304v-512h-2304z" />
    <glyph glyph-name=".null" 
 />
    <glyph glyph-name="uni0020" unicode=" " horiz-adv-x="792" 
 />
    <glyph glyph-name="uni00A0" unicode="&#xa0;" horiz-adv-x="792" 
 />
    <glyph glyph-name="uni202F" unicode="&#x202f;" horiz-adv-x="792" 
 />
    <glyph glyph-name="uni205F" unicode="&#x205f;" horiz-adv-x="792" 
 />
    <glyph glyph-name="uni0041" unicode="A" horiz-adv-x="1904" 
d="M332 0h-260l752 2048h256l752 -2048h-260l-206 580h-828zM616 800h672l-328 924h-16z" />
    <glyph glyph-name="uni00C4" unicode="&#xc4;" horiz-adv-x="1904" 
d="M332 0h-260l752 2048h256l752 -2048h-260l-206 580h-828zM616 800h672l-328 924h-16zM664 2304q-63 0 -111.5 48.5t-48.5 111.5q0 69 48.5 114.5t111.5 45.5q69 0 114.5 -45.5t45.5 -114.5q0 -63 -45.5 -111.5t-114.5 -48.5zM1240 2304q-63 0 -111.5 48.5t-48.5 111.5
q0 69 48.5 114.5t111.5 45.5q69 0 114.5 -45.5t45.5 -114.5q0 -63 -45.5 -111.5t-114.5 -48.5z" />
    <glyph glyph-name="uni00C3" unicode="&#xc3;" horiz-adv-x="1904" 
d="M332 0h-260l752 2048h256l752 -2048h-260l-206 580h-828zM616 800h672l-328 924h-16zM644 2252l-184 8q0 153 87.5 250.5t216.5 97.5q76 0 130.5 -32t108 -64t125.5 -32q57 0 96.5 44.5t39.5 107.5l180 -16q0 -156 -87.5 -248t-216.5 -92q-69 0 -114 19.5t-80 44.5
t-74 44.5t-96 19.5t-94.5 -44.5t-37.5 -107.5z" />
    <glyph glyph-name="uni00C0" unicode="&#xc0;" horiz-adv-x="1904" 
d="M332 0h-260l752 2048h256l752 -2048h-260l-206 580h-828zM616 800h672l-328 924h-16zM1060 2256h-208l-312 464h276z" />
    <glyph glyph-name="uni00C1" unicode="&#xc1;" horiz-adv-x="1904" 
d="M332 0h-260l752 2048h256l752 -2048h-260l-206 580h-828zM616 800h672l-328 924h-16zM844 2256l244 464h276l-312 -464h-208z" />
    <glyph glyph-name="uni00C2" unicode="&#xc2;" horiz-adv-x="1904" 
d="M332 0h-260l752 2048h256l752 -2048h-260l-206 580h-828zM616 800h672l-328 924h-16zM744 2232l208 280l208 -280h224v16l-324 416h-216l-324 -416v-16h224z" />
    <glyph glyph-name="uni00C5" unicode="&#xc5;" horiz-adv-x="1904" 
d="M332 0h-260l752 2048h256l752 -2048h-260l-206 580h-828zM616 800h672l-328 924h-16zM952 2184q-91 0 -166.5 42t-120.5 113t-45 157t45 157t120.5 113t166.5 42q92 0 167 -42t120 -113t45 -157t-45 -157t-120 -113t-167 -42zM952 2336q68 0 116 46.5t48 113.5t-48 113.5
t-116 46.5t-116 -46.5t-48 -113.5t48 -113.5t116 -46.5z" />
    <glyph glyph-name="uni0100" unicode="&#x100;" horiz-adv-x="1904" 
d="M332 0h-260l752 2048h256l752 -2048h-260l-206 580h-828zM616 800h672l-328 924h-16zM1420 2560v-200h-936v200h936z" />
    <glyph glyph-name="uni0102" unicode="&#x102;" horiz-adv-x="1904" 
d="M332 0h-260l752 2048h256l752 -2048h-260l-206 580h-828zM616 800h672l-328 924h-16zM1148 2560h220q0 -162 -112 -265t-304 -103q-189 0 -300.5 103t-111.5 265h220q0 -78 43.5 -137t148.5 -59t150.5 59t45.5 137z" />
    <glyph glyph-name="uni0104" unicode="&#x104;" horiz-adv-x="1904" 
d="M332 0h-260l752 2048h256l752 -2048h-260l-206 580h-828zM616 800h672l-328 924h-16zM1644 -600q-123 0 -203.5 67.5t-80.5 196.5q0 111 83 220.5t281 199.5l108 -84q-90 -66 -161 -140t-71 -164q0 -45 22 -70.5t82 -25.5q45 0 80 12t56 24l16 -176q-33 -21 -86.5 -40.5
t-125.5 -19.5z" />
    <glyph glyph-name="uni01CD" unicode="&#x1cd;" horiz-adv-x="1904" 
d="M332 0h-260l752 2048h256l752 -2048h-260l-206 580h-828zM616 800h672l-328 924h-16zM744 2664l208 -280l208 280h224v-16l-324 -416h-216l-324 416v16h224z" />
    <glyph glyph-name="uni01DE" unicode="&#x1de;" horiz-adv-x="1904" 
d="M332 0h-260l752 2048h256l752 -2048h-260l-206 580h-828zM616 800h672l-328 924h-16zM664 2304q-63 0 -111.5 48.5t-48.5 111.5q0 69 48.5 114.5t111.5 45.5q69 0 114.5 -45.5t45.5 -114.5q0 -63 -45.5 -111.5t-114.5 -48.5zM1240 2304q-63 0 -111.5 48.5t-48.5 111.5
q0 69 48.5 114.5t111.5 45.5q69 0 114.5 -45.5t45.5 -114.5q0 -63 -45.5 -111.5t-114.5 -48.5zM1420 3072v-200h-936v200h936z" />
    <glyph glyph-name="uni01E0" unicode="&#x1e0;" horiz-adv-x="1904" 
d="M332 0h-260l752 2048h256l752 -2048h-260l-206 580h-828zM616 800h672l-328 924h-16zM952 2224q-69 0 -118.5 47t-49.5 113t49.5 113t118.5 47t118.5 -47t49.5 -113t-49.5 -113t-118.5 -47zM1420 2960v-200h-936v200h936z" />
    <glyph glyph-name="uni01FA" unicode="&#x1fa;" horiz-adv-x="1904" 
d="M332 0h-260l752 2048h256l752 -2048h-260l-206 580h-828zM616 800h672l-328 924h-16zM952 2160q-96 0 -166 68t-70 164t70 164t166 68q99 0 167.5 -68t68.5 -164t-68.5 -164t-167.5 -68zM852 2688l200 248h272l-304 -248h-168zM952 2296q42 0 69 28.5t27 67.5
q0 36 -27 64t-69 28q-39 0 -67.5 -28t-28.5 -64q0 -39 28.5 -67.5t67.5 -28.5z" />
    <glyph glyph-name="uni0200" unicode="&#x200;" horiz-adv-x="1904" 
d="M332 0h-260l752 2048h256l752 -2048h-260l-206 580h-828zM616 800h672l-328 924h-16zM912 2248h-248l-420 364h332zM1276 2248h-220l-336 364h304z" />
    <glyph glyph-name="uni0202" unicode="&#x202;" horiz-adv-x="1904" 
d="M332 0h-260l752 2048h256l752 -2048h-260l-206 580h-828zM616 800h672l-328 924h-16zM540 2288q0 162 112 267t304 105t302 -105t110 -267h-220q0 81 -45 140.5t-147 59.5q-108 0 -152 -61t-44 -139h-220z" />
    <glyph glyph-name="uni0226" unicode="&#x226;" horiz-adv-x="1904" 
d="M332 0h-260l752 2048h256l752 -2048h-260l-206 580h-828zM616 800h672l-328 924h-16zM952 2304q-69 0 -118.5 47t-49.5 113t49.5 113t118.5 47t118.5 -47t49.5 -113t-49.5 -113t-118.5 -47z" />
    <glyph glyph-name="uni1E00" unicode="&#x1e00;" horiz-adv-x="1904" 
d="M332 0h-260l752 2048h256l752 -2048h-260l-206 580h-828zM616 800h672l-328 924h-16zM680 -336q0 102 71 167t173 65q96 0 170 -65t74 -167q0 -105 -74 -168.5t-170 -63.5q-102 0 -173 63.5t-71 168.5zM804 -336q0 -51 34.5 -85.5t85.5 -34.5q45 0 82.5 34.5t37.5 85.5
t-37.5 85.5t-82.5 34.5q-51 0 -85.5 -34.5t-34.5 -85.5z" />
    <glyph glyph-name="uni1EA0" unicode="&#x1ea0;" horiz-adv-x="1904" 
d="M332 0h-260l752 2048h256l752 -2048h-260l-206 580h-828zM616 800h672l-328 924h-16zM952 -508q-69 0 -118.5 47t-49.5 113t49.5 113t118.5 47t118.5 -47t49.5 -113t-49.5 -113t-118.5 -47z" />
    <glyph glyph-name="uni1EA2" unicode="&#x1ea2;" horiz-adv-x="1904" 
d="M332 0h-260l752 2048h256l752 -2048h-260l-206 580h-828zM616 800h672l-328 924h-16zM1056 2256h-196v216q105 6 148.5 29t43.5 71q0 54 -63 79t-153 25l8 152q207 0 313.5 -72t106.5 -192q0 -102 -65 -149t-143 -59v-100z" />
    <glyph glyph-name="uni1EA4" unicode="&#x1ea4;" horiz-adv-x="1904" 
d="M332 0h-260l752 2048h256l752 -2048h-260l-206 580h-828zM616 800h672l-328 924h-16zM436 2240l408 364h220l408 -364h-288l-228 212l-228 -212h-292zM1364 2484l196 360h292l-280 -360h-208z" />
    <glyph glyph-name="uni1EA6" unicode="&#x1ea6;" horiz-adv-x="1904" 
d="M332 0h-260l752 2048h256l752 -2048h-260l-206 580h-828zM616 800h672l-328 924h-16zM1060 2600l408 -364h-288l-228 212l-228 -212h-288l404 364h220zM348 2844l192 -364h-204l-284 364h296z" />
    <glyph glyph-name="uni1EA8" unicode="&#x1ea8;" horiz-adv-x="1904" 
d="M332 0h-260l752 2048h256l752 -2048h-260l-206 580h-828zM616 800h672l-328 924h-16zM1088 2576l380 -364h-248l-272 252l-268 -252h-248l380 364h276zM1508 2404h-168v184q84 6 124 22.5t40 61.5q0 48 -53.5 68t-134.5 20l8 132q180 0 272 -61t92 -163
q0 -90 -55.5 -130.5t-124.5 -49.5v-84z" />
    <glyph glyph-name="uni1EAA" unicode="&#x1eaa;" horiz-adv-x="1904" 
d="M332 0h-260l752 2048h256l752 -2048h-260l-206 580h-828zM616 800h672l-328 924h-16zM1044 2520l420 -336h-248l-268 212l-268 -212h-248l420 336h192zM1196 2872l112 -32q0 -81 -66 -148.5t-162 -67.5q-68 0 -109 24t-77 48t-90 24q-42 0 -79 -32t-37 -68l-108 28
q0 81 64 150.5t160 69.5q56 0 98.5 -23t84 -46t93.5 -23q42 0 79 30t37 66z" />
    <glyph glyph-name="uni1EAC" unicode="&#x1eac;" horiz-adv-x="1904" 
d="M332 0h-260l752 2048h256l752 -2048h-260l-206 580h-828zM616 800h672l-328 924h-16zM744 2232l208 280l208 -280h224v16l-324 416h-216l-324 -416v-16h224zM952 -508q-69 0 -118.5 47t-49.5 113t49.5 113t118.5 47t118.5 -47t49.5 -113t-49.5 -113t-118.5 -47z" />
    <glyph glyph-name="uni1EAE" unicode="&#x1eae;" horiz-adv-x="1904" 
d="M332 0h-260l752 2048h256l752 -2048h-260l-206 580h-828zM616 800h672l-328 924h-16zM1140 2516h224q0 -126 -112.5 -207t-307.5 -81t-307.5 81t-112.5 207h224q0 -63 44 -109.5t152 -46.5q105 0 150.5 46.5t45.5 109.5zM864 2548l148 272h224l-224 -272h-148z" />
    <glyph glyph-name="uni1EB0" unicode="&#x1eb0;" horiz-adv-x="1904" 
d="M332 0h-260l752 2048h256l752 -2048h-260l-206 580h-828zM616 800h672l-328 924h-16zM1140 2516h224q0 -126 -112.5 -207t-307.5 -81t-307.5 81t-112.5 207h224q0 -63 44 -109.5t152 -46.5q105 0 150.5 46.5t45.5 109.5zM896 2548l-224 272h224l148 -272h-148z" />
    <glyph glyph-name="uni1EB2" unicode="&#x1eb2;" horiz-adv-x="1904" 
d="M332 0h-260l752 2048h256l752 -2048h-260l-206 580h-828zM616 800h672l-328 924h-16zM1124 2544h216q0 -126 -107.5 -207t-296.5 -81q-186 0 -295 81t-109 207h216q0 -63 43 -109.5t145 -46.5t145 46.5t43 109.5zM1044 2572h-188l-4 176q99 3 143.5 18t44.5 54
q0 42 -61 59t-151 17l12 116q201 0 302.5 -54.5t101.5 -141.5q0 -78 -62.5 -112.5t-137.5 -43.5v-88z" />
    <glyph glyph-name="uni1EB4" unicode="&#x1eb4;" horiz-adv-x="1904" 
d="M332 0h-260l752 2048h256l752 -2048h-260l-206 580h-828zM616 800h672l-328 924h-16zM1132 2556h220q0 -129 -110 -212.5t-302 -83.5q-189 0 -300.5 83.5t-111.5 212.5h220q0 -63 43.5 -111.5t148.5 -48.5t148.5 48.5t43.5 111.5zM1220 2960l120 -36q0 -102 -65 -175
t-167 -73q-74 0 -119 25t-85 50t-100 25q-45 0 -76.5 -34.5t-31.5 -85.5l-124 28q0 99 65 177.5t167 78.5q60 0 107 -25t93 -50t104 -25q45 0 78.5 34.5t33.5 85.5z" />
    <glyph glyph-name="uni1EB6" unicode="&#x1eb6;" horiz-adv-x="1904" 
d="M332 0h-260l752 2048h256l752 -2048h-260l-206 580h-828zM616 800h672l-328 924h-16zM1148 2560h220q0 -162 -112 -265t-304 -103q-189 0 -300.5 103t-111.5 265h220q0 -78 43.5 -137t148.5 -59t150.5 59t45.5 137zM952 -508q-69 0 -118.5 47t-49.5 113t49.5 113
t118.5 47t118.5 -47t49.5 -113t-49.5 -113t-118.5 -47z" />
    <glyph glyph-name="uni0391" unicode="&#x391;" horiz-adv-x="1904" 
d="M332 0h-260l752 2048h256l752 -2048h-260l-206 580h-828zM616 800h672l-328 924h-16z" />
    <glyph glyph-name="uni0386" unicode="&#x386;" horiz-adv-x="1904" 
d="M332 0h-260l752 2048h256l752 -2048h-260l-206 580h-828zM616 800h672l-328 924h-16zM336 1708l68 468h256l-160 -468h-164z" />
    <glyph glyph-name="uni1F08" unicode="&#x1f08;" horiz-adv-x="1904" 
d="M332 0h-260l752 2048h256l752 -2048h-260l-206 580h-828zM616 800h672l-328 924h-16zM600 2048v-112q0 -249 -252 -384l-108 84q57 63 84.5 136t27.5 172v104h248z" />
    <glyph glyph-name="uni1F09" unicode="&#x1f09;" horiz-adv-x="1904" 
d="M332 0h-260l752 2048h256l752 -2048h-260l-206 580h-828zM616 800h672l-328 924h-16zM260 1936v112h248v-104q0 -99 27.5 -172t84.5 -136l-108 -84q-120 66 -186 165t-66 219z" />
    <glyph glyph-name="uni1F0A" unicode="&#x1f0a;" horiz-adv-x="1904" 
d="M332 0h-260l752 2048h256l752 -2048h-260l-206 580h-828zM616 800h672l-328 924h-16zM48 2048v-112q0 -120 -66 -219t-186 -165l-108 84q54 63 83 136t29 172v104h248zM556 1604v-20h-128l-316 436v28h288z" />
    <glyph glyph-name="uni1F0B" unicode="&#x1f0b;" horiz-adv-x="1904" 
d="M332 0h-260l752 2048h256l752 -2048h-260l-206 580h-828zM616 800h672l-328 924h-16zM-208 1936v112h248v-104q0 -99 27.5 -172t84.5 -136l-108 -84q-120 66 -186 165t-66 219zM576 1604v-20h-128l-316 436v28h292z" />
    <glyph glyph-name="uni1F0C" unicode="&#x1f0c;" horiz-adv-x="1904" 
d="M332 0h-260l752 2048h256l752 -2048h-260l-206 580h-828zM616 800h672l-328 924h-16zM172 2048v-112q0 -120 -66 -219t-186 -165l-108 84q54 63 83 136t29 172v104h248zM192 1584v20l156 444h288v-28l-316 -436h-128z" />
    <glyph glyph-name="uni1F0D" unicode="&#x1f0d;" horiz-adv-x="1904" 
d="M332 0h-260l752 2048h256l752 -2048h-260l-206 580h-828zM616 800h672l-328 924h-16zM-236 1936v112h248v-104q0 -99 29 -172t83 -136l-108 -84q-120 66 -186 165t-66 219zM176 1584v20l152 444h292v-28l-316 -436h-128z" />
    <glyph glyph-name="uni1F0E" unicode="&#x1f0e;" horiz-adv-x="1904" 
d="M332 0h-260l752 2048h256l752 -2048h-260l-206 580h-828zM616 800h672l-328 924h-16zM616 2372l120 -36q0 -99 -65 -173.5t-167 -74.5q-74 0 -119 25t-85 50t-100 25q-45 0 -76.5 -34.5t-31.5 -85.5l-120 32q0 99 63 177.5t165 78.5q62 0 108.5 -26t92 -52t103.5 -26
q45 0 78.5 34.5t33.5 85.5zM484 2020v-96q0 -78 -42 -167t-126 -149l-120 68q80 109 80 244v100h208z" />
    <glyph glyph-name="uni1F0F" unicode="&#x1f0f;" horiz-adv-x="1904" 
d="M332 0h-260l752 2048h256l752 -2048h-260l-206 580h-828zM616 800h672l-328 924h-16zM604 2372l120 -36q0 -99 -65 -173.5t-167 -74.5q-74 0 -119 25t-85 50t-100 25q-45 0 -76.5 -34.5t-31.5 -85.5l-120 32q0 99 63 177.5t165 78.5q62 0 108.5 -26t92 -52t103.5 -26
q45 0 78.5 34.5t33.5 85.5zM252 1924v96h208v-100q0 -135 80 -244l-124 -68q-84 60 -124 149t-40 167z" />
    <glyph glyph-name="uni1FB8" unicode="&#x1fb8;" horiz-adv-x="1904" 
d="M332 0h-260l752 2048h256l752 -2048h-260l-206 580h-828zM616 800h672l-328 924h-16zM1148 2560h220q0 -162 -112 -265t-304 -103q-189 0 -300.5 103t-111.5 265h220q0 -78 43.5 -137t148.5 -59t150.5 59t45.5 137z" />
    <glyph glyph-name="uni1FB9" unicode="&#x1fb9;" horiz-adv-x="1904" 
d="M332 0h-260l752 2048h256l752 -2048h-260l-206 580h-828zM616 800h672l-328 924h-16zM1420 2560v-200h-936v200h936z" />
    <glyph glyph-name="uni1FBA" unicode="&#x1fba;" horiz-adv-x="1904" 
d="M332 0h-260l752 2048h256l752 -2048h-260l-206 580h-828zM616 800h672l-328 924h-16zM560 1580h-128l-316 440v28h288l156 -444v-24z" />
    <glyph glyph-name="uni023A" unicode="&#x23a;" horiz-adv-x="1904" 
d="M1572 2308l-289 -813l549 -1495h-260l-206 580h-408l-298 -840h-228l298 840h-192l-206 -580h-260l752 2048h256l87 -238l177 498h228zM808 800l240 675l-88 249h-16l-328 -924h192zM1162 1154l-126 -354h252z" />
    <glyph glyph-name="uni1FBB" unicode="&#x1fbb;" horiz-adv-x="1904" 
d="M332 0h-260l752 2048h256l752 -2048h-260l-206 580h-828zM616 800h672l-328 924h-16zM196 1604l152 444h292v-28l-316 -440h-128v24z" />
    <glyph glyph-name="uni0410" unicode="&#x410;" horiz-adv-x="1904" 
d="M332 0h-260l752 2048h256l752 -2048h-260l-206 580h-828zM616 800h672l-328 924h-16z" />
    <glyph glyph-name="uni04D0" unicode="&#x4d0;" horiz-adv-x="1904" 
d="M332 0h-260l752 2048h256l752 -2048h-260l-206 580h-828zM616 800h672l-328 924h-16zM1148 2560h220q0 -162 -112 -265t-304 -103q-189 0 -300.5 103t-111.5 265h220q0 -78 43.5 -137t148.5 -59t150.5 59t45.5 137z" />
    <glyph glyph-name="uni04D2" unicode="&#x4d2;" horiz-adv-x="1904" 
d="M332 0h-260l752 2048h256l752 -2048h-260l-206 580h-828zM616 800h672l-328 924h-16zM664 2304q-63 0 -111.5 48.5t-48.5 111.5q0 69 48.5 114.5t111.5 45.5q69 0 114.5 -45.5t45.5 -114.5q0 -63 -45.5 -111.5t-114.5 -48.5zM1240 2304q-63 0 -111.5 48.5t-48.5 111.5
q0 69 48.5 114.5t111.5 45.5q69 0 114.5 -45.5t45.5 -114.5q0 -63 -45.5 -111.5t-114.5 -48.5z" />
    <glyph glyph-name="uni1F88" unicode="&#x1f88;" horiz-adv-x="1904" 
d="M332 0h-260l752 2048h256l752 -2048h-260l-206 580h-828zM616 800h672l-328 924h-16zM848 -140h208v-324q0 -60 19 -84t49 -24q15 0 33 2t27 2v-140q-15 -6 -40 -11t-64 -5q-102 0 -167 60.5t-65 195.5v328zM600 2048v-112q0 -249 -252 -384l-108 84q57 63 84.5 136
t27.5 172v104h248z" />
    <glyph glyph-name="uni1F89" unicode="&#x1f89;" horiz-adv-x="1904" 
d="M332 0h-260l752 2048h256l752 -2048h-260l-206 580h-828zM616 800h672l-328 924h-16zM848 -140h208v-324q0 -60 19 -84t49 -24q15 0 33 2t27 2v-140q-15 -6 -40 -11t-64 -5q-102 0 -167 60.5t-65 195.5v328zM260 1936v112h248v-104q0 -99 27.5 -172t84.5 -136l-108 -84
q-120 66 -186 165t-66 219z" />
    <glyph glyph-name="uni1F8A" unicode="&#x1f8a;" horiz-adv-x="1904" 
d="M332 0h-260l752 2048h256l752 -2048h-260l-206 580h-828zM616 800h672l-328 924h-16zM848 -140h208v-324q0 -60 19 -84t49 -24q15 0 33 2t27 2v-140q-15 -6 -40 -11t-64 -5q-102 0 -167 60.5t-65 195.5v328zM48 2048v-112q0 -120 -66 -219t-186 -165l-108 84
q54 63 83 136t29 172v104h248zM556 1604v-20h-128l-316 436v28h288z" />
    <glyph glyph-name="uni1F8B" unicode="&#x1f8b;" horiz-adv-x="1904" 
d="M332 0h-260l752 2048h256l752 -2048h-260l-206 580h-828zM616 800h672l-328 924h-16zM848 -140h208v-324q0 -60 19 -84t49 -24q15 0 33 2t27 2v-140q-15 -6 -40 -11t-64 -5q-102 0 -167 60.5t-65 195.5v328zM-208 1936v112h248v-104q0 -99 27.5 -172t84.5 -136l-108 -84
q-120 66 -186 165t-66 219zM576 1604v-20h-128l-316 436v28h292z" />
    <glyph glyph-name="uni1F8C" unicode="&#x1f8c;" horiz-adv-x="1904" 
d="M332 0h-260l752 2048h256l752 -2048h-260l-206 580h-828zM616 800h672l-328 924h-16zM172 2048v-112q0 -120 -66 -219t-186 -165l-108 84q54 63 83 136t29 172v104h248zM192 1584v20l156 444h288v-28l-316 -436h-128zM848 -140h208v-324q0 -60 19 -84t49 -24q15 0 33 2
t27 2v-140q-15 -6 -40 -11t-64 -5q-102 0 -167 60.5t-65 195.5v328z" />
    <glyph glyph-name="uni1F8D" unicode="&#x1f8d;" horiz-adv-x="1904" 
d="M332 0h-260l752 2048h256l752 -2048h-260l-206 580h-828zM616 800h672l-328 924h-16zM848 -140h208v-324q0 -60 19 -84t49 -24q15 0 33 2t27 2v-140q-15 -6 -40 -11t-64 -5q-102 0 -167 60.5t-65 195.5v328zM-236 1936v112h248v-104q0 -99 29 -172t83 -136l-108 -84
q-120 66 -186 165t-66 219zM176 1584v20l152 444h292v-28l-316 -436h-128z" />
    <glyph glyph-name="uni1F8E" unicode="&#x1f8e;" horiz-adv-x="1904" 
d="M332 0h-260l752 2048h256l752 -2048h-260l-206 580h-828zM616 800h672l-328 924h-16zM616 2372l120 -36q0 -99 -65 -173.5t-167 -74.5q-74 0 -119 25t-85 50t-100 25q-45 0 -76.5 -34.5t-31.5 -85.5l-120 32q0 99 63 177.5t165 78.5q62 0 108.5 -26t92 -52t103.5 -26
q45 0 78.5 34.5t33.5 85.5zM484 2020v-96q0 -78 -42 -167t-126 -149l-120 68q80 109 80 244v100h208zM848 -140h208v-324q0 -60 19 -84t49 -24q15 0 33 2t27 2v-140q-15 -6 -40 -11t-64 -5q-102 0 -167 60.5t-65 195.5v328z" />
    <glyph glyph-name="uni1F8F" unicode="&#x1f8f;" horiz-adv-x="1904" 
d="M332 0h-260l752 2048h256l752 -2048h-260l-206 580h-828zM616 800h672l-328 924h-16zM848 -140h208v-324q0 -60 19 -84t49 -24q15 0 33 2t27 2v-140q-15 -6 -40 -11t-64 -5q-102 0 -167 60.5t-65 195.5v328zM604 2372l120 -36q0 -99 -65 -173.5t-167 -74.5q-74 0 -119 25
t-85 50t-100 25q-45 0 -76.5 -34.5t-31.5 -85.5l-120 32q0 99 63 177.5t165 78.5q62 0 108.5 -26t92 -52t103.5 -26q45 0 78.5 34.5t33.5 85.5zM252 1924v96h208v-100q0 -135 80 -244l-124 -68q-84 60 -124 149t-40 167z" />
    <glyph glyph-name="uni1FBC" unicode="&#x1fbc;" horiz-adv-x="1904" 
d="M332 0h-260l752 2048h256l752 -2048h-260l-206 580h-828zM616 800h672l-328 924h-16zM848 -140h208v-324q0 -60 19 -84t49 -24q15 0 33 2t27 2v-140q-15 -6 -40 -11t-64 -5q-102 0 -167 60.5t-65 195.5v328z" />
    <glyph glyph-name="uni039B" unicode="&#x39b;" horiz-adv-x="1904" 
d="M332 0h-260l752 2048h256l752 -2048h-260l-612 1724h-16z" />
    <glyph glyph-name="uni00C6" unicode="&#xc6;" horiz-adv-x="2788" 
d="M72 0l992 2048h1524v-220h-988v-692h924v-220h-924v-696h1004v-220h-1252v580h-735l-273 -580h-272zM720 800h632v1028h-148z" />
    <glyph glyph-name="uni01E2" unicode="&#x1e2;" horiz-adv-x="2788" 
d="M72 0l992 2048h1524v-220h-988v-692h924v-220h-924v-696h1004v-220h-1252v580h-735l-273 -580h-272zM720 800h632v1028h-148zM2288 2560v-200h-936v200h936z" />
    <glyph glyph-name="uni01FC" unicode="&#x1fc;" horiz-adv-x="2788" 
d="M72 0l992 2048h1524v-220h-988v-692h924v-220h-924v-696h1004v-220h-1252v580h-735l-273 -580h-272zM720 800h632v1028h-148zM1712 2256l244 464h276l-312 -464h-208z" />
    <glyph glyph-name="uni04D4" unicode="&#x4d4;" horiz-adv-x="2788" 
d="M72 0l992 2048h1524v-220h-988v-692h924v-220h-924v-696h1004v-220h-1252v580h-735l-273 -580h-272zM720 800h632v1028h-148z" />
    <glyph glyph-name="uni0042" unicode="B" horiz-adv-x="1832" 
d="M248 0v2048h716q214 0 353 -73.5t207 -197t68 -273.5q0 -132 -46.5 -218t-122 -136t-163.5 -74v-20q94 -6 189 -66t159 -172t64 -274q0 -154 -70 -277t-221 -195t-393 -72h-740zM496 220h492q243 0 345.5 94.5t102.5 229.5q0 104 -53 192.5t-151 142t-232 53.5h-504v-712
zM496 1148h460q168 0 284 97t116 259q0 135 -94 229.5t-298 94.5h-468v-680z" />
    <glyph glyph-name="uni1E02" unicode="&#x1e02;" horiz-adv-x="1832" 
d="M248 0v2048h716q214 0 353 -73.5t207 -197t68 -273.5q0 -132 -46.5 -218t-122 -136t-163.5 -74v-20q94 -6 189 -66t159 -172t64 -274q0 -154 -70 -277t-221 -195t-393 -72h-740zM496 220h492q243 0 345.5 94.5t102.5 229.5q0 104 -53 192.5t-151 142t-232 53.5h-504v-712
zM496 1148h460q168 0 284 97t116 259q0 135 -94 229.5t-298 94.5h-468v-680zM876 2304q-69 0 -118.5 47t-49.5 113t49.5 113t118.5 47t118.5 -47t49.5 -113t-49.5 -113t-118.5 -47z" />
    <glyph glyph-name="uni1E04" unicode="&#x1e04;" horiz-adv-x="1832" 
d="M248 0v2048h716q214 0 353 -73.5t207 -197t68 -273.5q0 -132 -46.5 -218t-122 -136t-163.5 -74v-20q94 -6 189 -66t159 -172t64 -274q0 -154 -70 -277t-221 -195t-393 -72h-740zM496 220h492q243 0 345.5 94.5t102.5 229.5q0 104 -53 192.5t-151 142t-232 53.5h-504v-712
zM496 1148h460q168 0 284 97t116 259q0 135 -94 229.5t-298 94.5h-468v-680zM888 -508q-69 0 -118.5 47t-49.5 113t49.5 113t118.5 47t118.5 -47t49.5 -113t-49.5 -113t-118.5 -47z" />
    <glyph glyph-name="uni1E06" unicode="&#x1e06;" horiz-adv-x="1832" 
d="M248 0v2048h716q214 0 353 -73.5t207 -197t68 -273.5q0 -132 -46.5 -218t-122 -136t-163.5 -74v-20q94 -6 189 -66t159 -172t64 -274q0 -154 -70 -277t-221 -195t-393 -72h-740zM496 220h492q243 0 345.5 94.5t102.5 229.5q0 104 -53 192.5t-151 142t-232 53.5h-504v-712
zM496 1148h460q168 0 284 97t116 259q0 135 -94 229.5t-298 94.5h-468v-680zM1356 -252v-200h-936v200h936z" />
    <glyph glyph-name="uni0243" unicode="&#x243;" horiz-adv-x="1988" 
d="M404 0v2048h716q214 0 353 -73.5t207 -197t68 -273.5q0 -132 -46.5 -218t-122 -136t-163.5 -74v-20q94 -6 189 -66t159 -172t64 -274q0 -154 -70 -277t-221 -195t-393 -72h-740zM652 220h492q243 0 345.5 94.5t102.5 229.5q0 104 -53 192.5t-151 142t-232 53.5h-504v-712
zM652 1148h460q168 0 284 97t116 259q0 135 -94 229.5t-298 94.5h-468v-680zM88 484v184h880v-184h-880z" />
    <glyph glyph-name="uni0181" unicode="&#x181;" horiz-adv-x="2260" 
d="M676 0v1828h-128q-80 0 -118.5 -35.5t-50 -92t-11.5 -120.5v-76h-232v136q0 168 105 288t303 120h848q214 0 353 -73.5t207 -197t68 -273.5q0 -132 -46.5 -218t-122 -136t-163.5 -74v-20q94 -6 189 -66t159 -172t64 -274q0 -154 -70 -277t-221 -195t-393 -72h-740z
M924 220h492q243 0 345.5 94.5t102.5 229.5q0 104 -53 192.5t-151 142t-232 53.5h-504v-712zM924 1148h460q168 0 284 97t116 259q0 135 -94 229.5t-298 94.5h-468v-680z" />
    <glyph glyph-name="uni0412" unicode="&#x412;" horiz-adv-x="1832" 
d="M248 0v2048h716q214 0 353 -73.5t207 -197t68 -273.5q0 -132 -46.5 -218t-122 -136t-163.5 -74v-20q94 -6 189 -66t159 -172t64 -274q0 -154 -70 -277t-221 -195t-393 -72h-740zM496 220h492q243 0 345.5 94.5t102.5 229.5q0 104 -53 192.5t-151 142t-232 53.5h-504v-712
zM496 1148h460q168 0 284 97t116 259q0 135 -94 229.5t-298 94.5h-468v-680z" />
    <glyph glyph-name="uni0392" unicode="&#x392;" horiz-adv-x="1832" 
d="M248 0v2048h716q214 0 353 -73.5t207 -197t68 -273.5q0 -132 -46.5 -218t-122 -136t-163.5 -74v-20q94 -6 189 -66t159 -172t64 -274q0 -154 -70 -277t-221 -195t-393 -72h-740zM496 220h492q243 0 345.5 94.5t102.5 229.5q0 104 -53 192.5t-151 142t-232 53.5h-504v-712
zM496 1148h460q168 0 284 97t116 259q0 135 -94 229.5t-298 94.5h-468v-680z" />
    <glyph glyph-name="uni0043" unicode="C" horiz-adv-x="2048" 
d="M1896 1408h-248q-30 142 -115 239t-205 147t-256 50q-186 0 -336.5 -94t-239 -277t-88.5 -449t88.5 -449t239 -277t336.5 -94q136 0 256 50t205 147t115 239h248q-38 -210 -155 -359.5t-290 -229t-379 -79.5q-262 0 -466 128t-321 364t-117 560t117 560t321 364t466 128
q206 0 379 -79.5t290 -229t155 -359.5z" />
    <glyph glyph-name="uni0187" unicode="&#x187;" horiz-adv-x="2172" 
d="M1896 1408h-248q-30 142 -115 239t-205 147t-256 50q-186 0 -336.5 -94t-239 -277t-88.5 -449t88.5 -449t239 -277t336.5 -94q136 0 256 50t205 147t115 239h248q-38 -210 -155 -359.5t-290 -229t-379 -79.5q-262 0 -466 128t-321 364t-117 560t117 560t321 364t466 128
q379 0 615 -247q43 120 143.5 183.5t229.5 63.5q36 0 72.5 -1.5t63.5 -10.5v-200q-15 3 -35 5.5t-41 2.5q-96 0 -160 -44t-64 -164v-256z" />
    <glyph glyph-name="uni00C7" unicode="&#xc7;" horiz-adv-x="2048" 
d="M1896 1408h-248q-30 142 -115 239t-205 147t-256 50q-186 0 -336.5 -94t-239 -277t-88.5 -449t88.5 -449t239 -277t336.5 -94q136 0 256 50t205 147t115 239h248q-38 -210 -155 -359.5t-290 -229t-379 -79.5q-262 0 -466 128t-321 364t-117 560t117 560t321 364t466 128
q206 0 379 -79.5t290 -229t155 -359.5zM968 -8h196l-16 -80q78 -12 143 -65.5t65 -170.5q0 -129 -106.5 -210.5t-313.5 -81.5l-8 156q93 0 154.5 29.5t61.5 98.5t-51 94t-165 34z" />
    <glyph glyph-name="uni0106" unicode="&#x106;" horiz-adv-x="2048" 
d="M1896 1408h-248q-30 142 -115 239t-205 147t-256 50q-186 0 -336.5 -94t-239 -277t-88.5 -449t88.5 -449t239 -277t336.5 -94q136 0 256 50t205 147t115 239h248q-38 -210 -155 -359.5t-290 -229t-379 -79.5q-262 0 -466 128t-321 364t-117 560t117 560t321 364t466 128
q206 0 379 -79.5t290 -229t155 -359.5zM964 2256l244 464h276l-312 -464h-208z" />
    <glyph glyph-name="uni0108" unicode="&#x108;" horiz-adv-x="2048" 
d="M1896 1408h-248q-30 142 -115 239t-205 147t-256 50q-186 0 -336.5 -94t-239 -277t-88.5 -449t88.5 -449t239 -277t336.5 -94q136 0 256 50t205 147t115 239h248q-38 -210 -155 -359.5t-290 -229t-379 -79.5q-262 0 -466 128t-321 364t-117 560t117 560t321 364t466 128
q206 0 379 -79.5t290 -229t155 -359.5zM864 2232l208 280l208 -280h224v16l-324 416h-216l-324 -416v-16h224z" />
    <glyph glyph-name="uni010A" unicode="&#x10a;" horiz-adv-x="2048" 
d="M1896 1408h-248q-30 142 -115 239t-205 147t-256 50q-186 0 -336.5 -94t-239 -277t-88.5 -449t88.5 -449t239 -277t336.5 -94q136 0 256 50t205 147t115 239h248q-38 -210 -155 -359.5t-290 -229t-379 -79.5q-262 0 -466 128t-321 364t-117 560t117 560t321 364t466 128
q206 0 379 -79.5t290 -229t155 -359.5zM1072 2304q-69 0 -118.5 47t-49.5 113t49.5 113t118.5 47t118.5 -47t49.5 -113t-49.5 -113t-118.5 -47z" />
    <glyph glyph-name="uni010C" unicode="&#x10c;" horiz-adv-x="2048" 
d="M1896 1408h-248q-30 142 -115 239t-205 147t-256 50q-186 0 -336.5 -94t-239 -277t-88.5 -449t88.5 -449t239 -277t336.5 -94q136 0 256 50t205 147t115 239h248q-38 -210 -155 -359.5t-290 -229t-379 -79.5q-262 0 -466 128t-321 364t-117 560t117 560t321 364t466 128
q206 0 379 -79.5t290 -229t155 -359.5zM864 2664l208 -280l208 280h224v-16l-324 -416h-216l-324 416v16h224z" />
    <glyph glyph-name="uni1E08" unicode="&#x1e08;" horiz-adv-x="2048" 
d="M1896 1408h-248q-30 142 -115 239t-205 147t-256 50q-186 0 -336.5 -94t-239 -277t-88.5 -449t88.5 -449t239 -277t336.5 -94q136 0 256 50t205 147t115 239h248q-38 -210 -155 -359.5t-290 -229t-379 -79.5q-262 0 -466 128t-321 364t-117 560t117 560t321 364t466 128
q206 0 379 -79.5t290 -229t155 -359.5zM968 -8h196l-16 -80q78 -12 143 -65.5t65 -170.5q0 -129 -106.5 -210.5t-313.5 -81.5l-8 156q93 0 154.5 29.5t61.5 98.5t-51 94t-165 34zM964 2256l244 464h276l-312 -464h-208z" />
    <glyph glyph-name="uni023B" unicode="&#x23b;" horiz-adv-x="2048" 
d="M464 -260l130 367q-196 127 -311 362t-115 555q0 324 117 560t321 364t466 128q110 0 213 -23l91 255h228l-117 -329q157 -82 265 -227t144 -344h-248q-25 117 -88.5 204t-152.5 142l-539 -1518q97 -32 204 -32q136 0 256 50t205 147t115 239h248q-38 -210 -155 -359.5
t-290 -229t-379 -79.5q-149 0 -282 43l-98 -275h-228zM677 340l530 1491q-66 13 -135 13q-186 0 -336.5 -94t-239 -277t-88.5 -449q0 -239 73 -411.5t196 -272.5z" />
    <glyph glyph-name="uni0186" unicode="&#x186;" horiz-adv-x="2048" 
d="M976 -28q-206 0 -379 79.5t-290 229t-155 359.5h248q30 -142 115 -239t205 -147t256 -50q186 0 336.5 94t239 277t88.5 449t-88.5 449t-239 277t-336.5 94q-136 0 -256 -50t-205 -147t-115 -239h-248q38 210 155 359.5t290 229t379 79.5q262 0 466 -128t321 -364
t117 -560t-117 -560t-321 -364t-466 -128z" />
    <glyph glyph-name="uni03F9" unicode="&#x3f9;" horiz-adv-x="2048" 
d="M1896 1408h-248q-30 142 -115 239t-205 147t-256 50q-186 0 -336.5 -94t-239 -277t-88.5 -449t88.5 -449t239 -277t336.5 -94q136 0 256 50t205 147t115 239h248q-38 -210 -155 -359.5t-290 -229t-379 -79.5q-262 0 -466 128t-321 364t-117 560t117 560t321 364t466 128
q206 0 379 -79.5t290 -229t155 -359.5z" />
    <glyph glyph-name="uni0044" unicode="D" horiz-adv-x="2024" 
d="M880 0h-632v2048h660q298 0 510 -122.5t325 -351t113 -546.5q0 -320 -114 -550.5t-332 -354t-530 -123.5zM496 220h368q381 0 566.5 216.5t185.5 591.5q0 372 -182 586t-542 214h-396v-1608z" />
    <glyph glyph-name="uni018A" unicode="&#x18a;" horiz-adv-x="2468" 
d="M136 1504v136q0 168 105 288t303 120h808q298 0 510 -122.5t325 -351t113 -546.5q0 -320 -114 -550.5t-332 -354t-530 -123.5h-632v1828h-144q-80 0 -118.5 -35.5t-50 -92t-11.5 -120.5v-76h-232zM940 220h368q381 0 566.5 216.5t185.5 591.5q0 372 -182 586t-542 214
h-396v-1608z" />
    <glyph glyph-name="uni010E" unicode="&#x10e;" horiz-adv-x="2024" 
d="M880 0h-632v2048h660q298 0 510 -122.5t325 -351t113 -546.5q0 -320 -114 -550.5t-332 -354t-530 -123.5zM496 220h368q381 0 566.5 216.5t185.5 591.5q0 372 -182 586t-542 214h-396v-1608zM640 2664l208 -280l208 280h224v-16l-324 -416h-216l-324 416v16h224z" />
    <glyph glyph-name="uni1E0A" unicode="&#x1e0a;" horiz-adv-x="2024" 
d="M880 0h-632v2048h660q298 0 510 -122.5t325 -351t113 -546.5q0 -320 -114 -550.5t-332 -354t-530 -123.5zM496 220h368q381 0 566.5 216.5t185.5 591.5q0 372 -182 586t-542 214h-396v-1608zM848 2304q-69 0 -118.5 47t-49.5 113t49.5 113t118.5 47t118.5 -47t49.5 -113
t-49.5 -113t-118.5 -47z" />
    <glyph glyph-name="uni1E0C" unicode="&#x1e0c;" horiz-adv-x="2024" 
d="M880 0h-632v2048h660q298 0 510 -122.5t325 -351t113 -546.5q0 -320 -114 -550.5t-332 -354t-530 -123.5zM496 220h368q381 0 566.5 216.5t185.5 591.5q0 372 -182 586t-542 214h-396v-1608zM856 -508q-69 0 -118.5 47t-49.5 113t49.5 113t118.5 47t118.5 -47t49.5 -113
t-49.5 -113t-118.5 -47z" />
    <glyph glyph-name="uni1E0E" unicode="&#x1e0e;" horiz-adv-x="2024" 
d="M880 0h-632v2048h660q298 0 510 -122.5t325 -351t113 -546.5q0 -320 -114 -550.5t-332 -354t-530 -123.5zM496 220h368q381 0 566.5 216.5t185.5 591.5q0 372 -182 586t-542 214h-396v-1608zM1324 -252v-200h-936v200h936z" />
    <glyph glyph-name="uni1E10" unicode="&#x1e10;" horiz-adv-x="2024" 
d="M880 0h-632v2048h660q298 0 510 -122.5t325 -351t113 -546.5q0 -320 -114 -550.5t-332 -354t-530 -123.5zM496 220h368q381 0 566.5 216.5t185.5 591.5q0 372 -182 586t-542 214h-396v-1608zM976 -128v-124q-3 -132 -42.5 -287.5t-117.5 -272.5l-200 40q51 120 87.5 261
t36.5 255v128h236z" />
    <glyph glyph-name="uni1E12" unicode="&#x1e12;" horiz-adv-x="2024" 
d="M880 0h-632v2048h660q298 0 510 -122.5t325 -351t113 -546.5q0 -320 -114 -550.5t-332 -354t-530 -123.5zM496 220h368q381 0 566.5 216.5t185.5 591.5q0 372 -182 586t-542 214h-396v-1608zM648 -560l208 280l208 -280h224v16l-324 416h-216l-324 -416v-16h224z" />
    <glyph glyph-name="uni0189" unicode="&#x189;" horiz-adv-x="2024" 
d="M880 0h-632v2048h660q298 0 510 -122.5t325 -351t113 -546.5q0 -320 -114 -550.5t-332 -354t-530 -123.5zM496 220h368q381 0 566.5 216.5t185.5 591.5q0 372 -182 586t-542 214h-396v-1608zM-68 964v184h880v-184h-880z" />
    <glyph glyph-name="uni01F2" unicode="&#x1f2;" horiz-adv-x="3548" 
d="M880 0h-632v2048h660q298 0 510 -122.5t325 -351t113 -546.5q0 -320 -114 -550.5t-332 -354t-530 -123.5zM496 220h368q381 0 566.5 216.5t185.5 591.5q0 372 -182 586t-542 214h-396v-1608zM2196 0v180l872 1120v16h-844v220h1148v-188l-848 -1112v-16h876v-220h-1204z
" />
    <glyph glyph-name="uni01C5" unicode="&#x1c5;" horiz-adv-x="3548" 
d="M880 0h-632v2048h660q298 0 510 -122.5t325 -351t113 -546.5q0 -320 -114 -550.5t-332 -354t-530 -123.5zM496 220h368q381 0 566.5 216.5t185.5 591.5q0 372 -182 586t-542 214h-396v-1608zM2196 0v180l872 1120v16h-844v220h1148v-188l-848 -1112v-16h876v-220h-1204z
M2576 2152l208 -280l208 280h224v-16l-324 -416h-216l-324 416v16h224z" />
    <glyph glyph-name="uni0045" unicode="E" horiz-adv-x="1684" 
d="M248 0v2048h1236v-220h-988v-692h924v-220h-924v-696h1004v-220h-1252z" />
    <glyph glyph-name="uni00C8" unicode="&#xc8;" horiz-adv-x="1684" 
d="M248 0v2048h1236v-220h-988v-692h924v-220h-924v-696h1004v-220h-1252zM972 2256h-208l-312 464h276z" />
    <glyph glyph-name="uni00C9" unicode="&#xc9;" horiz-adv-x="1684" 
d="M248 0v2048h1236v-220h-988v-692h924v-220h-924v-696h1004v-220h-1252zM756 2256l244 464h276l-312 -464h-208z" />
    <glyph glyph-name="uni00CA" unicode="&#xca;" horiz-adv-x="1684" 
d="M248 0v2048h1236v-220h-988v-692h924v-220h-924v-696h1004v-220h-1252zM656 2232l208 280l208 -280h224v16l-324 416h-216l-324 -416v-16h224z" />
    <glyph glyph-name="uni00CB" unicode="&#xcb;" horiz-adv-x="1684" 
d="M248 0v2048h1236v-220h-988v-692h924v-220h-924v-696h1004v-220h-1252zM576 2304q-63 0 -111.5 48.5t-48.5 111.5q0 69 48.5 114.5t111.5 45.5q69 0 114.5 -45.5t45.5 -114.5q0 -63 -45.5 -111.5t-114.5 -48.5zM1152 2304q-63 0 -111.5 48.5t-48.5 111.5q0 69 48.5 114.5
t111.5 45.5q69 0 114.5 -45.5t45.5 -114.5q0 -63 -45.5 -111.5t-114.5 -48.5z" />
    <glyph glyph-name="uni0112" unicode="&#x112;" horiz-adv-x="1684" 
d="M248 0v2048h1236v-220h-988v-692h924v-220h-924v-696h1004v-220h-1252zM1332 2560v-200h-936v200h936z" />
    <glyph glyph-name="uni0114" unicode="&#x114;" horiz-adv-x="1684" 
d="M248 0v2048h1236v-220h-988v-692h924v-220h-924v-696h1004v-220h-1252zM1060 2560h220q0 -162 -112 -265t-304 -103q-189 0 -300.5 103t-111.5 265h220q0 -78 43.5 -137t148.5 -59t150.5 59t45.5 137z" />
    <glyph glyph-name="uni0116" unicode="&#x116;" horiz-adv-x="1684" 
d="M248 0v2048h1236v-220h-988v-692h924v-220h-924v-696h1004v-220h-1252zM864 2304q-69 0 -118.5 47t-49.5 113t49.5 113t118.5 47t118.5 -47t49.5 -113t-49.5 -113t-118.5 -47z" />
    <glyph glyph-name="uni0118" unicode="&#x118;" horiz-adv-x="1684" 
d="M248 0v2048h1236v-220h-988v-692h924v-220h-924v-696h1004v-220h-1252zM1312 -600q-123 0 -203.5 67.5t-80.5 196.5q0 111 83 220.5t281 199.5l108 -84q-90 -66 -161 -140t-71 -164q0 -45 22 -70.5t82 -25.5q45 0 80 12t56 24l16 -176q-33 -21 -86.5 -40.5t-125.5 -19.5z
" />
    <glyph glyph-name="uni011A" unicode="&#x11a;" horiz-adv-x="1684" 
d="M248 0v2048h1236v-220h-988v-692h924v-220h-924v-696h1004v-220h-1252zM656 2664l208 -280l208 280h224v-16l-324 -416h-216l-324 416v16h224z" />
    <glyph glyph-name="uni0204" unicode="&#x204;" horiz-adv-x="1684" 
d="M248 0v2048h1236v-220h-988v-692h924v-220h-924v-696h1004v-220h-1252zM824 2248h-248l-420 364h332zM1188 2248h-220l-336 364h304z" />
    <glyph glyph-name="uni0206" unicode="&#x206;" horiz-adv-x="1684" 
d="M248 0v2048h1236v-220h-988v-692h924v-220h-924v-696h1004v-220h-1252zM452 2288q0 162 112 267t304 105t302 -105t110 -267h-220q0 81 -45 140.5t-147 59.5q-108 0 -152 -61t-44 -139h-220z" />
    <glyph glyph-name="uni0228" unicode="&#x228;" horiz-adv-x="1684" 
d="M248 0v2048h1236v-220h-988v-692h924v-220h-924v-696h1004v-220h-1252zM744 8h196l-16 -80q78 -12 143 -65.5t65 -170.5q0 -129 -106.5 -210.5t-313.5 -81.5l-8 156q93 0 154.5 29.5t61.5 98.5t-51 94t-165 34z" />
    <glyph glyph-name="uni1E14" unicode="&#x1e14;" horiz-adv-x="1684" 
d="M248 0v2048h1236v-220h-988v-692h924v-220h-924v-696h1004v-220h-1252zM1336 2464v-208h-940v208h940zM756 2832l196 -268h-164l-296 268h264z" />
    <glyph glyph-name="uni1E16" unicode="&#x1e16;" horiz-adv-x="1684" 
d="M248 0v2048h1236v-220h-988v-692h924v-220h-924v-696h1004v-220h-1252zM1332 2504v-200h-936v200h936zM724 2640l300 304h284l-340 -304h-244z" />
    <glyph glyph-name="uni1E18" unicode="&#x1e18;" horiz-adv-x="1684" 
d="M248 0v2048h1236v-220h-988v-692h924v-220h-924v-696h1004v-220h-1252zM636 -560l208 280l208 -280h224v16l-324 416h-216l-324 -416v-16h224z" />
    <glyph glyph-name="uni1E1A" unicode="&#x1e1a;" horiz-adv-x="1684" 
d="M248 0v2048h1236v-220h-988v-692h924v-220h-924v-696h1004v-220h-1252zM616 -508l-184 8q0 153 87.5 250.5t216.5 97.5q76 0 130.5 -32t108 -64t125.5 -32q57 0 96.5 44.5t39.5 107.5l180 -16q0 -156 -87.5 -248t-216.5 -92q-69 0 -114 19.5t-80 44.5t-74 44.5t-96 19.5
t-94.5 -44.5t-37.5 -107.5z" />
    <glyph glyph-name="uni1E1C" unicode="&#x1e1c;" horiz-adv-x="1684" 
d="M248 0v2048h1236v-220h-988v-692h924v-220h-924v-696h1004v-220h-1252zM744 8h196l-16 -80q78 -12 143 -65.5t65 -170.5q0 -129 -106.5 -210.5t-313.5 -81.5l-8 156q93 0 154.5 29.5t61.5 98.5t-51 94t-165 34zM1060 2560h220q0 -162 -112 -265t-304 -103
q-189 0 -300.5 103t-111.5 265h220q0 -78 43.5 -137t148.5 -59t150.5 59t45.5 137z" />
    <glyph glyph-name="uni1EB8" unicode="&#x1eb8;" horiz-adv-x="1684" 
d="M248 0v2048h1236v-220h-988v-692h924v-220h-924v-696h1004v-220h-1252zM844 -508q-69 0 -118.5 47t-49.5 113t49.5 113t118.5 47t118.5 -47t49.5 -113t-49.5 -113t-118.5 -47z" />
    <glyph glyph-name="uni1EBA" unicode="&#x1eba;" horiz-adv-x="1684" 
d="M248 0v2048h1236v-220h-988v-692h924v-220h-924v-696h1004v-220h-1252zM968 2256h-196v216q105 6 148.5 29t43.5 71q0 54 -63 79t-153 25l8 152q207 0 313.5 -72t106.5 -192q0 -102 -65 -149t-143 -59v-100z" />
    <glyph glyph-name="uni1EBC" unicode="&#x1ebc;" horiz-adv-x="1684" 
d="M248 0v2048h1236v-220h-988v-692h924v-220h-924v-696h1004v-220h-1252zM556 2232l-184 8q0 153 87.5 250.5t216.5 97.5q76 0 130.5 -32t108 -64t125.5 -32q57 0 96.5 44.5t39.5 107.5l180 -16q0 -156 -87.5 -248t-216.5 -92q-69 0 -114 19.5t-80 44.5t-74 44.5t-96 19.5
t-94.5 -44.5t-37.5 -107.5z" />
    <glyph glyph-name="uni1EBE" unicode="&#x1ebe;" horiz-adv-x="1684" 
d="M248 0v2048h1236v-220h-988v-692h924v-220h-924v-696h1004v-220h-1252zM348 2240l408 364h220l408 -364h-288l-228 212l-228 -212h-292zM1276 2484l196 360h292l-280 -360h-208z" />
    <glyph glyph-name="uni1EC0" unicode="&#x1ec0;" horiz-adv-x="1684" 
d="M248 0v2048h1236v-220h-988v-692h924v-220h-924v-696h1004v-220h-1252zM972 2600l408 -364h-288l-228 212l-228 -212h-288l404 364h220zM260 2844l192 -364h-204l-284 364h296z" />
    <glyph glyph-name="uni1EC2" unicode="&#x1ec2;" horiz-adv-x="1684" 
d="M248 0v2048h1236v-220h-988v-692h924v-220h-924v-696h1004v-220h-1252zM1000 2576l380 -364h-248l-272 252l-268 -252h-248l380 364h276zM1420 2404h-168v184q84 6 124 22.5t40 61.5q0 48 -53.5 68t-134.5 20l8 132q180 0 272 -61t92 -163q0 -90 -55.5 -130.5
t-124.5 -49.5v-84z" />
    <glyph glyph-name="uni1EC4" unicode="&#x1ec4;" horiz-adv-x="1684" 
d="M248 0v2048h1236v-220h-988v-692h924v-220h-924v-696h1004v-220h-1252zM956 2520l420 -336h-248l-268 212l-268 -212h-248l420 336h192zM1108 2872l112 -32q0 -81 -66 -148.5t-162 -67.5q-68 0 -109 24t-77 48t-90 24q-42 0 -79 -32t-37 -68l-108 28q0 81 64 150.5
t160 69.5q56 0 98.5 -23t84 -46t93.5 -23q42 0 79 30t37 66z" />
    <glyph glyph-name="uni1EC6" unicode="&#x1ec6;" horiz-adv-x="1684" 
d="M248 0v2048h1236v-220h-988v-692h924v-220h-924v-696h1004v-220h-1252zM656 2232l208 280l208 -280h224v16l-324 416h-216l-324 -416v-16h224zM844 -508q-69 0 -118.5 47t-49.5 113t49.5 113t118.5 47t118.5 -47t49.5 -113t-49.5 -113t-118.5 -47z" />
    <glyph glyph-name="uni0246" unicode="&#x246;" horiz-adv-x="1684" 
d="M1412 2308l-75 -260h147v-220h-210l-200 -692h346v-220h-409l-201 -696h690v-220h-753l-75 -260h-228l75 260h-271v2048h861l75 260h228zM1046 1828h-550v-692h350zM783 916h-287v-696h86z" />
    <glyph glyph-name="uni018E" unicode="&#x18e;" horiz-adv-x="1668" 
d="M1428 2048v-2048h-1236v220h988v692h-924v220h924v696h-1004v220h1252z" />
    <glyph glyph-name="uni0395" unicode="&#x395;" horiz-adv-x="1684" 
d="M248 0v2048h1236v-220h-988v-692h924v-220h-924v-696h1004v-220h-1252z" />
    <glyph glyph-name="uni0388" unicode="&#x388;" horiz-adv-x="1944" 
d="M508 0v2048h1236v-220h-988v-692h924v-220h-924v-696h1004v-220h-1252zM100 1708l68 468h256l-160 -468h-164z" />
    <glyph glyph-name="uni1F18" unicode="&#x1f18;" horiz-adv-x="2040" 
d="M604 0v2048h1236v-220h-988v-692h924v-220h-924v-696h1004v-220h-1252zM460 2048v-112q0 -249 -252 -384l-108 84q57 63 84.5 136t27.5 172v104h248z" />
    <glyph glyph-name="uni1F19" unicode="&#x1f19;" horiz-adv-x="2020" 
d="M584 0v2048h1236v-220h-988v-692h924v-220h-924v-696h1004v-220h-1252zM100 1936v112h248v-104q0 -99 27.5 -172t84.5 -136l-108 -84q-120 66 -186 165t-66 219z" />
    <glyph glyph-name="uni1F1A" unicode="&#x1f1a;" horiz-adv-x="2592" 
d="M1156 0v2048h1236v-220h-988v-692h924v-220h-924v-696h1004v-220h-1252zM460 2048v-112q0 -120 -66 -219t-186 -165l-108 84q54 63 83 136t29 172v104h248zM968 1604v-20h-128l-316 436v28h288z" />
    <glyph glyph-name="uni1F1B" unicode="&#x1f1b;" horiz-adv-x="2488" 
d="M1052 0v2048h1236v-220h-988v-692h924v-220h-924v-696h1004v-220h-1252zM100 1936v112h248v-104q0 -99 27.5 -172t84.5 -136l-108 -84q-120 66 -186 165t-66 219zM884 1604v-20h-128l-316 436v28h292z" />
    <glyph glyph-name="uni1F1C" unicode="&#x1f1c;" horiz-adv-x="2468" 
d="M1032 0v2048h1236v-220h-988v-692h924v-220h-924v-696h1004v-220h-1252zM460 2048v-112q0 -120 -66 -219t-186 -165l-108 84q54 63 83 136t29 172v104h248zM480 1584v20l156 444h288v-28l-316 -436h-128z" />
    <glyph glyph-name="uni1F1D" unicode="&#x1f1d;" horiz-adv-x="2516" 
d="M1080 0v2048h1236v-220h-988v-692h924v-220h-924v-696h1004v-220h-1252zM100 1936v112h248v-104q0 -99 29 -172t83 -136l-108 -84q-120 66 -186 165t-66 219zM512 1584v20l152 444h292v-28l-316 -436h-128z" />
    <glyph glyph-name="uni1FC8" unicode="&#x1fc8;" horiz-adv-x="2164" 
d="M728 0v2048h1236v-220h-988v-692h924v-220h-924v-696h1004v-220h-1252zM544 1580h-128l-316 440v28h288l156 -444v-24z" />
    <glyph glyph-name="uni1FC9" unicode="&#x1fc9;" horiz-adv-x="2084" 
d="M648 0v2048h1236v-220h-988v-692h924v-220h-924v-696h1004v-220h-1252zM100 1604l152 444h292v-28l-316 -440h-128v24z" />
    <glyph glyph-name="uni0415" unicode="&#x415;" horiz-adv-x="1684" 
d="M248 0v2048h1236v-220h-988v-692h924v-220h-924v-696h1004v-220h-1252z" />
    <glyph glyph-name="uni0400" unicode="&#x400;" horiz-adv-x="1684" 
d="M248 0v2048h1236v-220h-988v-692h924v-220h-924v-696h1004v-220h-1252zM972 2256h-208l-312 464h276z" />
    <glyph glyph-name="uni0401" unicode="&#x401;" horiz-adv-x="1684" 
d="M248 0v2048h1236v-220h-988v-692h924v-220h-924v-696h1004v-220h-1252zM576 2304q-63 0 -111.5 48.5t-48.5 111.5q0 69 48.5 114.5t111.5 45.5q69 0 114.5 -45.5t45.5 -114.5q0 -63 -45.5 -111.5t-114.5 -48.5zM1152 2304q-63 0 -111.5 48.5t-48.5 111.5q0 69 48.5 114.5
t111.5 45.5q69 0 114.5 -45.5t45.5 -114.5q0 -63 -45.5 -111.5t-114.5 -48.5z" />
    <glyph glyph-name="uni04D6" unicode="&#x4d6;" horiz-adv-x="1684" 
d="M248 0v2048h1236v-220h-988v-692h924v-220h-924v-696h1004v-220h-1252zM1060 2560h220q0 -162 -112 -265t-304 -103q-189 0 -300.5 103t-111.5 265h220q0 -78 43.5 -137t148.5 -59t150.5 59t45.5 137z" />
    <glyph glyph-name="uni0046" unicode="F" horiz-adv-x="1652" 
d="M248 0v2048h1228v-220h-980v-692h888v-220h-888v-916h-248z" />
    <glyph glyph-name="uni0191" unicode="&#x191;" horiz-adv-x="1652" 
d="M248 -160v2208h1228v-220h-980v-692h888v-220h-888v-1080q0 -198 -118.5 -305t-349.5 -107q-12 0 -21.5 1.5t-54.5 10.5v204q15 -3 35 -5.5t41 -2.5q96 0 158 44t62 164z" />
    <glyph glyph-name="uni1E1E" unicode="&#x1e1e;" horiz-adv-x="1652" 
d="M248 0v2048h1228v-220h-980v-692h888v-220h-888v-916h-248zM888 2304q-69 0 -118.5 47t-49.5 113t49.5 113t118.5 47t118.5 -47t49.5 -113t-49.5 -113t-118.5 -47z" />
    <glyph glyph-name="uni2132" unicode="&#x2132;" horiz-adv-x="1652" 
d="M1404 2048v-2048h-1228v220h980v692h-888v220h888v916h248z" />
    <glyph glyph-name="uni0047" unicode="G" horiz-adv-x="2092" 
d="M1648 1408q-65 202 -213.5 319t-370.5 117q-182 0 -331 -94t-237 -277t-88 -449t89 -449t241 -277t342 -94q173 0 306.5 73.5t209.5 208t80 318.5h-540v220h780v-220q0 -253 -107.5 -440t-296 -289.5t-432.5 -102.5q-272 0 -477.5 128t-320 364t-114.5 560t114.5 560
t317 364t464.5 128q216 0 392 -84.5t293 -235t155 -348.5h-256z" />
    <glyph glyph-name="uni01E4" unicode="&#x1e4;" horiz-adv-x="2092" 
d="M2056 624v-200h-217q-97 -213 -296.5 -332.5t-462.5 -119.5q-272 0 -477.5 128t-320 364t-114.5 560t114.5 560t317 364t464.5 128q216 0 392 -84.5t293 -235t155 -348.5h-256q-65 202 -213.5 319t-370.5 117q-182 0 -331 -94t-237 -277t-88 -449t89 -449t241 -277
t342 -94q153 0 275 57.5t201 162.5h-420v200h515q23 85 25 180h-540v220h780v-220q0 -93 -16 -180h156z" />
    <glyph glyph-name="uni0193" unicode="&#x193;" horiz-adv-x="2176" 
d="M1648 1408q-65 202 -213.5 319t-370.5 117q-182 0 -331 -94t-237 -277t-88 -449t89 -449t241 -277t342 -94q173 0 306.5 73.5t209.5 208t80 318.5h-540v220h780v-220q0 -253 -107.5 -440t-296 -289.5t-432.5 -102.5q-272 0 -477.5 128t-320 364t-114.5 560t114.5 560
t317 364t464.5 128q194 0 357 -69.5t279 -191.5q89 221 364 221q36 0 72.5 -1.5t63.5 -10.5v-200q-15 3 -35 5.5t-41 2.5q-96 0 -160 -44t-64 -164v-196l4 -20h-256z" />
    <glyph glyph-name="uni011C" unicode="&#x11c;" horiz-adv-x="2092" 
d="M1648 1408q-65 202 -213.5 319t-370.5 117q-182 0 -331 -94t-237 -277t-88 -449t89 -449t241 -277t342 -94q173 0 306.5 73.5t209.5 208t80 318.5h-540v220h780v-220q0 -253 -107.5 -440t-296 -289.5t-432.5 -102.5q-272 0 -477.5 128t-320 364t-114.5 560t114.5 560
t317 364t464.5 128q216 0 392 -84.5t293 -235t155 -348.5h-256zM856 2232l208 280l208 -280h224v16l-324 416h-216l-324 -416v-16h224z" />
    <glyph glyph-name="uni011E" unicode="&#x11e;" horiz-adv-x="2092" 
d="M1648 1408q-65 202 -213.5 319t-370.5 117q-182 0 -331 -94t-237 -277t-88 -449t89 -449t241 -277t342 -94q173 0 306.5 73.5t209.5 208t80 318.5h-540v220h780v-220q0 -253 -107.5 -440t-296 -289.5t-432.5 -102.5q-272 0 -477.5 128t-320 364t-114.5 560t114.5 560
t317 364t464.5 128q216 0 392 -84.5t293 -235t155 -348.5h-256zM1260 2560h220q0 -162 -112 -265t-304 -103q-189 0 -300.5 103t-111.5 265h220q0 -78 43.5 -137t148.5 -59t150.5 59t45.5 137z" />
    <glyph glyph-name="uni0120" unicode="&#x120;" horiz-adv-x="2092" 
d="M1648 1408q-65 202 -213.5 319t-370.5 117q-182 0 -331 -94t-237 -277t-88 -449t89 -449t241 -277t342 -94q173 0 306.5 73.5t209.5 208t80 318.5h-540v220h780v-220q0 -253 -107.5 -440t-296 -289.5t-432.5 -102.5q-272 0 -477.5 128t-320 364t-114.5 560t114.5 560
t317 364t464.5 128q216 0 392 -84.5t293 -235t155 -348.5h-256zM1064 2304q-69 0 -118.5 47t-49.5 113t49.5 113t118.5 47t118.5 -47t49.5 -113t-49.5 -113t-118.5 -47z" />
    <glyph glyph-name="uni0122" unicode="&#x122;" horiz-adv-x="2092" 
d="M1648 1408q-65 202 -213.5 319t-370.5 117q-182 0 -331 -94t-237 -277t-88 -449t89 -449t241 -277t342 -94q173 0 306.5 73.5t209.5 208t80 318.5h-540v220h780v-220q0 -253 -107.5 -440t-296 -289.5t-432.5 -102.5q-272 0 -477.5 128t-320 364t-114.5 560t114.5 560
t317 364t464.5 128q216 0 392 -84.5t293 -235t155 -348.5h-256zM1180 -128v-124q-3 -132 -42.5 -287.5t-117.5 -272.5l-200 40q51 120 87.5 261t36.5 255v128h236z" />
    <glyph glyph-name="uni01E6" unicode="&#x1e6;" horiz-adv-x="2092" 
d="M1648 1408q-65 202 -213.5 319t-370.5 117q-182 0 -331 -94t-237 -277t-88 -449t89 -449t241 -277t342 -94q173 0 306.5 73.5t209.5 208t80 318.5h-540v220h780v-220q0 -253 -107.5 -440t-296 -289.5t-432.5 -102.5q-272 0 -477.5 128t-320 364t-114.5 560t114.5 560
t317 364t464.5 128q216 0 392 -84.5t293 -235t155 -348.5h-256zM856 2664l208 -280l208 280h224v-16l-324 -416h-216l-324 416v16h224z" />
    <glyph glyph-name="uni01F4" unicode="&#x1f4;" horiz-adv-x="2092" 
d="M1648 1408q-65 202 -213.5 319t-370.5 117q-182 0 -331 -94t-237 -277t-88 -449t89 -449t241 -277t342 -94q173 0 306.5 73.5t209.5 208t80 318.5h-540v220h780v-220q0 -253 -107.5 -440t-296 -289.5t-432.5 -102.5q-272 0 -477.5 128t-320 364t-114.5 560t114.5 560
t317 364t464.5 128q216 0 392 -84.5t293 -235t155 -348.5h-256zM956 2256l244 464h276l-312 -464h-208z" />
    <glyph glyph-name="uni1E20" unicode="&#x1e20;" horiz-adv-x="2092" 
d="M1648 1408q-65 202 -213.5 319t-370.5 117q-182 0 -331 -94t-237 -277t-88 -449t89 -449t241 -277t342 -94q173 0 306.5 73.5t209.5 208t80 318.5h-540v220h780v-220q0 -253 -107.5 -440t-296 -289.5t-432.5 -102.5q-272 0 -477.5 128t-320 364t-114.5 560t114.5 560
t317 364t464.5 128q216 0 392 -84.5t293 -235t155 -348.5h-256zM1532 2560v-200h-936v200h936z" />
    <glyph glyph-name="uni0047.1" horiz-adv-x="2112" 
d="M1080 -28q-272 0 -477.5 128t-320 364t-114.5 560t117 560t321 364t466 128q216 0 395 -84.5t299 -235t158 -348.5h-256q-61 203 -218 319.5t-378 116.5q-182 0 -333 -94t-241 -277t-90 -449t89 -449t241 -277t342 -94q178 0 314.5 77t216 212t85.5 311h-560v220h800
v-1024h-208l-30 250h-10q-117 -134 -261 -206t-347 -72z" />
    <glyph glyph-name="uni01E4.1" horiz-adv-x="2112" 
d="M2076 624v-200h-140v-424h-208l-30 250h-10q-117 -134 -261 -206t-347 -72q-272 0 -477.5 128t-320 364t-114.5 560t117 560t321 364t466 128q216 0 395 -84.5t299 -235t158 -348.5h-256q-61 203 -218 319.5t-378 116.5q-182 0 -333 -94t-241 -277t-90 -449t89 -449
t241 -277t342 -94q154 0 278 58.5t205 161.5h-427v200h531q25 85 29 180h-560v220h800v-400h140z" />
    <glyph glyph-name="uni0193.1" horiz-adv-x="2176" 
d="M1924 1408h-256q-61 203 -218 319.5t-378 116.5q-182 0 -333 -94t-241 -277t-90 -449t89 -449t241 -277t342 -94q178 0 314.5 77t216 212t85.5 311h-560v220h800v-1024h-208l-30 250h-10q-117 -134 -261 -206t-347 -72q-272 0 -477.5 128t-320 364t-114.5 560t117 560
t321 364t466 128q197 0 364 -71t285 -196q88 227 367 227q36 0 72.5 -1.5t63.5 -10.5v-200q-15 3 -35 5.5t-41 2.5q-96 0 -160 -44t-64 -164v-216z" />
    <glyph glyph-name="uni011C.1" horiz-adv-x="2112" 
d="M1080 -28q-272 0 -477.5 128t-320 364t-114.5 560t117 560t321 364t466 128q216 0 395 -84.5t299 -235t158 -348.5h-256q-61 203 -218 319.5t-378 116.5q-182 0 -333 -94t-241 -277t-90 -449t89 -449t241 -277t342 -94q178 0 314.5 77t216 212t85.5 311h-560v220h800
v-1024h-208l-30 250h-10q-117 -134 -261 -206t-347 -72zM856 2232l208 280l208 -280h224v16l-324 416h-216l-324 -416v-16h224z" />
    <glyph glyph-name="uni011E.1" horiz-adv-x="2112" 
d="M1080 -28q-272 0 -477.5 128t-320 364t-114.5 560t117 560t321 364t466 128q216 0 395 -84.5t299 -235t158 -348.5h-256q-61 203 -218 319.5t-378 116.5q-182 0 -333 -94t-241 -277t-90 -449t89 -449t241 -277t342 -94q178 0 314.5 77t216 212t85.5 311h-560v220h800
v-1024h-208l-30 250h-10q-117 -134 -261 -206t-347 -72zM1260 2560h220q0 -162 -112 -265t-304 -103q-189 0 -300.5 103t-111.5 265h220q0 -78 43.5 -137t148.5 -59t150.5 59t45.5 137z" />
    <glyph glyph-name="uni0120.1" horiz-adv-x="2112" 
d="M1080 -28q-272 0 -477.5 128t-320 364t-114.5 560t117 560t321 364t466 128q216 0 395 -84.5t299 -235t158 -348.5h-256q-61 203 -218 319.5t-378 116.5q-182 0 -333 -94t-241 -277t-90 -449t89 -449t241 -277t342 -94q178 0 314.5 77t216 212t85.5 311h-560v220h800
v-1024h-208l-30 250h-10q-117 -134 -261 -206t-347 -72zM1064 2304q-69 0 -118.5 47t-49.5 113t49.5 113t118.5 47t118.5 -47t49.5 -113t-49.5 -113t-118.5 -47z" />
    <glyph glyph-name="uni0122.1" horiz-adv-x="2112" 
d="M1080 -28q-272 0 -477.5 128t-320 364t-114.5 560t117 560t321 364t466 128q216 0 395 -84.5t299 -235t158 -348.5h-256q-61 203 -218 319.5t-378 116.5q-182 0 -333 -94t-241 -277t-90 -449t89 -449t241 -277t342 -94q178 0 314.5 77t216 212t85.5 311h-560v220h800
v-1024h-208l-30 250h-10q-117 -134 -261 -206t-347 -72zM1180 -128v-124q-3 -132 -42.5 -287.5t-117.5 -272.5l-200 40q51 120 87.5 261t36.5 255v128h236z" />
    <glyph glyph-name="uni01E6.1" horiz-adv-x="2112" 
d="M1080 -28q-272 0 -477.5 128t-320 364t-114.5 560t117 560t321 364t466 128q216 0 395 -84.5t299 -235t158 -348.5h-256q-61 203 -218 319.5t-378 116.5q-182 0 -333 -94t-241 -277t-90 -449t89 -449t241 -277t342 -94q178 0 314.5 77t216 212t85.5 311h-560v220h800
v-1024h-208l-30 250h-10q-117 -134 -261 -206t-347 -72zM856 2664l208 -280l208 280h224v-16l-324 -416h-216l-324 416v16h224z" />
    <glyph glyph-name="uni01F4.1" horiz-adv-x="2112" 
d="M1080 -28q-272 0 -477.5 128t-320 364t-114.5 560t117 560t321 364t466 128q216 0 395 -84.5t299 -235t158 -348.5h-256q-61 203 -218 319.5t-378 116.5q-182 0 -333 -94t-241 -277t-90 -449t89 -449t241 -277t342 -94q178 0 314.5 77t216 212t85.5 311h-560v220h800
v-1024h-208l-30 250h-10q-117 -134 -261 -206t-347 -72zM956 2256l244 464h276l-312 -464h-208z" />
    <glyph glyph-name="uni1E20.1" horiz-adv-x="2112" 
d="M1080 -28q-272 0 -477.5 128t-320 364t-114.5 560t117 560t321 364t466 128q216 0 395 -84.5t299 -235t158 -348.5h-256q-61 203 -218 319.5t-378 116.5q-182 0 -333 -94t-241 -277t-90 -449t89 -449t241 -277t342 -94q178 0 314.5 77t216 212t85.5 311h-560v220h800
v-1024h-208l-30 250h-10q-117 -134 -261 -206t-347 -72zM1532 2560v-200h-936v200h936z" />
    <glyph glyph-name="uni0048" unicode="H" horiz-adv-x="2084" 
d="M248 0v2048h248v-912h1092v912h248v-2048h-248v916h-1092v-916h-248z" />
    <glyph glyph-name="uni1E28" unicode="&#x1e28;" horiz-adv-x="2084" 
d="M248 0v2048h248v-912h1092v912h248v-2048h-248v916h-1092v-916h-248zM300 4h196l-16 -80q78 -12 143 -65.5t65 -170.5q0 -129 -106.5 -210.5t-313.5 -81.5l-8 156q93 0 154.5 29.5t61.5 98.5t-51 94t-165 34z" />
    <glyph glyph-name="uni0124" unicode="&#x124;" horiz-adv-x="2084" 
d="M248 0v2048h248v-912h1092v912h248v-2048h-248v916h-1092v-916h-248zM844 2236l208 280l208 -280h224v16l-324 416h-216l-324 -416v-16h224z" />
    <glyph glyph-name="uni021E" unicode="&#x21e;" horiz-adv-x="2084" 
d="M248 0v2048h248v-912h1092v912h248v-2048h-248v916h-1092v-916h-248zM844 2668l208 -280l208 280h224v-16l-324 -416h-216l-324 416v16h224z" />
    <glyph glyph-name="uni1E22" unicode="&#x1e22;" horiz-adv-x="2084" 
d="M248 0v2048h248v-912h1092v912h248v-2048h-248v916h-1092v-916h-248zM1052 2308q-69 0 -118.5 47t-49.5 113t49.5 113t118.5 47t118.5 -47t49.5 -113t-49.5 -113t-118.5 -47z" />
    <glyph glyph-name="uni1E24" unicode="&#x1e24;" horiz-adv-x="2084" 
d="M248 0v2048h248v-912h1092v912h248v-2048h-248v916h-1092v-916h-248zM1040 -508q-69 0 -118.5 47t-49.5 113t49.5 113t118.5 47t118.5 -47t49.5 -113t-49.5 -113t-118.5 -47z" />
    <glyph glyph-name="uni1E26" unicode="&#x1e26;" horiz-adv-x="2084" 
d="M248 0v2048h248v-912h1092v912h248v-2048h-248v916h-1092v-916h-248zM764 2308q-63 0 -111.5 48.5t-48.5 111.5q0 69 48.5 114.5t111.5 45.5q69 0 114.5 -45.5t45.5 -114.5q0 -63 -45.5 -111.5t-114.5 -48.5zM1340 2308q-63 0 -111.5 48.5t-48.5 111.5q0 69 48.5 114.5
t111.5 45.5q69 0 114.5 -45.5t45.5 -114.5q0 -63 -45.5 -111.5t-114.5 -48.5z" />
    <glyph glyph-name="uni1E2A" unicode="&#x1e2a;" horiz-adv-x="2084" 
d="M248 0v2048h248v-912h1092v912h248v-2048h-248v916h-1092v-916h-248zM1232 -132h220q0 -165 -111.5 -268.5t-300.5 -103.5q-192 0 -304 106.5t-112 265.5h220q0 -81 45 -140.5t147 -59.5q105 0 150.5 61t45.5 139z" />
    <glyph glyph-name="uni0126" unicode="&#x126;" horiz-adv-x="2188" 
d="M2052 1616v-208h-164v-1408h-248v916h-1092v-916h-248v1408h-164v208h164v432h248v-432h1092v432h248v-432h164zM1640 1408h-1092v-272h1092v272z" />
    <glyph glyph-name="uni04C7" unicode="&#x4c7;" horiz-adv-x="2084" 
d="M248 0v2048h248v-912h1092v912h248v-2212q0 -198 -120 -305t-288 -107q-36 0 -72.5 1.5t-63.5 10.5v204q15 -3 35 -5.5t41 -2.5q96 0 158 44t62 164v1076h-1092v-916h-248z" />
    <glyph glyph-name="uni04A2" unicode="&#x4a2;" horiz-adv-x="2176" 
d="M248 0v2048h248v-912h1092v912h248v-2048h-248v916h-1092v-916h-248zM2048 220v-716h-236v716h236z" />
    <glyph glyph-name="uni04C9" unicode="&#x4c9;" horiz-adv-x="2220" 
d="M248 0v2048h248v-912h1092v912h248v-2048h-248v916h-1092v-916h-248zM2092 156v-188q-3 -132 -50.5 -255.5t-125.5 -240.5l-200 40q51 120 85.5 229t34.5 223v192h256z" />
    <glyph glyph-name="uni04A4" unicode="&#x4a4;" horiz-adv-x="2776" 
d="M2640 2048v-220h-804v-1828h-248v916h-1092v-916h-248v2048h248v-912h1092v912h1052z" />
    <glyph glyph-name="uni01F6" unicode="&#x1f6;" horiz-adv-x="3136" 
d="M2260 -28q-300 0 -486 171.5t-186 504.5v268h-1092v-916h-248v2048h248v-912h1092v912h248v-1400q0 -231 111.5 -339.5t312.5 -108.5t306.5 108.5t105.5 339.5v888h248v-888q0 -226 -84 -376t-233 -225t-343 -75z" />
    <glyph glyph-name="uni0397" unicode="&#x397;" horiz-adv-x="2084" 
d="M248 0v2048h248v-912h1092v912h248v-2048h-248v916h-1092v-916h-248z" />
    <glyph glyph-name="uni0389" unicode="&#x389;" horiz-adv-x="2428" 
d="M592 0v2048h248v-912h1092v912h248v-2048h-248v916h-1092v-916h-248zM200 1708l68 468h256l-160 -468h-164z" />
    <glyph glyph-name="uni1F28" unicode="&#x1f28;" horiz-adv-x="2524" 
d="M688 0v2048h248v-912h1092v912h248v-2048h-248v916h-1092v-916h-248zM560 2048v-112q0 -249 -252 -384l-108 84q57 63 84.5 136t27.5 172v104h248z" />
    <glyph glyph-name="uni1F29" unicode="&#x1f29;" horiz-adv-x="2504" 
d="M668 0v2048h248v-912h1092v912h248v-2048h-248v916h-1092v-916h-248zM200 1936v112h248v-104q0 -99 27.5 -172t84.5 -136l-108 -84q-120 66 -186 165t-66 219z" />
    <glyph glyph-name="uni1F2A" unicode="&#x1f2a;" horiz-adv-x="3076" 
d="M1240 0v2048h248v-912h1092v912h248v-2048h-248v916h-1092v-916h-248zM560 2048v-112q0 -120 -66 -219t-186 -165l-108 84q54 63 83 136t29 172v104h248zM1068 1604v-20h-128l-316 436v28h288z" />
    <glyph glyph-name="uni1F2B" unicode="&#x1f2b;" horiz-adv-x="2972" 
d="M1136 0v2048h248v-912h1092v912h248v-2048h-248v916h-1092v-916h-248zM200 1936v112h248v-104q0 -99 27.5 -172t84.5 -136l-108 -84q-120 66 -186 165t-66 219zM984 1604v-20h-128l-316 436v28h292z" />
    <glyph glyph-name="uni1F2C" unicode="&#x1f2c;" horiz-adv-x="2952" 
d="M1116 0v2048h248v-912h1092v912h248v-2048h-248v916h-1092v-916h-248zM560 2048v-112q0 -120 -66 -219t-186 -165l-108 84q54 63 83 136t29 172v104h248zM580 1584v20l156 444h288v-28l-316 -436h-128z" />
    <glyph glyph-name="uni1F2D" unicode="&#x1f2d;" horiz-adv-x="3000" 
d="M1164 0v2048h248v-912h1092v912h248v-2048h-248v916h-1092v-916h-248zM200 1936v112h248v-104q0 -99 29 -172t83 -136l-108 -84q-120 66 -186 165t-66 219zM612 1584v20l152 444h292v-28l-316 -436h-128z" />
    <glyph glyph-name="uni1F2E" unicode="&#x1f2e;" horiz-adv-x="2792" 
d="M956 0v2048h248v-912h1092v912h248v-2048h-248v916h-1092v-916h-248zM844 2372l120 -36q0 -99 -65 -173.5t-167 -74.5q-74 0 -119 25t-85 50t-100 25q-45 0 -76.5 -34.5t-31.5 -85.5l-120 32q0 99 63 177.5t165 78.5q62 0 108.5 -26t92 -52t103.5 -26q45 0 78.5 34.5
t33.5 85.5zM712 2020v-96q0 -78 -42 -167t-126 -149l-120 68q80 109 80 244v100h208z" />
    <glyph glyph-name="uni1F2F" unicode="&#x1f2f;" horiz-adv-x="2804" 
d="M968 0v2048h248v-912h1092v912h248v-2048h-248v916h-1092v-916h-248zM844 2372l120 -36q0 -99 -65 -173.5t-167 -74.5q-74 0 -119 25t-85 50t-100 25q-45 0 -76.5 -34.5t-31.5 -85.5l-120 32q0 99 63 177.5t165 78.5q62 0 108.5 -26t92 -52t103.5 -26q45 0 78.5 34.5
t33.5 85.5zM492 1924v96h208v-100q0 -135 80 -244l-124 -68q-84 60 -124 149t-40 167z" />
    <glyph glyph-name="uni1FCA" unicode="&#x1fca;" horiz-adv-x="2648" 
d="M812 0v2048h248v-912h1092v912h248v-2048h-248v916h-1092v-916h-248zM644 1580h-128l-316 440v28h288l156 -444v-24z" />
    <glyph glyph-name="uni1FCB" unicode="&#x1fcb;" horiz-adv-x="2568" 
d="M732 0v2048h248v-912h1092v912h248v-2048h-248v916h-1092v-916h-248zM200 1604l152 444h292v-28l-316 -440h-128v24z" />
    <glyph glyph-name="uni041D" unicode="&#x41d;" horiz-adv-x="2084" 
d="M248 0v2048h248v-912h1092v912h248v-2048h-248v916h-1092v-916h-248z" />
    <glyph glyph-name="uni1F98" unicode="&#x1f98;" horiz-adv-x="2424" 
d="M588 0v2048h248v-912h1092v912h248v-2048h-248v916h-1092v-916h-248zM1276 -140h208v-324q0 -60 19 -84t49 -24q15 0 33 2t27 2v-140q-15 -6 -40 -11t-64 -5q-102 0 -167 60.5t-65 195.5v328zM460 2048v-112q0 -249 -252 -384l-108 84q57 63 84.5 136t27.5 172v104h248z
" />
    <glyph glyph-name="uni1F99" unicode="&#x1f99;" horiz-adv-x="2504" 
d="M668 0v2048h248v-912h1092v912h248v-2048h-248v916h-1092v-916h-248zM1356 -140h208v-324q0 -60 19 -84t49 -24q15 0 33 2t27 2v-140q-15 -6 -40 -11t-64 -5q-102 0 -167 60.5t-65 195.5v328zM200 1936v112h248v-104q0 -99 27.5 -172t84.5 -136l-108 -84
q-120 66 -186 165t-66 219z" />
    <glyph glyph-name="uni1F9A" unicode="&#x1f9a;" horiz-adv-x="3076" 
d="M1240 0v2048h248v-912h1092v912h248v-2048h-248v916h-1092v-916h-248zM1928 -140h208v-324q0 -60 19 -84t49 -24q15 0 33 2t27 2v-140q-15 -6 -40 -11t-64 -5q-102 0 -167 60.5t-65 195.5v328zM560 2048v-112q0 -120 -66 -219t-186 -165l-108 84q54 63 83 136t29 172v104
h248zM1068 1604v-20h-128l-316 436v28h288z" />
    <glyph glyph-name="uni1F9B" unicode="&#x1f9b;" horiz-adv-x="2972" 
d="M1136 0v2048h248v-912h1092v912h248v-2048h-248v916h-1092v-916h-248zM1824 -140h208v-324q0 -60 19 -84t49 -24q15 0 33 2t27 2v-140q-15 -6 -40 -11t-64 -5q-102 0 -167 60.5t-65 195.5v328zM200 1936v112h248v-104q0 -99 27.5 -172t84.5 -136l-108 -84
q-120 66 -186 165t-66 219zM984 1604v-20h-128l-316 436v28h292z" />
    <glyph glyph-name="uni1F9C" unicode="&#x1f9c;" horiz-adv-x="2952" 
d="M1116 0v2048h248v-912h1092v912h248v-2048h-248v916h-1092v-916h-248zM1804 -140h208v-324q0 -60 19 -84t49 -24q15 0 33 2t27 2v-140q-15 -6 -40 -11t-64 -5q-102 0 -167 60.5t-65 195.5v328zM560 2048v-112q0 -120 -66 -219t-186 -165l-108 84q54 63 83 136t29 172v104
h248zM580 1584v20l156 444h288v-28l-316 -436h-128z" />
    <glyph glyph-name="uni1F9D" unicode="&#x1f9d;" horiz-adv-x="3000" 
d="M1164 0v2048h248v-912h1092v912h248v-2048h-248v916h-1092v-916h-248zM1852 -140h208v-324q0 -60 19 -84t49 -24q15 0 33 2t27 2v-140q-15 -6 -40 -11t-64 -5q-102 0 -167 60.5t-65 195.5v328zM200 1936v112h248v-104q0 -99 29 -172t83 -136l-108 -84q-120 66 -186 165
t-66 219zM612 1584v20l152 444h292v-28l-316 -436h-128z" />
    <glyph glyph-name="uni1F9E" unicode="&#x1f9e;" horiz-adv-x="2792" 
d="M956 0v2048h248v-912h1092v912h248v-2048h-248v916h-1092v-916h-248zM1644 -140h208v-324q0 -60 19 -84t49 -24q15 0 33 2t27 2v-140q-15 -6 -40 -11t-64 -5q-102 0 -167 60.5t-65 195.5v328zM844 2372l120 -36q0 -99 -65 -173.5t-167 -74.5q-74 0 -119 25t-85 50
t-100 25q-45 0 -76.5 -34.5t-31.5 -85.5l-120 32q0 99 63 177.5t165 78.5q62 0 108.5 -26t92 -52t103.5 -26q45 0 78.5 34.5t33.5 85.5zM712 2020v-96q0 -78 -42 -167t-126 -149l-120 68q80 109 80 244v100h208z" />
    <glyph glyph-name="uni1F9F" unicode="&#x1f9f;" horiz-adv-x="2804" 
d="M968 0v2048h248v-912h1092v912h248v-2048h-248v916h-1092v-916h-248zM1656 -140h208v-324q0 -60 19 -84t49 -24q15 0 33 2t27 2v-140q-15 -6 -40 -11t-64 -5q-102 0 -167 60.5t-65 195.5v328zM844 2372l120 -36q0 -99 -65 -173.5t-167 -74.5q-74 0 -119 25t-85 50
t-100 25q-45 0 -76.5 -34.5t-31.5 -85.5l-120 32q0 99 63 177.5t165 78.5q62 0 108.5 -26t92 -52t103.5 -26q45 0 78.5 34.5t33.5 85.5zM492 1924v96h208v-100q0 -135 80 -244l-124 -68q-84 60 -124 149t-40 167z" />
    <glyph glyph-name="uni1FCC" unicode="&#x1fcc;" horiz-adv-x="2084" 
d="M248 0v2048h248v-912h1092v912h248v-2048h-248v916h-1092v-916h-248zM936 -140h208v-324q0 -60 19 -84t49 -24q15 0 33 2t27 2v-140q-15 -6 -40 -11t-64 -5q-102 0 -167 60.5t-65 195.5v328z" />
    <glyph glyph-name="uni0049" unicode="I" horiz-adv-x="744" 
d="M496 2048v-2048h-248v2048h248z" />
    <glyph glyph-name="uni00CF" unicode="&#xcf;" horiz-adv-x="744" 
d="M496 2048v-2048h-248v2048h248zM84 2304q-63 0 -111.5 48.5t-48.5 111.5q0 69 48.5 114.5t111.5 45.5q69 0 114.5 -45.5t45.5 -114.5q0 -63 -45.5 -111.5t-114.5 -48.5zM660 2304q-63 0 -111.5 48.5t-48.5 111.5q0 69 48.5 114.5t111.5 45.5q69 0 114.5 -45.5
t45.5 -114.5q0 -63 -45.5 -111.5t-114.5 -48.5z" />
    <glyph glyph-name="uni1E2E" unicode="&#x1e2e;" horiz-adv-x="744" 
d="M496 2048v-2048h-248v2048h248zM84 2208q-63 0 -111.5 48.5t-48.5 111.5q0 69 48.5 114.5t111.5 45.5q69 0 114.5 -45.5t45.5 -114.5q0 -63 -45.5 -111.5t-114.5 -48.5zM660 2208q-63 0 -111.5 48.5t-48.5 111.5q0 69 48.5 114.5t111.5 45.5q69 0 114.5 -45.5
t45.5 -114.5q0 -63 -45.5 -111.5t-114.5 -48.5zM268 2672l292 304h276l-360 -304h-208z" />
    <glyph glyph-name="uni0197" unicode="&#x197;" horiz-adv-x="744" 
d="M496 2048v-2048h-248v2048h248zM-68 964v184h880v-184h-880z" />
    <glyph glyph-name="uni1E2C" unicode="&#x1e2c;" horiz-adv-x="744" 
d="M496 2048v-2048h-248v2048h248zM144 -508l-184 8q0 153 87.5 250.5t216.5 97.5q76 0 130.5 -32t108 -64t125.5 -32q57 0 96.5 44.5t39.5 107.5l180 -16q0 -156 -87.5 -248t-216.5 -92q-69 0 -114 19.5t-80 44.5t-74 44.5t-96 19.5t-94.5 -44.5t-37.5 -107.5z" />
    <glyph glyph-name="uni00CC" unicode="&#xcc;" horiz-adv-x="744" 
d="M496 2048v-2048h-248v2048h248zM480 2256h-208l-312 464h276z" />
    <glyph glyph-name="uni00CD" unicode="&#xcd;" horiz-adv-x="744" 
d="M496 2048v-2048h-248v2048h248zM264 2256l244 464h276l-312 -464h-208z" />
    <glyph glyph-name="uni00CE" unicode="&#xce;" horiz-adv-x="744" 
d="M496 2048v-2048h-248v2048h248zM164 2232l208 280l208 -280h224v16l-324 416h-216l-324 -416v-16h224z" />
    <glyph glyph-name="uni0128" unicode="&#x128;" horiz-adv-x="1248" 
d="M748 2048v-2048h-248v2048h248zM316 2232l-184 8q0 153 87.5 250.5t216.5 97.5q76 0 130.5 -32t108 -64t125.5 -32q57 0 96.5 44.5t39.5 107.5l180 -16q0 -156 -87.5 -248t-216.5 -92q-69 0 -114 19.5t-80 44.5t-74 44.5t-96 19.5t-94.5 -44.5t-37.5 -107.5z" />
    <glyph glyph-name="uni012A" unicode="&#x12a;" horiz-adv-x="744" 
d="M496 2048v-2048h-248v2048h248zM840 2560v-200h-936v200h936z" />
    <glyph glyph-name="uni012C" unicode="&#x12c;" horiz-adv-x="744" 
d="M496 2048v-2048h-248v2048h248zM568 2560h220q0 -162 -112 -265t-304 -103q-189 0 -300.5 103t-111.5 265h220q0 -78 43.5 -137t148.5 -59t150.5 59t45.5 137z" />
    <glyph glyph-name="uni012E" unicode="&#x12e;" horiz-adv-x="744" 
d="M496 2048v-2048h-248v2048h248zM308 -600q-123 0 -203.5 67.5t-80.5 196.5q0 111 83 220.5t281 199.5l108 -84q-90 -66 -161 -140t-71 -164q0 -45 22 -70.5t82 -25.5q45 0 80 12t56 24l16 -176q-33 -21 -86.5 -40.5t-125.5 -19.5z" />
    <glyph glyph-name="uni0130" unicode="&#x130;" horiz-adv-x="744" 
d="M496 2048v-2048h-248v2048h248zM372 2304q-69 0 -118.5 47t-49.5 113t49.5 113t118.5 47t118.5 -47t49.5 -113t-49.5 -113t-118.5 -47z" />
    <glyph glyph-name="uni01CF" unicode="&#x1cf;" horiz-adv-x="744" 
d="M496 2048v-2048h-248v2048h248zM164 2664l208 -280l208 280h224v-16l-324 -416h-216l-324 416v16h224z" />
    <glyph glyph-name="uni0208" unicode="&#x208;" horiz-adv-x="744" 
d="M496 2048v-2048h-248v2048h248zM332 2248h-248l-420 364h332zM696 2248h-220l-336 364h304z" />
    <glyph glyph-name="uni020A" unicode="&#x20a;" horiz-adv-x="744" 
d="M496 2048v-2048h-248v2048h248zM-40 2288q0 162 112 267t304 105t302 -105t110 -267h-220q0 81 -45 140.5t-147 59.5q-108 0 -152 -61t-44 -139h-220z" />
    <glyph glyph-name="uni1EC8" unicode="&#x1ec8;" horiz-adv-x="744" 
d="M496 2048v-2048h-248v2048h248zM476 2256h-196v216q105 6 148.5 29t43.5 71q0 54 -63 79t-153 25l8 152q207 0 313.5 -72t106.5 -192q0 -102 -65 -149t-143 -59v-100z" />
    <glyph glyph-name="uni1ECA" unicode="&#x1eca;" horiz-adv-x="744" 
d="M496 2048v-2048h-248v2048h248zM372 -508q-69 0 -118.5 47t-49.5 113t49.5 113t118.5 47t118.5 -47t49.5 -113t-49.5 -113t-118.5 -47z" />
    <glyph glyph-name="uni0399" unicode="&#x399;" horiz-adv-x="744" 
d="M496 2048v-2048h-248v2048h248z" />
    <glyph glyph-name="uni038A" unicode="&#x38a;" horiz-adv-x="856" 
d="M608 2048v-2048h-248v2048h248zM16 1708l68 468h256l-160 -468h-164z" />
    <glyph glyph-name="uni03AA" unicode="&#x3aa;" horiz-adv-x="744" 
d="M496 2048v-2048h-248v2048h248zM84 2304q-63 0 -111.5 48.5t-48.5 111.5q0 69 48.5 114.5t111.5 45.5q69 0 114.5 -45.5t45.5 -114.5q0 -63 -45.5 -111.5t-114.5 -48.5zM660 2304q-63 0 -111.5 48.5t-48.5 111.5q0 69 48.5 114.5t111.5 45.5q69 0 114.5 -45.5
t45.5 -114.5q0 -63 -45.5 -111.5t-114.5 -48.5z" />
    <glyph glyph-name="uni1F38" unicode="&#x1f38;" horiz-adv-x="1136" 
d="M888 2048v-2048h-248v2048h248zM560 2048v-112q0 -249 -252 -384l-108 84q57 63 84.5 136t27.5 172v104h248z" />
    <glyph glyph-name="uni1F39" unicode="&#x1f39;" horiz-adv-x="1116" 
d="M868 2048v-2048h-248v2048h248zM200 1936v112h248v-104q0 -99 27.5 -172t84.5 -136l-108 -84q-120 66 -186 165t-66 219z" />
    <glyph glyph-name="uni1F3A" unicode="&#x1f3a;" horiz-adv-x="1688" 
d="M1440 2048v-2048h-248v2048h248zM560 2048v-112q0 -120 -66 -219t-186 -165l-108 84q54 63 83 136t29 172v104h248zM1068 1604v-20h-128l-316 436v28h288z" />
    <glyph glyph-name="uni1F3B" unicode="&#x1f3b;" horiz-adv-x="1584" 
d="M1336 2048v-2048h-248v2048h248zM200 1936v112h248v-104q0 -99 27.5 -172t84.5 -136l-108 -84q-120 66 -186 165t-66 219zM984 1604v-20h-128l-316 436v28h292z" />
    <glyph glyph-name="uni1F3C" unicode="&#x1f3c;" horiz-adv-x="1564" 
d="M1316 2048v-2048h-248v2048h248zM560 2048v-112q0 -120 -66 -219t-186 -165l-108 84q54 63 83 136t29 172v104h248zM580 1584v20l156 444h288v-28l-316 -436h-128z" />
    <glyph glyph-name="uni1F3D" unicode="&#x1f3d;" horiz-adv-x="1612" 
d="M1364 2048v-2048h-248v2048h248zM200 1936v112h248v-104q0 -99 29 -172t83 -136l-108 -84q-120 66 -186 165t-66 219zM612 1584v20l152 444h292v-28l-316 -436h-128z" />
    <glyph glyph-name="uni1F3E" unicode="&#x1f3e;" horiz-adv-x="1404" 
d="M1156 2048v-2048h-248v2048h248zM844 2372l120 -36q0 -99 -65 -173.5t-167 -74.5q-74 0 -119 25t-85 50t-100 25q-45 0 -76.5 -34.5t-31.5 -85.5l-120 32q0 99 63 177.5t165 78.5q62 0 108.5 -26t92 -52t103.5 -26q45 0 78.5 34.5t33.5 85.5zM712 2020v-96
q0 -78 -42 -167t-126 -149l-120 68q80 109 80 244v100h208z" />
    <glyph glyph-name="uni1F3F" unicode="&#x1f3f;" horiz-adv-x="1416" 
d="M1168 2048v-2048h-248v2048h248zM844 2372l120 -36q0 -99 -65 -173.5t-167 -74.5q-74 0 -119 25t-85 50t-100 25q-45 0 -76.5 -34.5t-31.5 -85.5l-120 32q0 99 63 177.5t165 78.5q62 0 108.5 -26t92 -52t103.5 -26q45 0 78.5 34.5t33.5 85.5zM492 1924v96h208v-100
q0 -135 80 -244l-124 -68q-84 60 -124 149t-40 167z" />
    <glyph glyph-name="uni1FD8" unicode="&#x1fd8;" horiz-adv-x="744" 
d="M496 2048v-2048h-248v2048h248zM568 2560h220q0 -162 -112 -265t-304 -103q-189 0 -300.5 103t-111.5 265h220q0 -78 43.5 -137t148.5 -59t150.5 59t45.5 137z" />
    <glyph glyph-name="uni1FD9" unicode="&#x1fd9;" horiz-adv-x="744" 
d="M496 2048v-2048h-248v2048h248zM840 2560v-200h-936v200h936z" />
    <glyph glyph-name="uni1FDA" unicode="&#x1fda;" horiz-adv-x="1260" 
d="M1012 2048v-2048h-248v2048h248zM644 1580h-128l-316 440v28h288l156 -444v-24z" />
    <glyph glyph-name="uni1FDB" unicode="&#x1fdb;" horiz-adv-x="1180" 
d="M932 2048v-2048h-248v2048h248zM200 1604l152 444h292v-28l-316 -440h-128v24z" />
    <glyph glyph-name="uni0406" unicode="&#x406;" horiz-adv-x="744" 
d="M496 2048v-2048h-248v2048h248z" />
    <glyph glyph-name="uni0407" unicode="&#x407;" horiz-adv-x="744" 
d="M496 2048v-2048h-248v2048h248zM84 2304q-63 0 -111.5 48.5t-48.5 111.5q0 69 48.5 114.5t111.5 45.5q69 0 114.5 -45.5t45.5 -114.5q0 -63 -45.5 -111.5t-114.5 -48.5zM660 2304q-63 0 -111.5 48.5t-48.5 111.5q0 69 48.5 114.5t111.5 45.5q69 0 114.5 -45.5
t45.5 -114.5q0 -63 -45.5 -111.5t-114.5 -48.5z" />
    <glyph glyph-name="uni0049.1" horiz-adv-x="1248" 
d="M136 1828v220h976v-220h-364v-1608h364v-220h-976v220h364v1608h-364z" />
    <glyph glyph-name="uni00CF.1" horiz-adv-x="1248" 
d="M136 1828v220h976v-220h-364v-1608h364v-220h-976v220h364v1608h-364zM336 2304q-63 0 -111.5 48.5t-48.5 111.5q0 69 48.5 114.5t111.5 45.5q69 0 114.5 -45.5t45.5 -114.5q0 -63 -45.5 -111.5t-114.5 -48.5zM912 2304q-63 0 -111.5 48.5t-48.5 111.5q0 69 48.5 114.5
t111.5 45.5q69 0 114.5 -45.5t45.5 -114.5q0 -63 -45.5 -111.5t-114.5 -48.5z" />
    <glyph glyph-name="uni1E2E.1" horiz-adv-x="1248" 
d="M136 1828v220h976v-220h-364v-1608h364v-220h-976v220h364v1608h-364zM336 2208q-63 0 -111.5 48.5t-48.5 111.5q0 69 48.5 114.5t111.5 45.5q69 0 114.5 -45.5t45.5 -114.5q0 -63 -45.5 -111.5t-114.5 -48.5zM912 2208q-63 0 -111.5 48.5t-48.5 111.5q0 69 48.5 114.5
t111.5 45.5q69 0 114.5 -45.5t45.5 -114.5q0 -63 -45.5 -111.5t-114.5 -48.5zM520 2672l292 304h276l-360 -304h-208z" />
    <glyph glyph-name="uni0197.1" horiz-adv-x="1248" 
d="M136 1828v220h976v-220h-364v-1608h364v-220h-976v220h364v1608h-364zM184 964v184h880v-184h-880z" />
    <glyph glyph-name="uni1E2C.1" horiz-adv-x="1248" 
d="M136 1828v220h976v-220h-364v-1608h364v-220h-976v220h364v1608h-364zM396 -508l-184 8q0 153 87.5 250.5t216.5 97.5q76 0 130.5 -32t108 -64t125.5 -32q57 0 96.5 44.5t39.5 107.5l180 -16q0 -156 -87.5 -248t-216.5 -92q-69 0 -114 19.5t-80 44.5t-74 44.5t-96 19.5
t-94.5 -44.5t-37.5 -107.5z" />
    <glyph glyph-name="uni00CC.1" horiz-adv-x="1248" 
d="M136 1828v220h976v-220h-364v-1608h364v-220h-976v220h364v1608h-364zM732 2256h-208l-312 464h276z" />
    <glyph glyph-name="uni00CD.1" horiz-adv-x="1248" 
d="M136 1828v220h976v-220h-364v-1608h364v-220h-976v220h364v1608h-364zM516 2256l244 464h276l-312 -464h-208z" />
    <glyph glyph-name="uni00CE.1" horiz-adv-x="1248" 
d="M136 1828v220h976v-220h-364v-1608h364v-220h-976v220h364v1608h-364zM416 2232l208 280l208 -280h224v16l-324 416h-216l-324 -416v-16h224z" />
    <glyph glyph-name="uni0128.1" horiz-adv-x="1248" 
d="M136 1828v220h976v-220h-364v-1608h364v-220h-976v220h364v1608h-364zM316 2232l-184 8q0 153 87.5 250.5t216.5 97.5q76 0 130.5 -32t108 -64t125.5 -32q57 0 96.5 44.5t39.5 107.5l180 -16q0 -156 -87.5 -248t-216.5 -92q-69 0 -114 19.5t-80 44.5t-74 44.5t-96 19.5
t-94.5 -44.5t-37.5 -107.5z" />
    <glyph glyph-name="uni012A.1" horiz-adv-x="1248" 
d="M136 1828v220h976v-220h-364v-1608h364v-220h-976v220h364v1608h-364zM1092 2560v-200h-936v200h936z" />
    <glyph glyph-name="uni012C.1" horiz-adv-x="1248" 
d="M136 1828v220h976v-220h-364v-1608h364v-220h-976v220h364v1608h-364zM820 2560h220q0 -162 -112 -265t-304 -103q-189 0 -300.5 103t-111.5 265h220q0 -78 43.5 -137t148.5 -59t150.5 59t45.5 137z" />
    <glyph glyph-name="uni012E.1" horiz-adv-x="1248" 
d="M136 1828v220h976v-220h-364v-1608h364v-220h-976v220h364v1608h-364zM924 -600q-123 0 -203.5 67.5t-80.5 196.5q0 111 83 220.5t281 199.5l108 -84q-90 -66 -161 -140t-71 -164q0 -45 22 -70.5t82 -25.5q45 0 80 12t56 24l16 -176q-33 -21 -86.5 -40.5t-125.5 -19.5z
" />
    <glyph glyph-name="uni0130.1" horiz-adv-x="1248" 
d="M136 1828v220h976v-220h-364v-1608h364v-220h-976v220h364v1608h-364zM624 2304q-69 0 -118.5 47t-49.5 113t49.5 113t118.5 47t118.5 -47t49.5 -113t-49.5 -113t-118.5 -47z" />
    <glyph glyph-name="uni01CF.1" horiz-adv-x="1248" 
d="M136 1828v220h976v-220h-364v-1608h364v-220h-976v220h364v1608h-364zM416 2664l208 -280l208 280h224v-16l-324 -416h-216l-324 416v16h224z" />
    <glyph glyph-name="uni0208.1" horiz-adv-x="1248" 
d="M136 1828v220h976v-220h-364v-1608h364v-220h-976v220h364v1608h-364zM584 2248h-248l-420 364h332zM948 2248h-220l-336 364h304z" />
    <glyph glyph-name="uni020A.1" horiz-adv-x="1248" 
d="M136 1828v220h976v-220h-364v-1608h364v-220h-976v220h364v1608h-364zM212 2288q0 162 112 267t304 105t302 -105t110 -267h-220q0 81 -45 140.5t-147 59.5q-108 0 -152 -61t-44 -139h-220z" />
    <glyph glyph-name="uni1EC8.1" horiz-adv-x="1248" 
d="M136 1828v220h976v-220h-364v-1608h364v-220h-976v220h364v1608h-364zM728 2256h-196v216q105 6 148.5 29t43.5 71q0 54 -63 79t-153 25l8 152q207 0 313.5 -72t106.5 -192q0 -102 -65 -149t-143 -59v-100z" />
    <glyph glyph-name="uni1ECA.1" horiz-adv-x="1248" 
d="M136 1828v220h976v-220h-364v-1608h364v-220h-976v220h364v1608h-364zM624 -508q-69 0 -118.5 47t-49.5 113t49.5 113t118.5 47t118.5 -47t49.5 -113t-49.5 -113t-118.5 -47z" />
    <glyph glyph-name="uni1F38.1" horiz-adv-x="1688" 
d="M576 1828v220h976v-220h-364v-1608h364v-220h-976v220h364v1608h-364zM496 2048v-112q0 -249 -252 -384l-108 84q57 63 84.5 136t27.5 172v104h248z" />
    <glyph glyph-name="uni1F39.1" horiz-adv-x="1668" 
d="M556 1828v220h976v-220h-364v-1608h364v-220h-976v220h364v1608h-364zM136 1936v112h248v-104q0 -99 27.5 -172t84.5 -136l-108 -84q-120 66 -186 165t-66 219z" />
    <glyph glyph-name="uni1F3A.1" horiz-adv-x="2240" 
d="M1128 1828v220h976v-220h-364v-1608h364v-220h-976v220h364v1608h-364zM496 2048v-112q0 -120 -66 -219t-186 -165l-108 84q54 63 83 136t29 172v104h248zM1004 1604v-20h-128l-316 436v28h288z" />
    <glyph glyph-name="uni1F3B.1" horiz-adv-x="2136" 
d="M1024 1828v220h976v-220h-364v-1608h364v-220h-976v220h364v1608h-364zM136 1936v112h248v-104q0 -99 27.5 -172t84.5 -136l-108 -84q-120 66 -186 165t-66 219zM920 1604v-20h-128l-316 436v28h292z" />
    <glyph glyph-name="uni1F3C.1" horiz-adv-x="2116" 
d="M1004 1828v220h976v-220h-364v-1608h364v-220h-976v220h364v1608h-364zM496 2048v-112q0 -120 -66 -219t-186 -165l-108 84q54 63 83 136t29 172v104h248zM516 1584v20l156 444h288v-28l-316 -436h-128z" />
    <glyph glyph-name="uni1F3D.1" horiz-adv-x="2164" 
d="M1052 1828v220h976v-220h-364v-1608h364v-220h-976v220h364v1608h-364zM136 1936v112h248v-104q0 -99 29 -172t83 -136l-108 -84q-120 66 -186 165t-66 219zM548 1584v20l152 444h292v-28l-316 -436h-128z" />
    <glyph glyph-name="uni1F3E.1" horiz-adv-x="1956" 
d="M844 1828v220h976v-220h-364v-1608h364v-220h-976v220h364v1608h-364zM780 2372l120 -36q0 -99 -65 -173.5t-167 -74.5q-74 0 -119 25t-85 50t-100 25q-45 0 -76.5 -34.5t-31.5 -85.5l-120 32q0 99 63 177.5t165 78.5q62 0 108.5 -26t92 -52t103.5 -26q45 0 78.5 34.5
t33.5 85.5zM648 2020v-96q0 -78 -42 -167t-126 -149l-120 68q80 109 80 244v100h208z" />
    <glyph glyph-name="uni1F3F.1" horiz-adv-x="1968" 
d="M856 1828v220h976v-220h-364v-1608h364v-220h-976v220h364v1608h-364zM780 2372l120 -36q0 -99 -65 -173.5t-167 -74.5q-74 0 -119 25t-85 50t-100 25q-45 0 -76.5 -34.5t-31.5 -85.5l-120 32q0 99 63 177.5t165 78.5q62 0 108.5 -26t92 -52t103.5 -26q45 0 78.5 34.5
t33.5 85.5zM428 1924v96h208v-100q0 -135 80 -244l-124 -68q-84 60 -124 149t-40 167z" />
    <glyph glyph-name="uni1FD8.1" horiz-adv-x="1248" 
d="M136 1828v220h976v-220h-364v-1608h364v-220h-976v220h364v1608h-364zM820 2560h220q0 -162 -112 -265t-304 -103q-189 0 -300.5 103t-111.5 265h220q0 -78 43.5 -137t148.5 -59t150.5 59t45.5 137z" />
    <glyph glyph-name="uni1FD9.1" horiz-adv-x="1248" 
d="M136 1828v220h976v-220h-364v-1608h364v-220h-976v220h364v1608h-364zM1092 2560v-200h-936v200h936z" />
    <glyph glyph-name="uni1FDA.1" horiz-adv-x="1812" 
d="M700 1828v220h976v-220h-364v-1608h364v-220h-976v220h364v1608h-364zM580 1580h-128l-316 440v28h288l156 -444v-24z" />
    <glyph glyph-name="uni1FDB.1" horiz-adv-x="1732" 
d="M620 1828v220h976v-220h-364v-1608h364v-220h-976v220h364v1608h-364zM136 1604l152 444h292v-28l-316 -440h-128v24z" />
    <glyph glyph-name="uni0406.1" horiz-adv-x="1248" 
d="M136 1828v220h976v-220h-364v-1608h364v-220h-976v220h364v1608h-364z" />
    <glyph glyph-name="uni0407.1" horiz-adv-x="1248" 
d="M136 1828v220h976v-220h-364v-1608h364v-220h-976v220h364v1608h-364zM336 2304q-63 0 -111.5 48.5t-48.5 111.5q0 69 48.5 114.5t111.5 45.5q69 0 114.5 -45.5t45.5 -114.5q0 -63 -45.5 -111.5t-114.5 -48.5zM912 2304q-63 0 -111.5 48.5t-48.5 111.5q0 69 48.5 114.5
t111.5 45.5q69 0 114.5 -45.5t45.5 -114.5q0 -63 -45.5 -111.5t-114.5 -48.5z" />
    <glyph glyph-name="uni004A" unicode="J" horiz-adv-x="1528" 
d="M1032 2048h248v-1464q0 -295 -158.5 -453.5t-425.5 -158.5q-168 0 -299 61.5t-206 175.5t-75 271h244q0 -130 95 -209t241 -79q161 0 248.5 100.5t87.5 291.5v1464z" />
    <glyph glyph-name="uni0134" unicode="&#x134;" horiz-adv-x="1528" 
d="M1032 2048h248v-1464q0 -295 -158.5 -453.5t-425.5 -158.5q-168 0 -299 61.5t-206 175.5t-75 271h244q0 -130 95 -209t241 -79q161 0 248.5 100.5t87.5 291.5v1464zM948 2232l208 280l208 -280h224v16l-324 416h-216l-324 -416v-16h224z" />
    <glyph glyph-name="uni0248" unicode="&#x248;" horiz-adv-x="1528" 
d="M1032 2048h248v-1464q0 -295 -158.5 -453.5t-425.5 -158.5q-168 0 -299 61.5t-206 175.5t-75 271h244q0 -130 95 -209t241 -79q161 0 248.5 100.5t87.5 291.5v1464zM716 1124v184h880v-184h-880z" />
    <glyph glyph-name="uni037F" unicode="&#x37f;" horiz-adv-x="1528" 
d="M1032 2048h248v-1464q0 -295 -158.5 -453.5t-425.5 -158.5q-168 0 -299 61.5t-206 175.5t-75 271h244q0 -130 95 -209t241 -79q161 0 248.5 100.5t87.5 291.5v1464z" />
    <glyph glyph-name="uni0408" unicode="&#x408;" horiz-adv-x="1528" 
d="M1032 2048h248v-1464q0 -295 -158.5 -453.5t-425.5 -158.5q-168 0 -299 61.5t-206 175.5t-75 271h244q0 -130 95 -209t241 -79q161 0 248.5 100.5t87.5 291.5v1464z" />
    <glyph glyph-name="uni004B" unicode="K" horiz-adv-x="1836" 
d="M248 0v2048h248v-1016h24l920 1016h324l-860 -924l860 -1124h-300l-712 952l-256 -288v-664h-248z" />
    <glyph glyph-name="uni0136" unicode="&#x136;" horiz-adv-x="1836" 
d="M248 0v2048h248v-1016h24l920 1016h324l-860 -924l860 -1124h-300l-712 952l-256 -288v-664h-248zM1040 -128v-124q-3 -132 -42.5 -287.5t-117.5 -272.5l-200 40q51 120 87.5 261t36.5 255v128h236z" />
    <glyph glyph-name="uni01E8" unicode="&#x1e8;" horiz-adv-x="1836" 
d="M248 0v2048h248v-1016h24l920 1016h324l-860 -924l860 -1124h-300l-712 952l-256 -288v-664h-248zM720 2664l208 -280l208 280h224v-16l-324 -416h-216l-324 416v16h224z" />
    <glyph glyph-name="uni1E30" unicode="&#x1e30;" horiz-adv-x="1836" 
d="M248 0v2048h248v-1016h24l920 1016h324l-860 -924l860 -1124h-300l-712 952l-256 -288v-664h-248zM820 2256l244 464h276l-312 -464h-208z" />
    <glyph glyph-name="uni1E32" unicode="&#x1e32;" horiz-adv-x="1836" 
d="M248 0v2048h248v-1016h24l920 1016h324l-860 -924l860 -1124h-300l-712 952l-256 -288v-664h-248zM920 -508q-69 0 -118.5 47t-49.5 113t49.5 113t118.5 47t118.5 -47t49.5 -113t-49.5 -113t-118.5 -47z" />
    <glyph glyph-name="uni1E34" unicode="&#x1e34;" horiz-adv-x="1836" 
d="M248 0v2048h248v-1016h24l920 1016h324l-860 -924l860 -1124h-300l-712 952l-256 -288v-664h-248zM1388 -252v-200h-936v200h936z" />
    <glyph glyph-name="uni04A0" unicode="&#x4a0;" horiz-adv-x="2100" 
d="M1732 0l-704 940h-252v-940h-248v1828h-504v220h752v-888h108l820 888h296l-828 -900l856 -1148h-296z" />
    <glyph glyph-name="uni049A" unicode="&#x49a;" horiz-adv-x="2008" 
d="M1452 0l-704 940h-252v-940h-248v2048h248v-888h108l820 888h296l-828 -900l856 -1148h-296zM1808 220v-716h-236v716h236z" />
    <glyph glyph-name="uni0198" unicode="&#x198;" horiz-adv-x="1892" 
d="M248 0v2048h248v-1016h24l812 896q120 132 266.5 143.5t269.5 -75.5l-100 -184q-66 42 -134.5 32.5t-145.5 -92.5l-584 -628l860 -1124h-300l-712 952l-256 -288v-664h-248z" />
    <glyph glyph-name="uni039A" unicode="&#x39a;" horiz-adv-x="1836" 
d="M248 0v2048h248v-1016h24l920 1016h324l-860 -924l860 -1124h-300l-712 952l-256 -288v-664h-248z" />
    <glyph glyph-name="uni004C" unicode="L" horiz-adv-x="1584" 
d="M248 0v2048h248v-1828h952v-220h-1200z" />
    <glyph glyph-name="uni0139" unicode="&#x139;" horiz-adv-x="1584" 
d="M248 0v2048h248v-1828h952v-220h-1200zM264 2256l244 464h276l-312 -464h-208z" />
    <glyph glyph-name="uni013B" unicode="&#x13b;" horiz-adv-x="1584" 
d="M248 0v2048h248v-1828h952v-220h-1200zM968 -128v-124q-3 -132 -42.5 -287.5t-117.5 -272.5l-200 40q51 120 87.5 261t36.5 255v128h236z" />
    <glyph glyph-name="uni013D" unicode="&#x13d;" horiz-adv-x="1584" 
d="M248 0v2048h248v-1828h952v-220h-1200zM1084 2048v-124q-3 -132 -42.5 -287.5t-117.5 -272.5l-200 40q51 120 87.5 261t36.5 255v128h236z" />
    <glyph glyph-name="uni1E36" unicode="&#x1e36;" horiz-adv-x="1584" 
d="M248 0v2048h248v-1828h952v-220h-1200zM848 -508q-69 0 -118.5 47t-49.5 113t49.5 113t118.5 47t118.5 -47t49.5 -113t-49.5 -113t-118.5 -47z" />
    <glyph glyph-name="uni1E38" unicode="&#x1e38;" horiz-adv-x="1584" 
d="M248 0v2048h248v-1828h952v-220h-1200zM848 -508q-69 0 -118.5 47t-49.5 113t49.5 113t118.5 47t118.5 -47t49.5 -113t-49.5 -113t-118.5 -47zM840 2560v-200h-936v200h936z" />
    <glyph glyph-name="uni1E3A" unicode="&#x1e3a;" horiz-adv-x="1584" 
d="M248 0v2048h248v-1828h952v-220h-1200zM1316 -252v-200h-936v200h936z" />
    <glyph glyph-name="uni1E3C" unicode="&#x1e3c;" horiz-adv-x="1584" 
d="M248 0v2048h248v-1828h952v-220h-1200zM640 -560l208 280l208 -280h224v16l-324 416h-216l-324 -416v-16h224z" />
    <glyph glyph-name="uni0141" unicode="&#x141;" horiz-adv-x="1584" 
d="M872 1280v-180l-376 -119v-761h952v-220h-1200v903l-188 -59v180l188 59v965h248v-887z" />
    <glyph glyph-name="uni023D" unicode="&#x23d;" horiz-adv-x="1584" 
d="M248 0v2048h248v-1828h952v-220h-1200zM-68 964v184h880v-184h-880z" />
    <glyph glyph-name="uni01C8" unicode="&#x1c8;" horiz-adv-x="2252" 
d="M248 0v2048h248v-1828h952v-220h-1200zM1800 1536h236v-1648q0 -213 -109 -338.5t-331 -125.5h-48v220h44q108 0 158 63.5t50 180.5v1648zM1916 1792q-69 0 -118.5 47t-49.5 113t49.5 113t118.5 47t118.5 -47t49.5 -113t-49.5 -113t-118.5 -47z" />
    <glyph glyph-name="uni004D" unicode="M" horiz-adv-x="2568" 
d="M248 2048h296l696 -1700h24l696 1700h296v-2048h-232v1556h-20l-640 -1556h-224l-640 1556h-20v-1556h-232v2048z" />
    <glyph glyph-name="uni1E3E" unicode="&#x1e3e;" horiz-adv-x="2568" 
d="M248 2048h296l696 -1700h24l696 1700h296v-2048h-232v1556h-20l-640 -1556h-224l-640 1556h-20v-1556h-232v2048zM1144 2256l244 464h276l-312 -464h-208z" />
    <glyph glyph-name="uni1E40" unicode="&#x1e40;" horiz-adv-x="2568" 
d="M248 2048h296l696 -1700h24l696 1700h296v-2048h-232v1556h-20l-640 -1556h-224l-640 1556h-20v-1556h-232v2048zM1252 2304q-69 0 -118.5 47t-49.5 113t49.5 113t118.5 47t118.5 -47t49.5 -113t-49.5 -113t-118.5 -47z" />
    <glyph glyph-name="uni1E42" unicode="&#x1e42;" horiz-adv-x="2568" 
d="M248 2048h296l696 -1700h24l696 1700h296v-2048h-232v1556h-20l-640 -1556h-224l-640 1556h-20v-1556h-232v2048zM1252 -508q-69 0 -118.5 47t-49.5 113t49.5 113t118.5 47t118.5 -47t49.5 -113t-49.5 -113t-118.5 -47z" />
    <glyph glyph-name="uni04CD" unicode="&#x4cd;" horiz-adv-x="2568" 
d="M248 2048h296l696 -1700h24l696 1700h296v-2048h-232v1556h-20l-640 -1556h-224l-640 1556h-20v-1556h-232v2048zM2512 156v-188q-3 -132 -50.5 -255.5t-125.5 -240.5l-200 40q51 120 85.5 229t34.5 223v192h256z" />
    <glyph glyph-name="uni039C" unicode="&#x39c;" horiz-adv-x="2568" 
d="M248 2048h296l696 -1700h24l696 1700h296v-2048h-232v1556h-20l-640 -1556h-224l-640 1556h-20v-1556h-232v2048z" />
    <glyph glyph-name="uni03FA" unicode="&#x3fa;" horiz-adv-x="2568" 
d="M248 2048h296l696 -1700h24l696 1700h296v-2048h-232v1556h-20l-640 -1556h-224l-640 1556h-20v-1556h-232v2048z" />
    <glyph glyph-name="uni041C" unicode="&#x41c;" horiz-adv-x="2568" 
d="M248 2048h296l696 -1700h24l696 1700h296v-2048h-232v1556h-20l-640 -1556h-224l-640 1556h-20v-1556h-232v2048z" />
    <glyph glyph-name="uni004E" unicode="N" horiz-adv-x="2120" 
d="M1872 2048v-2048h-240l-1116 1608h-20v-1608h-248v2048h240l1120 -1612h20v1612h244z" />
    <glyph glyph-name="uni00D1" unicode="&#xd1;" horiz-adv-x="2120" 
d="M1872 2048v-2048h-240l-1116 1608h-20v-1608h-248v2048h240l1120 -1612h20v1612h244zM752 2232l-184 8q0 153 87.5 250.5t216.5 97.5q76 0 130.5 -32t108 -64t125.5 -32q57 0 96.5 44.5t39.5 107.5l180 -16q0 -156 -87.5 -248t-216.5 -92q-69 0 -114 19.5t-80 44.5
t-74 44.5t-96 19.5t-94.5 -44.5t-37.5 -107.5z" />
    <glyph glyph-name="uni0143" unicode="&#x143;" horiz-adv-x="2120" 
d="M1872 2048v-2048h-240l-1116 1608h-20v-1608h-248v2048h240l1120 -1612h20v1612h244zM952 2256l244 464h276l-312 -464h-208z" />
    <glyph glyph-name="uni0145" unicode="&#x145;" horiz-adv-x="2120" 
d="M1872 2048v-2048h-240l-1116 1608h-20v-1608h-248v2048h240l1120 -1612h20v1612h244zM1180 -128v-124q-3 -132 -42.5 -287.5t-117.5 -272.5l-200 40q51 120 87.5 261t36.5 255v128h236z" />
    <glyph glyph-name="uni0147" unicode="&#x147;" horiz-adv-x="2120" 
d="M1872 2048v-2048h-240l-1116 1608h-20v-1608h-248v2048h240l1120 -1612h20v1612h244zM852 2664l208 -280l208 280h224v-16l-324 -416h-216l-324 416v16h224z" />
    <glyph glyph-name="uni01F8" unicode="&#x1f8;" horiz-adv-x="2120" 
d="M1872 2048v-2048h-240l-1116 1608h-20v-1608h-248v2048h240l1120 -1612h20v1612h244zM1168 2256h-208l-312 464h276z" />
    <glyph glyph-name="uni1E44" unicode="&#x1e44;" horiz-adv-x="2120" 
d="M1872 2048v-2048h-240l-1116 1608h-20v-1608h-248v2048h240l1120 -1612h20v1612h244zM1060 2304q-69 0 -118.5 47t-49.5 113t49.5 113t118.5 47t118.5 -47t49.5 -113t-49.5 -113t-118.5 -47z" />
    <glyph glyph-name="uni1E46" unicode="&#x1e46;" horiz-adv-x="2120" 
d="M1872 2048v-2048h-240l-1116 1608h-20v-1608h-248v2048h240l1120 -1612h20v1612h244zM1060 -508q-69 0 -118.5 47t-49.5 113t49.5 113t118.5 47t118.5 -47t49.5 -113t-49.5 -113t-118.5 -47z" />
    <glyph glyph-name="uni1E48" unicode="&#x1e48;" horiz-adv-x="2120" 
d="M1872 2048v-2048h-240l-1116 1608h-20v-1608h-248v2048h240l1120 -1612h20v1612h244zM1528 -252v-200h-936v200h936z" />
    <glyph glyph-name="uni1E4A" unicode="&#x1e4a;" horiz-adv-x="2120" 
d="M1872 2048v-2048h-240l-1116 1608h-20v-1608h-248v2048h240l1120 -1612h20v1612h244zM852 -560l208 280l208 -280h224v16l-324 416h-216l-324 -416v-16h224z" />
    <glyph glyph-name="uni019D" unicode="&#x19d;" horiz-adv-x="2132" 
d="M1884 2048v-2048h-240l-1116 1608h-20v-1772q0 -198 -120 -305t-288 -107q-36 0 -72.5 1.5t-63.5 10.5v204q15 -3 35 -5.5t41 -2.5q96 0 158 44t62 164v2208h240l1120 -1612h20v1612h244z" />
    <glyph glyph-name="uni014A" unicode="&#x14a;" horiz-adv-x="2120" 
d="M1632 0l-1116 1608h-20v-1608h-248v2048h240l1120 -1612h20v1612h244v-2212q0 -198 -120 -305t-288 -107q-36 0 -72.5 1.5t-63.5 10.5v204q15 -3 35 -5.5t41 -2.5q96 0 162 44t66 164v160z" />
    <glyph glyph-name="uni0418" unicode="&#x418;" horiz-adv-x="2120" 
d="M248 2048v-2048h240l1116 1608h20v-1608h248v2048h-240l-1120 -1612h-20v1612h-244z" />
    <glyph glyph-name="uni040D" unicode="&#x40d;" horiz-adv-x="2120" 
d="M248 2048v-2048h240l1116 1608h20v-1608h248v2048h-240l-1120 -1612h-20v1612h-244zM1168 2256h-208l-312 464h276z" />
    <glyph glyph-name="uni0419" unicode="&#x419;" horiz-adv-x="2120" 
d="M248 2048v-2048h240l1116 1608h20v-1608h248v2048h-240l-1120 -1612h-20v1612h-244zM1256 2560h220q0 -162 -112 -265t-304 -103q-189 0 -300.5 103t-111.5 265h220q0 -78 43.5 -137t148.5 -59t150.5 59t45.5 137z" />
    <glyph glyph-name="uni04E2" unicode="&#x4e2;" horiz-adv-x="2120" 
d="M248 2048v-2048h240l1116 1608h20v-1608h248v2048h-240l-1120 -1612h-20v1612h-244zM1528 2560v-200h-936v200h936z" />
    <glyph glyph-name="uni04E4" unicode="&#x4e4;" horiz-adv-x="2120" 
d="M248 2048v-2048h240l1116 1608h20v-1608h248v2048h-240l-1120 -1612h-20v1612h-244zM772 2304q-63 0 -111.5 48.5t-48.5 111.5q0 69 48.5 114.5t111.5 45.5q69 0 114.5 -45.5t45.5 -114.5q0 -63 -45.5 -111.5t-114.5 -48.5zM1348 2304q-63 0 -111.5 48.5t-48.5 111.5
q0 69 48.5 114.5t111.5 45.5q69 0 114.5 -45.5t45.5 -114.5q0 -63 -45.5 -111.5t-114.5 -48.5z" />
    <glyph glyph-name="uni048A" unicode="&#x48a;" horiz-adv-x="2120" 
d="M248 2048v-2048h240l1116 1608h20v-1608h248v2048h-240l-1120 -1612h-20v1612h-244zM1256 2560h220q0 -162 -112 -265t-304 -103q-189 0 -300.5 103t-111.5 265h220q0 -78 43.5 -137t148.5 -59t150.5 59t45.5 137zM2128 156v-188q-3 -132 -50.5 -255.5t-125.5 -240.5
l-200 40q51 120 85.5 229t34.5 223v192h256z" />
    <glyph glyph-name="uni0376" unicode="&#x376;" horiz-adv-x="2120" 
d="M248 2048v-2048h240l1116 1608h20v-1608h248v2048h-240l-1120 -1612h-20v1612h-244z" />
    <glyph glyph-name="uni039D" unicode="&#x39d;" horiz-adv-x="2120" 
d="M1872 2048v-2048h-240l-1116 1608h-20v-1608h-248v2048h240l1120 -1612h20v1612h244z" />
    <glyph glyph-name="uni01CB" unicode="&#x1cb;" horiz-adv-x="2748" 
d="M1872 2048v-2048h-240l-1116 1608h-20v-1608h-248v2048h240l1120 -1612h20v1612h244zM2296 1536h236v-1648q0 -213 -109 -338.5t-331 -125.5h-48v220h44q108 0 158 63.5t50 180.5v1648zM2412 1792q-69 0 -118.5 47t-49.5 113t49.5 113t118.5 47t118.5 -47t49.5 -113
t-49.5 -113t-118.5 -47z" />
    <glyph glyph-name="uni004F" unicode="O" horiz-adv-x="2144" 
d="M1976 1024q0 -324 -117 -560t-321 -364t-466 -128t-466 128t-321 364t-117 560t117 560t321 364t466 128t466 -128t321 -364t117 -560zM1736 1024q0 266 -88.5 449t-239 277t-336.5 94t-336.5 -94t-239 -277t-88.5 -449t88.5 -449t239 -277t336.5 -94t336.5 94t239 277
t88.5 449z" />
    <glyph glyph-name="uni00D6" unicode="&#xd6;" horiz-adv-x="2144" 
d="M1976 1024q0 -324 -117 -560t-321 -364t-466 -128t-466 128t-321 364t-117 560t117 560t321 364t466 128t466 -128t321 -364t117 -560zM1736 1024q0 266 -88.5 449t-239 277t-336.5 94t-336.5 -94t-239 -277t-88.5 -449t88.5 -449t239 -277t336.5 -94t336.5 94t239 277
t88.5 449zM784 2304q-63 0 -111.5 48.5t-48.5 111.5q0 69 48.5 114.5t111.5 45.5q69 0 114.5 -45.5t45.5 -114.5q0 -63 -45.5 -111.5t-114.5 -48.5zM1360 2304q-63 0 -111.5 48.5t-48.5 111.5q0 69 48.5 114.5t111.5 45.5q69 0 114.5 -45.5t45.5 -114.5q0 -63 -45.5 -111.5
t-114.5 -48.5z" />
    <glyph glyph-name="uni00D5" unicode="&#xd5;" horiz-adv-x="2144" 
d="M1976 1024q0 -324 -117 -560t-321 -364t-466 -128t-466 128t-321 364t-117 560t117 560t321 364t466 128t466 -128t321 -364t117 -560zM1736 1024q0 266 -88.5 449t-239 277t-336.5 94t-336.5 -94t-239 -277t-88.5 -449t88.5 -449t239 -277t336.5 -94t336.5 94t239 277
t88.5 449zM764 2252l-184 8q0 153 87.5 250.5t216.5 97.5q76 0 130.5 -32t108 -64t125.5 -32q57 0 96.5 44.5t39.5 107.5l180 -16q0 -156 -87.5 -248t-216.5 -92q-69 0 -114 19.5t-80 44.5t-74 44.5t-96 19.5t-94.5 -44.5t-37.5 -107.5z" />
    <glyph glyph-name="uni00D8" unicode="&#xd8;" horiz-adv-x="2144" 
d="M432 -84l-152 104l152 225q-124 137 -194 334.5t-70 444.5q0 324 117 560t321 364t466 128q282 0 497 -148l135 200l152 -104l-147 -218q125 -137 196 -335t71 -447q0 -324 -117 -560t-321 -364t-466 -128q-284 0 -500 151zM1736 1024q0 184 -44 329t-122 248l-866 -1282
q159 -115 368 -115q186 0 336.5 94t239 277t88.5 449zM571 451l865 1281q-157 112 -364 112q-186 0 -336.5 -94t-239 -277t-88.5 -449q0 -183 43.5 -326.5t119.5 -246.5z" />
    <glyph glyph-name="uni01A0" unicode="&#x1a0;" horiz-adv-x="2180" 
d="M1904 2196h236q0 -210 -81 -346t-243 -188q77 -127 118.5 -287.5t41.5 -350.5q0 -324 -117 -560t-321 -364t-466 -128t-466 128t-321 364t-117 560t117 560t321 364t466 128q181 0 336 -62t273 -179q115 23 169 116.5t54 244.5zM1736 1024q0 266 -88.5 449t-239 277
t-336.5 94t-336.5 -94t-239 -277t-88.5 -449t88.5 -449t239 -277t336.5 -94t336.5 94t239 277t88.5 449z" />
    <glyph glyph-name="uni00D2" unicode="&#xd2;" horiz-adv-x="2144" 
d="M1976 1024q0 -324 -117 -560t-321 -364t-466 -128t-466 128t-321 364t-117 560t117 560t321 364t466 128t466 -128t321 -364t117 -560zM1736 1024q0 266 -88.5 449t-239 277t-336.5 94t-336.5 -94t-239 -277t-88.5 -449t88.5 -449t239 -277t336.5 -94t336.5 94t239 277
t88.5 449zM1180 2256h-208l-312 464h276z" />
    <glyph glyph-name="uni00D3" unicode="&#xd3;" horiz-adv-x="2144" 
d="M1976 1024q0 -324 -117 -560t-321 -364t-466 -128t-466 128t-321 364t-117 560t117 560t321 364t466 128t466 -128t321 -364t117 -560zM1736 1024q0 266 -88.5 449t-239 277t-336.5 94t-336.5 -94t-239 -277t-88.5 -449t88.5 -449t239 -277t336.5 -94t336.5 94t239 277
t88.5 449zM964 2256l244 464h276l-312 -464h-208z" />
    <glyph glyph-name="uni00D4" unicode="&#xd4;" horiz-adv-x="2144" 
d="M1976 1024q0 -324 -117 -560t-321 -364t-466 -128t-466 128t-321 364t-117 560t117 560t321 364t466 128t466 -128t321 -364t117 -560zM1736 1024q0 266 -88.5 449t-239 277t-336.5 94t-336.5 -94t-239 -277t-88.5 -449t88.5 -449t239 -277t336.5 -94t336.5 94t239 277
t88.5 449zM864 2232l208 280l208 -280h224v16l-324 416h-216l-324 -416v-16h224z" />
    <glyph glyph-name="uni014C" unicode="&#x14c;" horiz-adv-x="2144" 
d="M1976 1024q0 -324 -117 -560t-321 -364t-466 -128t-466 128t-321 364t-117 560t117 560t321 364t466 128t466 -128t321 -364t117 -560zM1736 1024q0 266 -88.5 449t-239 277t-336.5 94t-336.5 -94t-239 -277t-88.5 -449t88.5 -449t239 -277t336.5 -94t336.5 94t239 277
t88.5 449zM1540 2560v-200h-936v200h936z" />
    <glyph glyph-name="uni014E" unicode="&#x14e;" horiz-adv-x="2144" 
d="M1976 1024q0 -324 -117 -560t-321 -364t-466 -128t-466 128t-321 364t-117 560t117 560t321 364t466 128t466 -128t321 -364t117 -560zM1736 1024q0 266 -88.5 449t-239 277t-336.5 94t-336.5 -94t-239 -277t-88.5 -449t88.5 -449t239 -277t336.5 -94t336.5 94t239 277
t88.5 449zM1268 2560h220q0 -162 -112 -265t-304 -103q-189 0 -300.5 103t-111.5 265h220q0 -78 43.5 -137t148.5 -59t150.5 59t45.5 137z" />
    <glyph glyph-name="uni0150" unicode="&#x150;" horiz-adv-x="2144" 
d="M1976 1024q0 -324 -117 -560t-321 -364t-466 -128t-466 128t-321 364t-117 560t117 560t321 364t466 128t466 -128t321 -364t117 -560zM1736 1024q0 266 -88.5 449t-239 277t-336.5 94t-336.5 -94t-239 -277t-88.5 -449t88.5 -449t239 -277t336.5 -94t336.5 94t239 277
t88.5 449zM1132 2216l308 424h264l-364 -424h-208zM720 2216l224 424h260l-296 -424h-188z" />
    <glyph glyph-name="uni01D1" unicode="&#x1d1;" horiz-adv-x="2144" 
d="M1976 1024q0 -324 -117 -560t-321 -364t-466 -128t-466 128t-321 364t-117 560t117 560t321 364t466 128t466 -128t321 -364t117 -560zM1736 1024q0 266 -88.5 449t-239 277t-336.5 94t-336.5 -94t-239 -277t-88.5 -449t88.5 -449t239 -277t336.5 -94t336.5 94t239 277
t88.5 449zM864 2664l208 -280l208 280h224v-16l-324 -416h-216l-324 416v16h224z" />
    <glyph glyph-name="uni01EA" unicode="&#x1ea;" horiz-adv-x="2144" 
d="M1976 1024q0 -324 -117 -560t-321 -364t-466 -128t-466 128t-321 364t-117 560t117 560t321 364t466 128t466 -128t321 -364t117 -560zM1736 1024q0 266 -88.5 449t-239 277t-336.5 94t-336.5 -94t-239 -277t-88.5 -449t88.5 -449t239 -277t336.5 -94t336.5 94t239 277
t88.5 449zM1080 -608q-123 0 -203.5 67.5t-80.5 196.5q0 111 83 220.5t281 199.5l108 -84q-90 -66 -161 -140t-71 -164q0 -45 22 -70.5t82 -25.5q45 0 80 12t56 24l16 -176q-33 -21 -86.5 -40.5t-125.5 -19.5z" />
    <glyph glyph-name="uni01EC" unicode="&#x1ec;" horiz-adv-x="2144" 
d="M1976 1024q0 -324 -117 -560t-321 -364t-466 -128t-466 128t-321 364t-117 560t117 560t321 364t466 128t466 -128t321 -364t117 -560zM1736 1024q0 266 -88.5 449t-239 277t-336.5 94t-336.5 -94t-239 -277t-88.5 -449t88.5 -449t239 -277t336.5 -94t336.5 94t239 277
t88.5 449zM1080 -608q-123 0 -203.5 67.5t-80.5 196.5q0 111 83 220.5t281 199.5l108 -84q-90 -66 -161 -140t-71 -164q0 -45 22 -70.5t82 -25.5q45 0 80 12t56 24l16 -176q-33 -21 -86.5 -40.5t-125.5 -19.5zM1540 2560v-200h-936v200h936z" />
    <glyph glyph-name="uni020C" unicode="&#x20c;" horiz-adv-x="2144" 
d="M1976 1024q0 -324 -117 -560t-321 -364t-466 -128t-466 128t-321 364t-117 560t117 560t321 364t466 128t466 -128t321 -364t117 -560zM1736 1024q0 266 -88.5 449t-239 277t-336.5 94t-336.5 -94t-239 -277t-88.5 -449t88.5 -449t239 -277t336.5 -94t336.5 94t239 277
t88.5 449zM1032 2248h-248l-420 364h332zM1396 2248h-220l-336 364h304z" />
    <glyph glyph-name="uni020E" unicode="&#x20e;" horiz-adv-x="2144" 
d="M1976 1024q0 -324 -117 -560t-321 -364t-466 -128t-466 128t-321 364t-117 560t117 560t321 364t466 128t466 -128t321 -364t117 -560zM1736 1024q0 266 -88.5 449t-239 277t-336.5 94t-336.5 -94t-239 -277t-88.5 -449t88.5 -449t239 -277t336.5 -94t336.5 94t239 277
t88.5 449zM660 2288q0 162 112 267t304 105t302 -105t110 -267h-220q0 81 -45 140.5t-147 59.5q-108 0 -152 -61t-44 -139h-220z" />
    <glyph glyph-name="uni022A" unicode="&#x22a;" horiz-adv-x="2144" 
d="M1976 1024q0 -324 -117 -560t-321 -364t-466 -128t-466 128t-321 364t-117 560t117 560t321 364t466 128t466 -128t321 -364t117 -560zM1736 1024q0 266 -88.5 449t-239 277t-336.5 94t-336.5 -94t-239 -277t-88.5 -449t88.5 -449t239 -277t336.5 -94t336.5 94t239 277
t88.5 449zM784 2304q-63 0 -111.5 48.5t-48.5 111.5q0 69 48.5 114.5t111.5 45.5q69 0 114.5 -45.5t45.5 -114.5q0 -63 -45.5 -111.5t-114.5 -48.5zM1360 2304q-63 0 -111.5 48.5t-48.5 111.5q0 69 48.5 114.5t111.5 45.5q69 0 114.5 -45.5t45.5 -114.5q0 -63 -45.5 -111.5
t-114.5 -48.5zM1540 3072v-200h-936v200h936z" />
    <glyph glyph-name="uni022C" unicode="&#x22c;" horiz-adv-x="2144" 
d="M1976 1024q0 -324 -117 -560t-321 -364t-466 -128t-466 128t-321 364t-117 560t117 560t321 364t466 128t466 -128t321 -364t117 -560zM1736 1024q0 266 -88.5 449t-239 277t-336.5 94t-336.5 -94t-239 -277t-88.5 -449t88.5 -449t239 -277t336.5 -94t336.5 94t239 277
t88.5 449zM1544 2888v-208h-940v208h940zM1336 2540l120 -32q0 -102 -65 -177t-167 -75q-74 0 -119 26t-85 52t-100 26q-45 0 -76.5 -38t-31.5 -86l-120 32q0 99 64.5 177.5t163.5 78.5q62 0 108.5 -25t92 -50t103.5 -25q45 0 78.5 32.5t33.5 83.5z" />
    <glyph glyph-name="uni022E" unicode="&#x22e;" horiz-adv-x="2144" 
d="M1976 1024q0 -324 -117 -560t-321 -364t-466 -128t-466 128t-321 364t-117 560t117 560t321 364t466 128t466 -128t321 -364t117 -560zM1736 1024q0 266 -88.5 449t-239 277t-336.5 94t-336.5 -94t-239 -277t-88.5 -449t88.5 -449t239 -277t336.5 -94t336.5 94t239 277
t88.5 449zM1072 2304q-69 0 -118.5 47t-49.5 113t49.5 113t118.5 47t118.5 -47t49.5 -113t-49.5 -113t-118.5 -47z" />
    <glyph glyph-name="uni0230" unicode="&#x230;" horiz-adv-x="2144" 
d="M1976 1024q0 -324 -117 -560t-321 -364t-466 -128t-466 128t-321 364t-117 560t117 560t321 364t466 128t466 -128t321 -364t117 -560zM1736 1024q0 266 -88.5 449t-239 277t-336.5 94t-336.5 -94t-239 -277t-88.5 -449t88.5 -449t239 -277t336.5 -94t336.5 94t239 277
t88.5 449zM1072 2224q-69 0 -118.5 47t-49.5 113t49.5 113t118.5 47t118.5 -47t49.5 -113t-49.5 -113t-118.5 -47zM1540 2960v-200h-936v200h936z" />
    <glyph glyph-name="uni1E4C" unicode="&#x1e4c;" horiz-adv-x="2144" 
d="M1976 1024q0 -324 -117 -560t-321 -364t-466 -128t-466 128t-321 364t-117 560t117 560t321 364t466 128t466 -128t321 -364t117 -560zM1736 1024q0 266 -88.5 449t-239 277t-336.5 94t-336.5 -94t-239 -277t-88.5 -449t88.5 -449t239 -277t336.5 -94t336.5 94t239 277
t88.5 449zM764 2232l-184 8q0 153 87.5 250.5t216.5 97.5q76 0 130.5 -32t108 -64t125.5 -32q57 0 96.5 44.5t39.5 107.5l180 -16q0 -156 -87.5 -248t-216.5 -92q-69 0 -114 19.5t-80 44.5t-74 44.5t-96 19.5t-94.5 -44.5t-37.5 -107.5zM940 2672l292 304h276l-360 -304
h-208z" />
    <glyph glyph-name="uni1E4E" unicode="&#x1e4e;" horiz-adv-x="2144" 
d="M1976 1024q0 -324 -117 -560t-321 -364t-466 -128t-466 128t-321 364t-117 560t117 560t321 364t466 128t466 -128t321 -364t117 -560zM1736 1024q0 266 -88.5 449t-239 277t-336.5 94t-336.5 -94t-239 -277t-88.5 -449t88.5 -449t239 -277t336.5 -94t336.5 94t239 277
t88.5 449zM1336 2540l120 -32q0 -102 -65 -177t-167 -75q-74 0 -119 26t-85 52t-100 26q-45 0 -76.5 -36.5t-31.5 -87.5l-120 32q0 99 63 177.5t165 78.5q62 0 108.5 -25t92 -50t103.5 -25q45 0 78.5 34t33.5 82zM1236 2774q0 65 41 109.5t119 44.5q75 0 115.5 -44.5
t40.5 -107.5t-39 -107.5t-118 -44.5q-77 0 -118 43t-41 107zM592 2776q0 63 39 107.5t117 44.5t119 -43t41 -109q0 -63 -41 -105.5t-119 -42.5q-75 0 -115.5 42.5t-40.5 105.5z" />
    <glyph glyph-name="uni1E50" unicode="&#x1e50;" horiz-adv-x="2144" 
d="M1976 1024q0 -324 -117 -560t-321 -364t-466 -128t-466 128t-321 364t-117 560t117 560t321 364t466 128t466 -128t321 -364t117 -560zM1736 1024q0 266 -88.5 449t-239 277t-336.5 94t-336.5 -94t-239 -277t-88.5 -449t88.5 -449t239 -277t336.5 -94t336.5 94t239 277
t88.5 449zM1544 2464v-208h-940v208h940zM964 2832l196 -268h-164l-296 268h264z" />
    <glyph glyph-name="uni1E52" unicode="&#x1e52;" horiz-adv-x="2144" 
d="M1976 1024q0 -324 -117 -560t-321 -364t-466 -128t-466 128t-321 364t-117 560t117 560t321 364t466 128t466 -128t321 -364t117 -560zM1736 1024q0 266 -88.5 449t-239 277t-336.5 94t-336.5 -94t-239 -277t-88.5 -449t88.5 -449t239 -277t336.5 -94t336.5 94t239 277
t88.5 449zM1540 2504v-200h-936v200h936zM932 2640l300 304h284l-340 -304h-244z" />
    <glyph glyph-name="uni1ECC" unicode="&#x1ecc;" horiz-adv-x="2144" 
d="M1976 1024q0 -324 -117 -560t-321 -364t-466 -128t-466 128t-321 364t-117 560t117 560t321 364t466 128t466 -128t321 -364t117 -560zM1736 1024q0 266 -88.5 449t-239 277t-336.5 94t-336.5 -94t-239 -277t-88.5 -449t88.5 -449t239 -277t336.5 -94t336.5 94t239 277
t88.5 449zM1072 -508q-69 0 -118.5 47t-49.5 113t49.5 113t118.5 47t118.5 -47t49.5 -113t-49.5 -113t-118.5 -47z" />
    <glyph glyph-name="uni1ECE" unicode="&#x1ece;" horiz-adv-x="2144" 
d="M1976 1024q0 -324 -117 -560t-321 -364t-466 -128t-466 128t-321 364t-117 560t117 560t321 364t466 128t466 -128t321 -364t117 -560zM1736 1024q0 266 -88.5 449t-239 277t-336.5 94t-336.5 -94t-239 -277t-88.5 -449t88.5 -449t239 -277t336.5 -94t336.5 94t239 277
t88.5 449zM1176 2256h-196v216q105 6 148.5 29t43.5 71q0 54 -63 79t-153 25l8 152q207 0 313.5 -72t106.5 -192q0 -102 -65 -149t-143 -59v-100z" />
    <glyph glyph-name="uni1ED0" unicode="&#x1ed0;" horiz-adv-x="2144" 
d="M1976 1024q0 -324 -117 -560t-321 -364t-466 -128t-466 128t-321 364t-117 560t117 560t321 364t466 128t466 -128t321 -364t117 -560zM1736 1024q0 266 -88.5 449t-239 277t-336.5 94t-336.5 -94t-239 -277t-88.5 -449t88.5 -449t239 -277t336.5 -94t336.5 94t239 277
t88.5 449zM556 2240l408 364h220l408 -364h-288l-228 212l-228 -212h-292zM1484 2484l196 360h292l-280 -360h-208z" />
    <glyph glyph-name="uni1ED2" unicode="&#x1ed2;" horiz-adv-x="2144" 
d="M1976 1024q0 -324 -117 -560t-321 -364t-466 -128t-466 128t-321 364t-117 560t117 560t321 364t466 128t466 -128t321 -364t117 -560zM1736 1024q0 266 -88.5 449t-239 277t-336.5 94t-336.5 -94t-239 -277t-88.5 -449t88.5 -449t239 -277t336.5 -94t336.5 94t239 277
t88.5 449zM1180 2600l408 -364h-288l-228 212l-228 -212h-288l404 364h220zM468 2844l192 -364h-204l-284 364h296z" />
    <glyph glyph-name="uni1ED4" unicode="&#x1ed4;" horiz-adv-x="2144" 
d="M1976 1024q0 -324 -117 -560t-321 -364t-466 -128t-466 128t-321 364t-117 560t117 560t321 364t466 128t466 -128t321 -364t117 -560zM1736 1024q0 266 -88.5 449t-239 277t-336.5 94t-336.5 -94t-239 -277t-88.5 -449t88.5 -449t239 -277t336.5 -94t336.5 94t239 277
t88.5 449zM1208 2576l380 -364h-248l-272 252l-268 -252h-248l380 364h276zM1628 2404h-168v184q84 6 124 22.5t40 61.5q0 48 -53.5 68t-134.5 20l8 132q180 0 272 -61t92 -163q0 -90 -55.5 -130.5t-124.5 -49.5v-84z" />
    <glyph glyph-name="uni1ED6" unicode="&#x1ed6;" horiz-adv-x="2144" 
d="M1976 1024q0 -324 -117 -560t-321 -364t-466 -128t-466 128t-321 364t-117 560t117 560t321 364t466 128t466 -128t321 -364t117 -560zM1736 1024q0 266 -88.5 449t-239 277t-336.5 94t-336.5 -94t-239 -277t-88.5 -449t88.5 -449t239 -277t336.5 -94t336.5 94t239 277
t88.5 449zM1164 2520l420 -336h-248l-268 212l-268 -212h-248l420 336h192zM1316 2872l112 -32q0 -81 -66 -148.5t-162 -67.5q-68 0 -109 24t-77 48t-90 24q-42 0 -79 -32t-37 -68l-108 28q0 81 64 150.5t160 69.5q56 0 98.5 -23t84 -46t93.5 -23q42 0 79 30t37 66z" />
    <glyph glyph-name="uni1ED8" unicode="&#x1ed8;" horiz-adv-x="2144" 
d="M1976 1024q0 -324 -117 -560t-321 -364t-466 -128t-466 128t-321 364t-117 560t117 560t321 364t466 128t466 -128t321 -364t117 -560zM1736 1024q0 266 -88.5 449t-239 277t-336.5 94t-336.5 -94t-239 -277t-88.5 -449t88.5 -449t239 -277t336.5 -94t336.5 94t239 277
t88.5 449zM864 2232l208 280l208 -280h224v16l-324 416h-216l-324 -416v-16h224zM1072 -508q-69 0 -118.5 47t-49.5 113t49.5 113t118.5 47t118.5 -47t49.5 -113t-49.5 -113t-118.5 -47z" />
    <glyph glyph-name="uni1EDA" unicode="&#x1eda;" horiz-adv-x="2180" 
d="M1904 2196h236q0 -210 -81 -346t-243 -188q77 -127 118.5 -287.5t41.5 -350.5q0 -324 -117 -560t-321 -364t-466 -128t-466 128t-321 364t-117 560t117 560t321 364t466 128q181 0 336 -62t273 -179q115 23 169 116.5t54 244.5zM1736 1024q0 266 -88.5 449t-239 277
t-336.5 94t-336.5 -94t-239 -277t-88.5 -449t88.5 -449t239 -277t336.5 -94t336.5 94t239 277t88.5 449zM964 2256l244 464h276l-312 -464h-208z" />
    <glyph glyph-name="uni1EDC" unicode="&#x1edc;" horiz-adv-x="2180" 
d="M1904 2196h236q0 -210 -81 -346t-243 -188q77 -127 118.5 -287.5t41.5 -350.5q0 -324 -117 -560t-321 -364t-466 -128t-466 128t-321 364t-117 560t117 560t321 364t466 128q181 0 336 -62t273 -179q115 23 169 116.5t54 244.5zM1736 1024q0 266 -88.5 449t-239 277
t-336.5 94t-336.5 -94t-239 -277t-88.5 -449t88.5 -449t239 -277t336.5 -94t336.5 94t239 277t88.5 449zM1180 2256h-208l-312 464h276z" />
    <glyph glyph-name="uni1EDE" unicode="&#x1ede;" horiz-adv-x="2180" 
d="M1904 2196h236q0 -210 -81 -346t-243 -188q77 -127 118.5 -287.5t41.5 -350.5q0 -324 -117 -560t-321 -364t-466 -128t-466 128t-321 364t-117 560t117 560t321 364t466 128q181 0 336 -62t273 -179q115 23 169 116.5t54 244.5zM1736 1024q0 266 -88.5 449t-239 277
t-336.5 94t-336.5 -94t-239 -277t-88.5 -449t88.5 -449t239 -277t336.5 -94t336.5 94t239 277t88.5 449zM1176 2256h-196v216q105 6 148.5 29t43.5 71q0 54 -63 79t-153 25l8 152q207 0 313.5 -72t106.5 -192q0 -102 -65 -149t-143 -59v-100z" />
    <glyph glyph-name="uni1EE0" unicode="&#x1ee0;" horiz-adv-x="2180" 
d="M1904 2196h236q0 -210 -81 -346t-243 -188q77 -127 118.5 -287.5t41.5 -350.5q0 -324 -117 -560t-321 -364t-466 -128t-466 128t-321 364t-117 560t117 560t321 364t466 128q181 0 336 -62t273 -179q115 23 169 116.5t54 244.5zM1736 1024q0 266 -88.5 449t-239 277
t-336.5 94t-336.5 -94t-239 -277t-88.5 -449t88.5 -449t239 -277t336.5 -94t336.5 94t239 277t88.5 449zM764 2232l-184 8q0 153 87.5 250.5t216.5 97.5q76 0 130.5 -32t108 -64t125.5 -32q57 0 96.5 44.5t39.5 107.5l180 -16q0 -156 -87.5 -248t-216.5 -92q-69 0 -114 19.5
t-80 44.5t-74 44.5t-96 19.5t-94.5 -44.5t-37.5 -107.5z" />
    <glyph glyph-name="uni1EE2" unicode="&#x1ee2;" horiz-adv-x="2180" 
d="M1904 2196h236q0 -210 -81 -346t-243 -188q77 -127 118.5 -287.5t41.5 -350.5q0 -324 -117 -560t-321 -364t-466 -128t-466 128t-321 364t-117 560t117 560t321 364t466 128q181 0 336 -62t273 -179q115 23 169 116.5t54 244.5zM1736 1024q0 266 -88.5 449t-239 277
t-336.5 94t-336.5 -94t-239 -277t-88.5 -449t88.5 -449t239 -277t336.5 -94t336.5 94t239 277t88.5 449zM1072 -508q-69 0 -118.5 47t-49.5 113t49.5 113t118.5 47t118.5 -47t49.5 -113t-49.5 -113t-118.5 -47z" />
    <glyph glyph-name="uni01FE" unicode="&#x1fe;" horiz-adv-x="2144" 
d="M432 -84l-152 104l152 225q-124 137 -194 334.5t-70 444.5q0 324 117 560t321 364t466 128q282 0 497 -148l135 200l152 -104l-147 -218q125 -137 196 -335t71 -447q0 -324 -117 -560t-321 -364t-466 -128q-284 0 -500 151zM1736 1024q0 184 -44 329t-122 248l-866 -1282
q159 -115 368 -115q186 0 336.5 94t239 277t88.5 449zM571 451l865 1281q-157 112 -364 112q-186 0 -336.5 -94t-239 -277t-88.5 -449q0 -183 43.5 -326.5t119.5 -246.5zM964 2256l244 464h276l-312 -464h-208z" />
    <glyph glyph-name="uni039F" unicode="&#x39f;" horiz-adv-x="2144" 
d="M1976 1024q0 -324 -117 -560t-321 -364t-466 -128t-466 128t-321 364t-117 560t117 560t321 364t466 128t466 -128t321 -364t117 -560zM1736 1024q0 266 -88.5 449t-239 277t-336.5 94t-336.5 -94t-239 -277t-88.5 -449t88.5 -449t239 -277t336.5 -94t336.5 94t239 277
t88.5 449z" />
    <glyph glyph-name="uni038C" unicode="&#x38c;" horiz-adv-x="2200" 
d="M2032 1024q0 -324 -117 -560t-321 -364t-466 -128t-466 128t-321 364t-117 560t117 560t321 364t466 128t466 -128t321 -364t117 -560zM1792 1024q0 266 -88.5 449t-239 277t-336.5 94t-336.5 -94t-239 -277t-88.5 -449t88.5 -449t239 -277t336.5 -94t336.5 94t239 277
t88.5 449zM-16 1708l68 468h256l-160 -468h-164z" />
    <glyph glyph-name="uni1F48" unicode="&#x1f48;" horiz-adv-x="2296" 
d="M2128 1024q0 -324 -117 -560t-321 -364t-466 -128t-466 128t-321 364t-117 560t117 560t321 364t466 128t466 -128t321 -364t117 -560zM1888 1024q0 266 -88.5 449t-239 277t-336.5 94t-336.5 -94t-239 -277t-88.5 -449t88.5 -449t239 -277t336.5 -94t336.5 94t239 277
t88.5 449zM344 2048v-112q0 -249 -252 -384l-108 84q57 63 84.5 136t27.5 172v104h248z" />
    <glyph glyph-name="uni1F49" unicode="&#x1f49;" horiz-adv-x="2392" 
d="M2224 1024q0 -324 -117 -560t-321 -364t-466 -128t-466 128t-321 364t-117 560t117 560t321 364t466 128t466 -128t321 -364t117 -560zM1984 1024q0 266 -88.5 449t-239 277t-336.5 94t-336.5 -94t-239 -277t-88.5 -449t88.5 -449t239 -277t336.5 -94t336.5 94t239 277
t88.5 449zM100 1936v112h248v-104q0 -99 27.5 -172t84.5 -136l-108 -84q-120 66 -186 165t-66 219z" />
    <glyph glyph-name="uni1F4A" unicode="&#x1f4a;" horiz-adv-x="2848" 
d="M2680 1024q0 -324 -117 -560t-321 -364t-466 -128t-466 128t-321 364t-117 560t117 560t321 364t466 128t466 -128t321 -364t117 -560zM2440 1024q0 266 -88.5 449t-239 277t-336.5 94t-336.5 -94t-239 -277t-88.5 -449t88.5 -449t239 -277t336.5 -94t336.5 94t239 277
t88.5 449zM344 2048v-112q0 -120 -66 -219t-186 -165l-108 84q54 63 83 136t29 172v104h248zM852 1604v-20h-128l-316 436v28h288z" />
    <glyph glyph-name="uni1F4B" unicode="&#x1f4b;" horiz-adv-x="2704" 
d="M2536 1024q0 -324 -117 -560t-321 -364t-466 -128t-466 128t-321 364t-117 560t117 560t321 364t466 128t466 -128t321 -364t117 -560zM2296 1024q0 266 -88.5 449t-239 277t-336.5 94t-336.5 -94t-239 -277t-88.5 -449t88.5 -449t239 -277t336.5 -94t336.5 94t239 277
t88.5 449zM-56 1936v112h248v-104q0 -99 27.5 -172t84.5 -136l-108 -84q-120 66 -186 165t-66 219zM728 1604v-20h-128l-316 436v28h292z" />
    <glyph glyph-name="uni1F4C" unicode="&#x1f4c;" horiz-adv-x="2604" 
d="M2436 1024q0 -324 -117 -560t-321 -364t-466 -128t-466 128t-321 364t-117 560t117 560t321 364t466 128t466 -128t321 -364t117 -560zM2196 1024q0 266 -88.5 449t-239 277t-336.5 94t-336.5 -94t-239 -277t-88.5 -449t88.5 -449t239 -277t336.5 -94t336.5 94t239 277
t88.5 449zM344 2048v-112q0 -120 -66 -219t-186 -165l-108 84q54 63 83 136t29 172v104h248zM364 1584v20l156 444h288v-28l-316 -436h-128z" />
    <glyph glyph-name="uni1F4D" unicode="&#x1f4d;" horiz-adv-x="2636" 
d="M2468 1024q0 -324 -117 -560t-321 -364t-466 -128t-466 128t-321 364t-117 560t117 560t321 364t466 128t466 -128t321 -364t117 -560zM2228 1024q0 266 -88.5 449t-239 277t-336.5 94t-336.5 -94t-239 -277t-88.5 -449t88.5 -449t239 -277t336.5 -94t336.5 94t239 277
t88.5 449zM-16 1936v112h248v-104q0 -99 29 -172t83 -136l-108 -84q-120 66 -186 165t-66 219zM396 1584v20l152 444h292v-28l-316 -436h-128z" />
    <glyph glyph-name="uni1FF8" unicode="&#x1ff8;" horiz-adv-x="2420" 
d="M2252 1024q0 -324 -117 -560t-321 -364t-466 -128t-466 128t-321 364t-117 560t117 560t321 364t466 128t466 -128t321 -364t117 -560zM2012 1024q0 266 -88.5 449t-239 277t-336.5 94t-336.5 -94t-239 -277t-88.5 -449t88.5 -449t239 -277t336.5 -94t336.5 94t239 277
t88.5 449zM428 1580h-128l-316 440v28h288l156 -444v-24z" />
    <glyph glyph-name="uni03F4" unicode="&#x3f4;" horiz-adv-x="2144" 
d="M1976 1024q0 -324 -117 -560t-321 -364t-466 -128t-466 128t-321 364t-117 560t117 560t321 364t466 128t466 -128t321 -364t117 -560zM1730 896q-136 -55 -250.5 -60.5t-218 17t-204.5 52.5q-96 29 -195.5 52t-210 21t-240.5 -46q16 -237 107 -399t235 -245.5t319 -83.5
q170 0 311.5 79t233 233.5t113.5 379.5zM1733 1120q-17 235 -108 396.5t-234.5 244.5t-318.5 83q-170 0 -311 -79t-232.5 -232t-114.5 -377q135 54 249.5 59t217.5 -18t203 -53q97 -28 196.5 -51t210.5 -21t242 48z" />
    <glyph glyph-name="uni1FF9" unicode="&#x1ff9;" horiz-adv-x="2220" 
d="M2052 1024q0 -324 -117 -560t-321 -364t-466 -128t-466 128t-321 364t-117 560t117 560t321 364t466 128t466 -128t321 -364t117 -560zM1812 1024q0 266 -88.5 449t-239 277t-336.5 94t-336.5 -94t-239 -277t-88.5 -449t88.5 -449t239 -277t336.5 -94t336.5 94t239 277
t88.5 449zM-16 1604l152 444h292v-28l-316 -440h-128v24z" />
    <glyph glyph-name="uni041E" unicode="&#x41e;" horiz-adv-x="2144" 
d="M1976 1024q0 -324 -117 -560t-321 -364t-466 -128t-466 128t-321 364t-117 560t117 560t321 364t466 128t466 -128t321 -364t117 -560zM1736 1024q0 266 -88.5 449t-239 277t-336.5 94t-336.5 -94t-239 -277t-88.5 -449t88.5 -449t239 -277t336.5 -94t336.5 94t239 277
t88.5 449z" />
    <glyph glyph-name="uni04E6" unicode="&#x4e6;" horiz-adv-x="2144" 
d="M1976 1024q0 -324 -117 -560t-321 -364t-466 -128t-466 128t-321 364t-117 560t117 560t321 364t466 128t466 -128t321 -364t117 -560zM1736 1024q0 266 -88.5 449t-239 277t-336.5 94t-336.5 -94t-239 -277t-88.5 -449t88.5 -449t239 -277t336.5 -94t336.5 94t239 277
t88.5 449zM784 2304q-63 0 -111.5 48.5t-48.5 111.5q0 69 48.5 114.5t111.5 45.5q69 0 114.5 -45.5t45.5 -114.5q0 -63 -45.5 -111.5t-114.5 -48.5zM1360 2304q-63 0 -111.5 48.5t-48.5 111.5q0 69 48.5 114.5t111.5 45.5q69 0 114.5 -45.5t45.5 -114.5q0 -63 -45.5 -111.5
t-114.5 -48.5z" />
    <glyph glyph-name="uni019F" unicode="&#x19f;" horiz-adv-x="2144" 
d="M1976 1024q0 -324 -117 -560t-321 -364t-466 -128t-466 128t-321 364t-117 560t117 560t321 364t466 128t466 -128t321 -364t117 -560zM1730 896q-136 -55 -250.5 -60.5t-218 17t-204.5 52.5q-96 29 -195.5 52t-210 21t-240.5 -46q16 -237 107 -399t235 -245.5t319 -83.5
q170 0 311.5 79t233 233.5t113.5 379.5zM1733 1120q-17 235 -108 396.5t-234.5 244.5t-318.5 83q-170 0 -311 -79t-232.5 -232t-114.5 -377q135 54 249.5 59t217.5 -18t203 -53q97 -28 196.5 -51t210.5 -21t242 48z" />
    <glyph glyph-name="uni04E8" unicode="&#x4e8;" horiz-adv-x="2144" 
d="M1976 1024q0 -324 -117 -560t-321 -364t-466 -128t-466 128t-321 364t-117 560t117 560t321 364t466 128t466 -128t321 -364t117 -560zM1730 896q-136 -55 -250.5 -60.5t-218 17t-204.5 52.5q-96 29 -195.5 52t-210 21t-240.5 -46q16 -237 107 -399t235 -245.5t319 -83.5
q170 0 311.5 79t233 233.5t113.5 379.5zM1733 1120q-17 235 -108 396.5t-234.5 244.5t-318.5 83q-170 0 -311 -79t-232.5 -232t-114.5 -377q135 54 249.5 59t217.5 -18t203 -53q97 -28 196.5 -51t210.5 -21t242 48z" />
    <glyph glyph-name="uni04EA" unicode="&#x4ea;" horiz-adv-x="2144" 
d="M1976 1024q0 -324 -117 -560t-321 -364t-466 -128t-466 128t-321 364t-117 560t117 560t321 364t466 128t466 -128t321 -364t117 -560zM1730 896q-136 -55 -250.5 -60.5t-218 17t-204.5 52.5q-96 29 -195.5 52t-210 21t-240.5 -46q16 -237 107 -399t235 -245.5t319 -83.5
q170 0 311.5 79t233 233.5t113.5 379.5zM1733 1120q-17 235 -108 396.5t-234.5 244.5t-318.5 83q-170 0 -311 -79t-232.5 -232t-114.5 -377q135 54 249.5 59t217.5 -18t203 -53q97 -28 196.5 -51t210.5 -21t242 48zM784 2304q-63 0 -111.5 48.5t-48.5 111.5q0 69 48.5 114.5
t111.5 45.5q69 0 114.5 -45.5t45.5 -114.5q0 -63 -45.5 -111.5t-114.5 -48.5zM1360 2304q-63 0 -111.5 48.5t-48.5 111.5q0 69 48.5 114.5t111.5 45.5q69 0 114.5 -45.5t45.5 -114.5q0 -63 -45.5 -111.5t-114.5 -48.5z" />
    <glyph glyph-name="uni0152" unicode="&#x152;" horiz-adv-x="2684" 
d="M1072 0q-270 0 -473.5 128.5t-317 359t-113.5 536.5q0 308 113.5 538.5t317 358t473.5 127.5h1412v-220h-988v-692h924v-220h-924v-696h1004v-220h-1428zM1248 220v1608h-176q-198 0 -347.5 -100t-233 -281t-83.5 -423q0 -240 83.5 -421t233 -282t347.5 -101h176z" />
    <glyph glyph-name="uni0050" unicode="P" horiz-adv-x="1788" 
d="M248 0v2048h692q241 0 394.5 -86.5t227.5 -233.5t74 -328t-73.5 -329t-226.5 -235.5t-392 -87.5h-448v-748h-248zM496 968h440q247 0 351.5 124t104.5 308q0 185 -105 306.5t-355 121.5h-436v-860z" />
    <glyph glyph-name="uni1E54" unicode="&#x1e54;" horiz-adv-x="1788" 
d="M248 0v2048h692q241 0 394.5 -86.5t227.5 -233.5t74 -328t-73.5 -329t-226.5 -235.5t-392 -87.5h-448v-748h-248zM496 968h440q247 0 351.5 124t104.5 308q0 185 -105 306.5t-355 121.5h-436v-860zM784 2256l244 464h276l-312 -464h-208z" />
    <glyph glyph-name="uni1E56" unicode="&#x1e56;" horiz-adv-x="1788" 
d="M248 0v2048h692q241 0 394.5 -86.5t227.5 -233.5t74 -328t-73.5 -329t-226.5 -235.5t-392 -87.5h-448v-748h-248zM496 968h440q247 0 351.5 124t104.5 308q0 185 -105 306.5t-355 121.5h-436v-860zM892 2304q-69 0 -118.5 47t-49.5 113t49.5 113t118.5 47t118.5 -47
t49.5 -113t-49.5 -113t-118.5 -47z" />
    <glyph glyph-name="uni048E" unicode="&#x48e;" horiz-adv-x="1788" 
d="M248 0v2048h692q241 0 394.5 -86.5t227.5 -233.5t74 -328q0 -156 -54 -288.5t-167 -222.5l137 -209l-184 -120l-148 227q-123 -39 -276 -39h-448v-748h-248zM1136 1316l149 -227q56 58 81.5 138t25.5 173q0 185 -105 306.5t-355 121.5h-436v-860h440q86 0 156 17
l-140 215z" />
    <glyph glyph-name="uni01A4" unicode="&#x1a4;" horiz-adv-x="2216" 
d="M368 1504h-232v136q0 168 105 288t303 120h824q241 0 394.5 -86.5t227.5 -233.5t74 -328t-73.5 -329t-226.5 -235.5t-392 -87.5h-448v-748h-248v1828h-128q-80 0 -118.5 -35.5t-50 -92t-11.5 -120.5v-76zM924 968h440q247 0 351.5 124t104.5 308q0 185 -105 306.5
t-355 121.5h-436v-860z" />
    <glyph glyph-name="uni03A1" unicode="&#x3a1;" horiz-adv-x="1788" 
d="M248 0v2048h692q241 0 394.5 -86.5t227.5 -233.5t74 -328t-73.5 -329t-226.5 -235.5t-392 -87.5h-448v-748h-248zM496 968h440q247 0 351.5 124t104.5 308q0 185 -105 306.5t-355 121.5h-436v-860z" />
    <glyph glyph-name="uni1FEC" unicode="&#x1fec;" horiz-adv-x="2136" 
d="M600 0v2048h692q241 0 394.5 -86.5t227.5 -233.5t74 -328t-73.5 -329t-226.5 -235.5t-392 -87.5h-448v-748h-248zM848 968h440q247 0 351.5 124t104.5 308q0 185 -105 306.5t-355 121.5h-436v-860zM132 1936v112h248v-104q0 -99 27.5 -172t84.5 -136l-108 -84
q-120 66 -186 165t-66 219z" />
    <glyph glyph-name="uni0051" unicode="Q" horiz-adv-x="2144" 
d="M1976 1024q0 -288 -94 -507.5t-257 -353.5l267 -355h-272l-179 240q-170 -76 -369 -76q-262 0 -466 128t-321 364t-117 560t117 560t321 364t466 128t466 -128t321 -364t117 -560zM992 640h272l218 -287q117 102 185.5 270.5t68.5 400.5q0 266 -88.5 449t-239 277
t-336.5 94t-336.5 -94t-239 -277t-88.5 -449t88.5 -449t239 -277t336.5 -94q119 0 224 38z" />
    <glyph glyph-name="uni0052" unicode="R" horiz-adv-x="1800" 
d="M248 0v2048h692q240 0 394 -81.5t228 -223.5t74 -323q0 -204 -93.5 -355.5t-289.5 -218.5l463 -846h-288l-432 801q-25 -1 -52 -1h-448v-800h-248zM496 1024h440q246 0 351 106t105 290q0 185 -105.5 296.5t-354.5 111.5h-436v-804z" />
    <glyph glyph-name="uni0154" unicode="&#x154;" horiz-adv-x="1800" 
d="M248 0v2048h692q240 0 394 -81.5t228 -223.5t74 -323q0 -204 -93.5 -355.5t-289.5 -218.5l463 -846h-288l-432 801q-25 -1 -52 -1h-448v-800h-248zM496 1024h440q246 0 351 106t105 290q0 185 -105.5 296.5t-354.5 111.5h-436v-804zM780 2256l244 464h276l-312 -464h-208
z" />
    <glyph glyph-name="uni0156" unicode="&#x156;" horiz-adv-x="1800" 
d="M248 0v2048h692q240 0 394 -81.5t228 -223.5t74 -323q0 -204 -93.5 -355.5t-289.5 -218.5l463 -846h-288l-432 801q-25 -1 -52 -1h-448v-800h-248zM496 1024h440q246 0 351 106t105 290q0 185 -105.5 296.5t-354.5 111.5h-436v-804zM1044 -128v-124q-3 -132 -42.5 -287.5
t-117.5 -272.5l-200 40q51 120 87.5 261t36.5 255v128h236z" />
    <glyph glyph-name="uni0158" unicode="&#x158;" horiz-adv-x="1800" 
d="M248 0v2048h692q240 0 394 -81.5t228 -223.5t74 -323q0 -204 -93.5 -355.5t-289.5 -218.5l463 -846h-288l-432 801q-25 -1 -52 -1h-448v-800h-248zM496 1024h440q246 0 351 106t105 290q0 185 -105.5 296.5t-354.5 111.5h-436v-804zM680 2664l208 -280l208 280h224v-16
l-324 -416h-216l-324 416v16h224z" />
    <glyph glyph-name="uni0210" unicode="&#x210;" horiz-adv-x="1800" 
d="M248 0v2048h692q240 0 394 -81.5t228 -223.5t74 -323q0 -204 -93.5 -355.5t-289.5 -218.5l463 -846h-288l-432 801q-25 -1 -52 -1h-448v-800h-248zM496 1024h440q246 0 351 106t105 290q0 185 -105.5 296.5t-354.5 111.5h-436v-804zM848 2248h-248l-420 364h332z
M1212 2248h-220l-336 364h304z" />
    <glyph glyph-name="uni0212" unicode="&#x212;" horiz-adv-x="1800" 
d="M248 0v2048h692q240 0 394 -81.5t228 -223.5t74 -323q0 -204 -93.5 -355.5t-289.5 -218.5l463 -846h-288l-432 801q-25 -1 -52 -1h-448v-800h-248zM496 1024h440q246 0 351 106t105 290q0 185 -105.5 296.5t-354.5 111.5h-436v-804zM476 2288q0 162 112 267t304 105
t302 -105t110 -267h-220q0 81 -45 140.5t-147 59.5q-108 0 -152 -61t-44 -139h-220z" />
    <glyph glyph-name="uni1E58" unicode="&#x1e58;" horiz-adv-x="1800" 
d="M248 0v2048h692q240 0 394 -81.5t228 -223.5t74 -323q0 -204 -93.5 -355.5t-289.5 -218.5l463 -846h-288l-432 801q-25 -1 -52 -1h-448v-800h-248zM496 1024h440q246 0 351 106t105 290q0 185 -105.5 296.5t-354.5 111.5h-436v-804zM888 2304q-69 0 -118.5 47t-49.5 113
t49.5 113t118.5 47t118.5 -47t49.5 -113t-49.5 -113t-118.5 -47z" />
    <glyph glyph-name="uni1E5A" unicode="&#x1e5a;" horiz-adv-x="1800" 
d="M248 0v2048h692q240 0 394 -81.5t228 -223.5t74 -323q0 -204 -93.5 -355.5t-289.5 -218.5l463 -846h-288l-432 801q-25 -1 -52 -1h-448v-800h-248zM496 1024h440q246 0 351 106t105 290q0 185 -105.5 296.5t-354.5 111.5h-436v-804zM924 -508q-69 0 -118.5 47t-49.5 113
t49.5 113t118.5 47t118.5 -47t49.5 -113t-49.5 -113t-118.5 -47z" />
    <glyph glyph-name="uni1E5C" unicode="&#x1e5c;" horiz-adv-x="1800" 
d="M248 0v2048h692q240 0 394 -81.5t228 -223.5t74 -323q0 -204 -93.5 -355.5t-289.5 -218.5l463 -846h-288l-432 801q-25 -1 -52 -1h-448v-800h-248zM496 1024h440q246 0 351 106t105 290q0 185 -105.5 296.5t-354.5 111.5h-436v-804zM924 -508q-69 0 -118.5 47t-49.5 113
t49.5 113t118.5 47t118.5 -47t49.5 -113t-49.5 -113t-118.5 -47zM1356 2560v-200h-936v200h936z" />
    <glyph glyph-name="uni1E5E" unicode="&#x1e5e;" horiz-adv-x="1800" 
d="M248 0v2048h692q240 0 394 -81.5t228 -223.5t74 -323q0 -204 -93.5 -355.5t-289.5 -218.5l463 -846h-288l-432 801q-25 -1 -52 -1h-448v-800h-248zM496 1024h440q246 0 351 106t105 290q0 185 -105.5 296.5t-354.5 111.5h-436v-804zM1392 -252v-200h-936v200h936z" />
    <glyph glyph-name="uni211F" unicode="&#x211f;" horiz-adv-x="1800" 
d="M1360 2316l-91 -322q188 -71 277.5 -223t89.5 -351q0 -204 -93.5 -355.5t-289.5 -218.5l463 -846h-288l-432 801q-25 -1 -52 -1h-13l-363 -1284l-156 32l356 1252h-272v-800h-248v2048h692q95 0 179 -14l53 186l-436 128l56 148zM496 1024h336l226 795q-58 9 -126 9h-436
v-804zM995 1026q213 13 305 117t92 277q0 121 -43.5 212t-142.5 141z" />
    <glyph glyph-name="uni211E" unicode="&#x211e;" horiz-adv-x="1924" 
d="M248 2048h684q244 0 395.5 -86t222 -229t70.5 -313q0 -223 -107 -370t-305 -215l142 -194l190 259h280l-328 -453l328 -447h-288l-182 251l-182 -251h-288l328 447l-253 349h-459v-796h-248v2048zM496 1024h408q180 0 283 51.5t146 141t43 203.5q0 96 -35 190t-131 156
t-278 62h-436v-804z" />
    <glyph glyph-name="uni024C" unicode="&#x24c;" horiz-adv-x="1824" 
d="M272 0v800h-240v224h240v1024h692q240 0 394 -81.5t228 -223.5t74 -323q0 -204 -93.5 -355.5t-289.5 -218.5l463 -846h-288l-432 801q-25 -1 -52 -1h-448v-800h-248zM520 1024h440q246 0 351 106t105 290q0 185 -105.5 296.5t-354.5 111.5h-436v-804z" />
    <glyph glyph-name="uni0053" unicode="S" horiz-adv-x="1796" 
d="M1368 1536q-18 152 -146 236t-314 84q-204 0 -328 -96.5t-124 -243.5q0 -110 67.5 -177.5t160 -105t168.5 -57.5l208 -56q80 -21 178.5 -58t189 -100.5t149.5 -162.5t59 -243q0 -166 -86.5 -300t-252 -213t-401.5 -79q-330 0 -524 156t-212 408h256q10 -116 78.5 -191.5
t174 -112t227.5 -36.5q142 0 255 46.5t179 130t66 195.5q0 102 -57 166t-150 104t-201 70l-252 72q-240 69 -380 197t-140 335q0 172 93.5 300.5t252 200t354.5 71.5q198 0 352 -70.5t244.5 -192.5t95.5 -277h-240z" />
    <glyph glyph-name="uni015A" unicode="&#x15a;" horiz-adv-x="1796" 
d="M1368 1536q-18 152 -146 236t-314 84q-204 0 -328 -96.5t-124 -243.5q0 -110 67.5 -177.5t160 -105t168.5 -57.5l208 -56q80 -21 178.5 -58t189 -100.5t149.5 -162.5t59 -243q0 -166 -86.5 -300t-252 -213t-401.5 -79q-330 0 -524 156t-212 408h256q10 -116 78.5 -191.5
t174 -112t227.5 -36.5q142 0 255 46.5t179 130t66 195.5q0 102 -57 166t-150 104t-201 70l-252 72q-240 69 -380 197t-140 335q0 172 93.5 300.5t252 200t354.5 71.5q198 0 352 -70.5t244.5 -192.5t95.5 -277h-240zM788 2256l244 464h276l-312 -464h-208z" />
    <glyph glyph-name="uni015C" unicode="&#x15c;" horiz-adv-x="1796" 
d="M1368 1536q-18 152 -146 236t-314 84q-204 0 -328 -96.5t-124 -243.5q0 -110 67.5 -177.5t160 -105t168.5 -57.5l208 -56q80 -21 178.5 -58t189 -100.5t149.5 -162.5t59 -243q0 -166 -86.5 -300t-252 -213t-401.5 -79q-330 0 -524 156t-212 408h256q10 -116 78.5 -191.5
t174 -112t227.5 -36.5q142 0 255 46.5t179 130t66 195.5q0 102 -57 166t-150 104t-201 70l-252 72q-240 69 -380 197t-140 335q0 172 93.5 300.5t252 200t354.5 71.5q198 0 352 -70.5t244.5 -192.5t95.5 -277h-240zM688 2232l208 280l208 -280h224v16l-324 416h-216
l-324 -416v-16h224z" />
    <glyph glyph-name="uni015E" unicode="&#x15e;" horiz-adv-x="1796" 
d="M1368 1536q-18 152 -146 236t-314 84q-204 0 -328 -96.5t-124 -243.5q0 -110 67.5 -177.5t160 -105t168.5 -57.5l208 -56q80 -21 178.5 -58t189 -100.5t149.5 -162.5t59 -243q0 -166 -86.5 -300t-252 -213t-401.5 -79q-330 0 -524 156t-212 408h256q10 -116 78.5 -191.5
t174 -112t227.5 -36.5q142 0 255 46.5t179 130t66 195.5q0 102 -57 166t-150 104t-201 70l-252 72q-240 69 -380 197t-140 335q0 172 93.5 300.5t252 200t354.5 71.5q198 0 352 -70.5t244.5 -192.5t95.5 -277h-240zM796 8h196l-16 -80q78 -12 143 -65.5t65 -170.5
q0 -129 -106.5 -210.5t-313.5 -81.5l-8 156q93 0 154.5 29.5t61.5 98.5t-51 94t-165 34z" />
    <glyph glyph-name="uni0160" unicode="&#x160;" horiz-adv-x="1796" 
d="M1368 1536q-18 152 -146 236t-314 84q-204 0 -328 -96.5t-124 -243.5q0 -110 67.5 -177.5t160 -105t168.5 -57.5l208 -56q80 -21 178.5 -58t189 -100.5t149.5 -162.5t59 -243q0 -166 -86.5 -300t-252 -213t-401.5 -79q-330 0 -524 156t-212 408h256q10 -116 78.5 -191.5
t174 -112t227.5 -36.5q142 0 255 46.5t179 130t66 195.5q0 102 -57 166t-150 104t-201 70l-252 72q-240 69 -380 197t-140 335q0 172 93.5 300.5t252 200t354.5 71.5q198 0 352 -70.5t244.5 -192.5t95.5 -277h-240zM688 2664l208 -280l208 280h224v-16l-324 -416h-216
l-324 416v16h224z" />
    <glyph glyph-name="uni0218" unicode="&#x218;" horiz-adv-x="1796" 
d="M1368 1536q-18 152 -146 236t-314 84q-204 0 -328 -96.5t-124 -243.5q0 -110 67.5 -177.5t160 -105t168.5 -57.5l208 -56q80 -21 178.5 -58t189 -100.5t149.5 -162.5t59 -243q0 -166 -86.5 -300t-252 -213t-401.5 -79q-330 0 -524 156t-212 408h256q10 -116 78.5 -191.5
t174 -112t227.5 -36.5q142 0 255 46.5t179 130t66 195.5q0 102 -57 166t-150 104t-201 70l-252 72q-240 69 -380 197t-140 335q0 172 93.5 300.5t252 200t354.5 71.5q198 0 352 -70.5t244.5 -192.5t95.5 -277h-240zM1020 -164v-124q-3 -132 -42.5 -287.5t-117.5 -272.5
l-200 40q51 120 87.5 261t36.5 255v128h236z" />
    <glyph glyph-name="uni1E60" unicode="&#x1e60;" horiz-adv-x="1796" 
d="M1368 1536q-18 152 -146 236t-314 84q-204 0 -328 -96.5t-124 -243.5q0 -110 67.5 -177.5t160 -105t168.5 -57.5l208 -56q80 -21 178.5 -58t189 -100.5t149.5 -162.5t59 -243q0 -166 -86.5 -300t-252 -213t-401.5 -79q-330 0 -524 156t-212 408h256q10 -116 78.5 -191.5
t174 -112t227.5 -36.5q142 0 255 46.5t179 130t66 195.5q0 102 -57 166t-150 104t-201 70l-252 72q-240 69 -380 197t-140 335q0 172 93.5 300.5t252 200t354.5 71.5q198 0 352 -70.5t244.5 -192.5t95.5 -277h-240zM896 2304q-69 0 -118.5 47t-49.5 113t49.5 113t118.5 47
t118.5 -47t49.5 -113t-49.5 -113t-118.5 -47z" />
    <glyph glyph-name="uni1E62" unicode="&#x1e62;" horiz-adv-x="1796" 
d="M1368 1536q-18 152 -146 236t-314 84q-204 0 -328 -96.5t-124 -243.5q0 -110 67.5 -177.5t160 -105t168.5 -57.5l208 -56q80 -21 178.5 -58t189 -100.5t149.5 -162.5t59 -243q0 -166 -86.5 -300t-252 -213t-401.5 -79q-330 0 -524 156t-212 408h256q10 -116 78.5 -191.5
t174 -112t227.5 -36.5q142 0 255 46.5t179 130t66 195.5q0 102 -57 166t-150 104t-201 70l-252 72q-240 69 -380 197t-140 335q0 172 93.5 300.5t252 200t354.5 71.5q198 0 352 -70.5t244.5 -192.5t95.5 -277h-240zM900 -544q-69 0 -118.5 47t-49.5 113t49.5 113t118.5 47
t118.5 -47t49.5 -113t-49.5 -113t-118.5 -47z" />
    <glyph glyph-name="uni1E64" unicode="&#x1e64;" horiz-adv-x="1796" 
d="M1368 1536q-18 152 -146 236t-314 84q-204 0 -328 -96.5t-124 -243.5q0 -110 67.5 -177.5t160 -105t168.5 -57.5l208 -56q80 -21 178.5 -58t189 -100.5t149.5 -162.5t59 -243q0 -166 -86.5 -300t-252 -213t-401.5 -79q-330 0 -524 156t-212 408h256q10 -116 78.5 -191.5
t174 -112t227.5 -36.5q142 0 255 46.5t179 130t66 195.5q0 102 -57 166t-150 104t-201 70l-252 72q-240 69 -380 197t-140 335q0 172 93.5 300.5t252 200t354.5 71.5q198 0 352 -70.5t244.5 -192.5t95.5 -277h-240zM820 2272l192 364h296l-284 -364h-204zM556 2696
q0 63 40.5 107.5t115.5 44.5q81 0 120.5 -46t39.5 -106q0 -63 -39.5 -107.5t-120.5 -44.5q-78 0 -117 46t-39 106z" />
    <glyph glyph-name="uni1E66" unicode="&#x1e66;" horiz-adv-x="1796" 
d="M1368 1536q-18 152 -146 236t-314 84q-204 0 -328 -96.5t-124 -243.5q0 -110 67.5 -177.5t160 -105t168.5 -57.5l208 -56q80 -21 178.5 -58t189 -100.5t149.5 -162.5t59 -243q0 -166 -86.5 -300t-252 -213t-401.5 -79q-330 0 -524 156t-212 408h256q10 -116 78.5 -191.5
t174 -112t227.5 -36.5q142 0 255 46.5t179 130t66 195.5q0 102 -57 166t-150 104t-201 70l-252 72q-240 69 -380 197t-140 335q0 172 93.5 300.5t252 200t354.5 71.5q198 0 352 -70.5t244.5 -192.5t95.5 -277h-240zM696 2572l200 -172l200 172h236v-24l-356 -300h-164
l-348 296v28h232zM740 2776q0 66 40.5 109t115.5 43q81 0 120.5 -44.5t39.5 -107.5t-41 -105.5t-119 -42.5q-75 0 -115.5 42.5t-40.5 105.5z" />
    <glyph glyph-name="uni1E68" unicode="&#x1e68;" horiz-adv-x="1796" 
d="M1368 1536q-18 152 -146 236t-314 84q-204 0 -328 -96.5t-124 -243.5q0 -110 67.5 -177.5t160 -105t168.5 -57.5l208 -56q80 -21 178.5 -58t189 -100.5t149.5 -162.5t59 -243q0 -166 -86.5 -300t-252 -213t-401.5 -79q-330 0 -524 156t-212 408h256q10 -116 78.5 -191.5
t174 -112t227.5 -36.5q142 0 255 46.5t179 130t66 195.5q0 102 -57 166t-150 104t-201 70l-252 72q-240 69 -380 197t-140 335q0 172 93.5 300.5t252 200t354.5 71.5q198 0 352 -70.5t244.5 -192.5t95.5 -277h-240zM900 -544q-69 0 -118.5 47t-49.5 113t49.5 113t118.5 47
t118.5 -47t49.5 -113t-49.5 -113t-118.5 -47zM896 2304q-69 0 -118.5 47t-49.5 113t49.5 113t118.5 47t118.5 -47t49.5 -113t-49.5 -113t-118.5 -47z" />
    <glyph glyph-name="uni0405" unicode="&#x405;" horiz-adv-x="1796" 
d="M1368 1536q-18 152 -146 236t-314 84q-204 0 -328 -96.5t-124 -243.5q0 -110 67.5 -177.5t160 -105t168.5 -57.5l208 -56q80 -21 178.5 -58t189 -100.5t149.5 -162.5t59 -243q0 -166 -86.5 -300t-252 -213t-401.5 -79q-330 0 -524 156t-212 408h256q10 -116 78.5 -191.5
t174 -112t227.5 -36.5q142 0 255 46.5t179 130t66 195.5q0 102 -57 166t-150 104t-201 70l-252 72q-240 69 -380 197t-140 335q0 172 93.5 300.5t252 200t354.5 71.5q198 0 352 -70.5t244.5 -192.5t95.5 -277h-240z" />
    <glyph glyph-name="uni01A7" unicode="&#x1a7;" horiz-adv-x="1796" 
d="M428 1536q18 152 146 236t314 84q204 0 328 -96.5t124 -243.5q0 -110 -67.5 -177.5t-160 -105t-168.5 -57.5l-208 -56q-80 -21 -178.5 -58t-189 -100.5t-149.5 -162.5t-59 -243q0 -166 86.5 -300t252 -213t401.5 -79q330 0 524 156t212 408h-256q-10 -116 -78.5 -191.5
t-174 -112t-227.5 -36.5q-142 0 -255 46.5t-179 130t-66 195.5q0 102 57 166t150 104t201 70l252 72q240 69 380 197t140 335q0 172 -93.5 300.5t-252 200t-354.5 71.5q-198 0 -352 -70.5t-244.5 -192.5t-95.5 -277h240z" />
    <glyph glyph-name="uni1E9E" unicode="&#x1e9e;" horiz-adv-x="1920" 
d="M248 0v1360q0 716 628 716q225 0 393.5 -91t306.5 -217l-456 -600q306 -18 473 -173t167 -419q0 -196 -88.5 -330.5t-244 -204t-355.5 -69.5q-93 0 -189 16t-195 52l80 220q57 -24 133 -46t175 -22q195 0 301.5 104t106.5 284q0 141 -55.5 218.5t-133 110.5t-148.5 40
t-103 7h-200v216l408 556q-66 45 -152 86.5t-212 41.5q-156 0 -241 -70.5t-118 -184t-33 -241.5v-1360h-248z" />
    <glyph glyph-name="uni0054" unicode="T" horiz-adv-x="1808" 
d="M136 1828v220h1536v-220h-644v-1828h-248v1828h-644z" />
    <glyph glyph-name="uni0162" unicode="&#x162;" horiz-adv-x="1808" 
d="M136 1828v220h1536v-220h-644v-1828h-248v1828h-644zM832 8h196l-16 -80q78 -12 143 -65.5t65 -170.5q0 -129 -106.5 -210.5t-313.5 -81.5l-8 156q93 0 154.5 29.5t61.5 98.5t-51 94t-165 34z" />
    <glyph glyph-name="uni0164" unicode="&#x164;" horiz-adv-x="1808" 
d="M136 1828v220h1536v-220h-644v-1828h-248v1828h-644zM696 2664l208 -280l208 280h224v-16l-324 -416h-216l-324 416v16h224z" />
    <glyph glyph-name="uni021A" unicode="&#x21a;" horiz-adv-x="1808" 
d="M136 1828v220h1536v-220h-644v-1828h-248v1828h-644zM1024 -128v-124q-3 -132 -42.5 -287.5t-117.5 -272.5l-200 40q51 120 87.5 261t36.5 255v128h236z" />
    <glyph glyph-name="uni1E6A" unicode="&#x1e6a;" horiz-adv-x="1808" 
d="M136 1828v220h1536v-220h-644v-1828h-248v1828h-644zM904 2304q-69 0 -118.5 47t-49.5 113t49.5 113t118.5 47t118.5 -47t49.5 -113t-49.5 -113t-118.5 -47z" />
    <glyph glyph-name="uni1E6C" unicode="&#x1e6c;" horiz-adv-x="1808" 
d="M136 1828v220h1536v-220h-644v-1828h-248v1828h-644zM904 -508q-69 0 -118.5 47t-49.5 113t49.5 113t118.5 47t118.5 -47t49.5 -113t-49.5 -113t-118.5 -47z" />
    <glyph glyph-name="uni1E6E" unicode="&#x1e6e;" horiz-adv-x="1808" 
d="M136 1828v220h1536v-220h-644v-1828h-248v1828h-644zM1372 -252v-200h-936v200h936z" />
    <glyph glyph-name="uni1E70" unicode="&#x1e70;" horiz-adv-x="1808" 
d="M136 1828v220h1536v-220h-644v-1828h-248v1828h-644zM696 -560l208 280l208 -280h224v16l-324 416h-216l-324 -416v-16h224z" />
    <glyph glyph-name="uni01AC" unicode="&#x1ac;" horiz-adv-x="1920" 
d="M1784 2048v-220h-644v-1828h-248v1828h-348q-105 0 -144.5 -70.5t-39.5 -157.5v-76h-224v120q0 180 109.5 292t298.5 112h1240z" />
    <glyph glyph-name="uni01AE" unicode="&#x1ae;" horiz-adv-x="1808" 
d="M136 1828v220h1536v-220h-644v-1992q0 -120 72 -156t168 -36h76v-220h-136q-112 0 -209.5 47t-158 138t-60.5 223v1996h-644z" />
    <glyph glyph-name="uni023E" unicode="&#x23e;" horiz-adv-x="1808" 
d="M360 -260l420 1183v905h-644v220h1044l92 260h228l-92 -260h264v-220h-342l-302 -849v-979h-248v281l-192 -541h-228zM1028 1621l74 207h-74v-207z" />
    <glyph glyph-name="uni03A4" unicode="&#x3a4;" horiz-adv-x="1808" 
d="M136 1828v220h1536v-220h-644v-1828h-248v1828h-644z" />
    <glyph glyph-name="uni0055" unicode="U" horiz-adv-x="2088" 
d="M1592 2048h248v-1356q0 -230 -109 -393t-290 -249t-397 -86t-397 86t-290 249t-109 393v1356h248v-1356q0 -160 76 -270.5t201 -168t271 -57.5t271 57.5t201 168t76 270.5v1356z" />
    <glyph glyph-name="uni01AF" unicode="&#x1af;" horiz-adv-x="2436" 
d="M2068 2172h232q0 -262 -106.5 -412.5t-353.5 -180.5v-887q0 -230 -109 -393t-290 -249t-397 -86t-397 86t-290 249t-109 393v1356h248v-1356q0 -160 76 -270.5t201 -168t271 -57.5t271 57.5t201 168t76 270.5v1356h248v-267q132 29 180 128t48 263z" />
    <glyph glyph-name="uni00D9" unicode="&#xd9;" horiz-adv-x="2088" 
d="M1592 2048h248v-1356q0 -230 -109 -393t-290 -249t-397 -86t-397 86t-290 249t-109 393v1356h248v-1356q0 -160 76 -270.5t201 -168t271 -57.5t271 57.5t201 168t76 270.5v1356zM1152 2256h-208l-312 464h276z" />
    <glyph glyph-name="uni00DA" unicode="&#xda;" horiz-adv-x="2088" 
d="M1592 2048h248v-1356q0 -230 -109 -393t-290 -249t-397 -86t-397 86t-290 249t-109 393v1356h248v-1356q0 -160 76 -270.5t201 -168t271 -57.5t271 57.5t201 168t76 270.5v1356zM936 2256l244 464h276l-312 -464h-208z" />
    <glyph glyph-name="uni00DB" unicode="&#xdb;" horiz-adv-x="2088" 
d="M1592 2048h248v-1356q0 -230 -109 -393t-290 -249t-397 -86t-397 86t-290 249t-109 393v1356h248v-1356q0 -160 76 -270.5t201 -168t271 -57.5t271 57.5t201 168t76 270.5v1356zM836 2232l208 280l208 -280h224v16l-324 416h-216l-324 -416v-16h224z" />
    <glyph glyph-name="uni00DC" unicode="&#xdc;" horiz-adv-x="2088" 
d="M1592 2048h248v-1356q0 -230 -109 -393t-290 -249t-397 -86t-397 86t-290 249t-109 393v1356h248v-1356q0 -160 76 -270.5t201 -168t271 -57.5t271 57.5t201 168t76 270.5v1356zM756 2304q-63 0 -111.5 48.5t-48.5 111.5q0 69 48.5 114.5t111.5 45.5q69 0 114.5 -45.5
t45.5 -114.5q0 -63 -45.5 -111.5t-114.5 -48.5zM1332 2304q-63 0 -111.5 48.5t-48.5 111.5q0 69 48.5 114.5t111.5 45.5q69 0 114.5 -45.5t45.5 -114.5q0 -63 -45.5 -111.5t-114.5 -48.5z" />
    <glyph glyph-name="uni0168" unicode="&#x168;" horiz-adv-x="2088" 
d="M1592 2048h248v-1356q0 -230 -109 -393t-290 -249t-397 -86t-397 86t-290 249t-109 393v1356h248v-1356q0 -160 76 -270.5t201 -168t271 -57.5t271 57.5t201 168t76 270.5v1356zM736 2232l-184 8q0 153 87.5 250.5t216.5 97.5q76 0 130.5 -32t108 -64t125.5 -32
q57 0 96.5 44.5t39.5 107.5l180 -16q0 -156 -87.5 -248t-216.5 -92q-69 0 -114 19.5t-80 44.5t-74 44.5t-96 19.5t-94.5 -44.5t-37.5 -107.5z" />
    <glyph glyph-name="uni016A" unicode="&#x16a;" horiz-adv-x="2088" 
d="M1592 2048h248v-1356q0 -230 -109 -393t-290 -249t-397 -86t-397 86t-290 249t-109 393v1356h248v-1356q0 -160 76 -270.5t201 -168t271 -57.5t271 57.5t201 168t76 270.5v1356zM1512 2560v-200h-936v200h936z" />
    <glyph glyph-name="uni016C" unicode="&#x16c;" horiz-adv-x="2088" 
d="M1592 2048h248v-1356q0 -230 -109 -393t-290 -249t-397 -86t-397 86t-290 249t-109 393v1356h248v-1356q0 -160 76 -270.5t201 -168t271 -57.5t271 57.5t201 168t76 270.5v1356zM1240 2560h220q0 -162 -112 -265t-304 -103q-189 0 -300.5 103t-111.5 265h220
q0 -78 43.5 -137t148.5 -59t150.5 59t45.5 137z" />
    <glyph glyph-name="uni016E" unicode="&#x16e;" horiz-adv-x="2088" 
d="M1592 2048h248v-1356q0 -230 -109 -393t-290 -249t-397 -86t-397 86t-290 249t-109 393v1356h248v-1356q0 -160 76 -270.5t201 -168t271 -57.5t271 57.5t201 168t76 270.5v1356zM1044 2184q-91 0 -166.5 42t-120.5 113t-45 157t45 157t120.5 113t166.5 42q92 0 167 -42
t120 -113t45 -157t-45 -157t-120 -113t-167 -42zM1044 2336q68 0 116 46.5t48 113.5t-48 113.5t-116 46.5t-116 -46.5t-48 -113.5t48 -113.5t116 -46.5z" />
    <glyph glyph-name="uni0170" unicode="&#x170;" horiz-adv-x="2088" 
d="M1592 2048h248v-1356q0 -230 -109 -393t-290 -249t-397 -86t-397 86t-290 249t-109 393v1356h248v-1356q0 -160 76 -270.5t201 -168t271 -57.5t271 57.5t201 168t76 270.5v1356zM1104 2216l308 424h264l-364 -424h-208zM692 2216l224 424h260l-296 -424h-188z" />
    <glyph glyph-name="uni0172" unicode="&#x172;" horiz-adv-x="2088" 
d="M1592 2048h248v-1356q0 -230 -109 -393t-290 -249t-397 -86t-397 86t-290 249t-109 393v1356h248v-1356q0 -160 76 -270.5t201 -168t271 -57.5t271 57.5t201 168t76 270.5v1356zM1052 -596q-123 0 -203.5 67.5t-80.5 196.5q0 111 83 220.5t281 199.5l108 -84
q-90 -66 -161 -140t-71 -164q0 -45 22 -70.5t82 -25.5q45 0 80 12t56 24l16 -176q-33 -21 -86.5 -40.5t-125.5 -19.5z" />
    <glyph glyph-name="uni01D3" unicode="&#x1d3;" horiz-adv-x="2088" 
d="M1592 2048h248v-1356q0 -230 -109 -393t-290 -249t-397 -86t-397 86t-290 249t-109 393v1356h248v-1356q0 -160 76 -270.5t201 -168t271 -57.5t271 57.5t201 168t76 270.5v1356zM836 2664l208 -280l208 280h224v-16l-324 -416h-216l-324 416v16h224z" />
    <glyph glyph-name="uni01D5" unicode="&#x1d5;" horiz-adv-x="2088" 
d="M1592 2048h248v-1356q0 -230 -109 -393t-290 -249t-397 -86t-397 86t-290 249t-109 393v1356h248v-1356q0 -160 76 -270.5t201 -168t271 -57.5t271 57.5t201 168t76 270.5v1356zM756 2304q-63 0 -111.5 48.5t-48.5 111.5q0 69 48.5 114.5t111.5 45.5q69 0 114.5 -45.5
t45.5 -114.5q0 -63 -45.5 -111.5t-114.5 -48.5zM1332 2304q-63 0 -111.5 48.5t-48.5 111.5q0 69 48.5 114.5t111.5 45.5q69 0 114.5 -45.5t45.5 -114.5q0 -63 -45.5 -111.5t-114.5 -48.5zM1512 3072v-200h-936v200h936z" />
    <glyph glyph-name="uni01D7" unicode="&#x1d7;" horiz-adv-x="2088" 
d="M1592 2048h248v-1356q0 -230 -109 -393t-290 -249t-397 -86t-397 86t-290 249t-109 393v1356h248v-1356q0 -160 76 -270.5t201 -168t271 -57.5t271 57.5t201 168t76 270.5v1356zM756 2208q-63 0 -111.5 48.5t-48.5 111.5q0 69 48.5 114.5t111.5 45.5q69 0 114.5 -45.5
t45.5 -114.5q0 -63 -45.5 -111.5t-114.5 -48.5zM1332 2208q-63 0 -111.5 48.5t-48.5 111.5q0 69 48.5 114.5t111.5 45.5q69 0 114.5 -45.5t45.5 -114.5q0 -63 -45.5 -111.5t-114.5 -48.5zM940 2672l292 304h276l-360 -304h-208z" />
    <glyph glyph-name="uni01D9" unicode="&#x1d9;" horiz-adv-x="2088" 
d="M1592 2048h248v-1356q0 -230 -109 -393t-290 -249t-397 -86t-397 86t-290 249t-109 393v1356h248v-1356q0 -160 76 -270.5t201 -168t271 -57.5t271 57.5t201 168t76 270.5v1356zM840 2876l200 -172l200 172h236v-24l-352 -300h-168l-348 296v28h232zM564 2417
q0 65 40.5 110t115.5 45q78 0 119 -45t41 -111q0 -63 -40.5 -105.5t-117.5 -42.5q-79 0 -118.5 44t-39.5 105zM1208 2415q0 64 41 108.5t119 44.5q75 0 115.5 -44.5t40.5 -107.5q0 -60 -39 -106t-117 -46t-119 44.5t-41 106.5z" />
    <glyph glyph-name="uni01DB" unicode="&#x1db;" horiz-adv-x="2088" 
d="M1592 2048h248v-1356q0 -230 -109 -393t-290 -249t-397 -86t-397 86t-290 249t-109 393v1356h248v-1356q0 -160 76 -270.5t201 -168t271 -57.5t271 57.5t201 168t76 270.5v1356zM564 2417q0 65 40.5 110t115.5 45q78 0 119 -45t41 -111q0 -63 -40.5 -105.5t-117.5 -42.5
q-79 0 -118.5 44t-39.5 105zM1208 2415q0 64 41 108.5t119 44.5q75 0 115.5 -44.5t40.5 -107.5q0 -60 -39 -106t-117 -46t-119 44.5t-41 106.5zM972 2808l176 -312h-176l-252 312h252z" />
    <glyph glyph-name="uni0214" unicode="&#x214;" horiz-adv-x="2088" 
d="M1592 2048h248v-1356q0 -230 -109 -393t-290 -249t-397 -86t-397 86t-290 249t-109 393v1356h248v-1356q0 -160 76 -270.5t201 -168t271 -57.5t271 57.5t201 168t76 270.5v1356zM1004 2248h-248l-420 364h332zM1368 2248h-220l-336 364h304z" />
    <glyph glyph-name="uni0216" unicode="&#x216;" horiz-adv-x="2088" 
d="M1592 2048h248v-1356q0 -230 -109 -393t-290 -249t-397 -86t-397 86t-290 249t-109 393v1356h248v-1356q0 -160 76 -270.5t201 -168t271 -57.5t271 57.5t201 168t76 270.5v1356zM632 2288q0 162 112 267t304 105t302 -105t110 -267h-220q0 81 -45 140.5t-147 59.5
q-108 0 -152 -61t-44 -139h-220z" />
    <glyph glyph-name="uni1E72" unicode="&#x1e72;" horiz-adv-x="2088" 
d="M1592 2048h248v-1356q0 -230 -109 -393t-290 -249t-397 -86t-397 86t-290 249t-109 393v1356h248v-1356q0 -160 76 -270.5t201 -168t271 -57.5t271 57.5t201 168t76 270.5v1356zM752 -536q-69 0 -118.5 47t-49.5 113t49.5 113t118.5 47t118.5 -47t49.5 -113t-49.5 -113
t-118.5 -47zM1344 -536q-69 0 -118.5 47t-49.5 113t49.5 113t118.5 47t118.5 -47t49.5 -113t-49.5 -113t-118.5 -47z" />
    <glyph glyph-name="uni1E74" unicode="&#x1e74;" horiz-adv-x="2088" 
d="M1592 2048h248v-1356q0 -230 -109 -393t-290 -249t-397 -86t-397 86t-290 249t-109 393v1356h248v-1356q0 -160 76 -270.5t201 -168t271 -57.5t271 57.5t201 168t76 270.5v1356zM816 -536l-184 8q0 153 87.5 250.5t216.5 97.5q76 0 130.5 -32t108 -64t125.5 -32
q57 0 96.5 44.5t39.5 107.5l180 -16q0 -156 -87.5 -248t-216.5 -92q-69 0 -114 19.5t-80 44.5t-74 44.5t-96 19.5t-94.5 -44.5t-37.5 -107.5z" />
    <glyph glyph-name="uni1E76" unicode="&#x1e76;" horiz-adv-x="2088" 
d="M1592 2048h248v-1356q0 -230 -109 -393t-290 -249t-397 -86t-397 86t-290 249t-109 393v1356h248v-1356q0 -160 76 -270.5t201 -168t271 -57.5t271 57.5t201 168t76 270.5v1356zM836 -588l208 280l208 -280h224v16l-324 416h-216l-324 -416v-16h224z" />
    <glyph glyph-name="uni1E78" unicode="&#x1e78;" horiz-adv-x="2088" 
d="M1592 2048h248v-1356q0 -230 -109 -393t-290 -249t-397 -86t-397 86t-290 249t-109 393v1356h248v-1356q0 -160 76 -270.5t201 -168t271 -57.5t271 57.5t201 168t76 270.5v1356zM736 2232l-184 8q0 153 87.5 250.5t216.5 97.5q76 0 130.5 -32t108 -64t125.5 -32
q57 0 96.5 44.5t39.5 107.5l180 -16q0 -156 -87.5 -248t-216.5 -92q-69 0 -114 19.5t-80 44.5t-74 44.5t-96 19.5t-94.5 -44.5t-37.5 -107.5zM912 2672l292 304h276l-360 -304h-208z" />
    <glyph glyph-name="uni1E7A" unicode="&#x1e7a;" horiz-adv-x="2088" 
d="M1592 2048h248v-1356q0 -230 -109 -393t-290 -249t-397 -86t-397 86t-290 249t-109 393v1356h248v-1356q0 -160 76 -270.5t201 -168t271 -57.5t271 57.5t201 168t76 270.5v1356zM1512 2508v-208h-936v208h936zM1208 2789q0 65 41 108t119 43t117 -44.5t39 -107.5
t-40.5 -105.5t-115.5 -42.5q-78 0 -119 42.5t-41 106.5zM564 2792q0 60 39.5 106t118.5 46q77 0 117.5 -44.5t40.5 -107.5t-41 -105.5t-119 -42.5q-75 0 -115.5 42.5t-40.5 105.5z" />
    <glyph glyph-name="uni1EE4" unicode="&#x1ee4;" horiz-adv-x="2088" 
d="M1592 2048h248v-1356q0 -230 -109 -393t-290 -249t-397 -86t-397 86t-290 249t-109 393v1356h248v-1356q0 -160 76 -270.5t201 -168t271 -57.5t271 57.5t201 168t76 270.5v1356zM1044 -536q-69 0 -118.5 47t-49.5 113t49.5 113t118.5 47t118.5 -47t49.5 -113t-49.5 -113
t-118.5 -47z" />
    <glyph glyph-name="uni1EE6" unicode="&#x1ee6;" horiz-adv-x="2088" 
d="M1592 2048h248v-1356q0 -230 -109 -393t-290 -249t-397 -86t-397 86t-290 249t-109 393v1356h248v-1356q0 -160 76 -270.5t201 -168t271 -57.5t271 57.5t201 168t76 270.5v1356zM1148 2256h-196v216q105 6 148.5 29t43.5 71q0 54 -63 79t-153 25l8 152q207 0 313.5 -72
t106.5 -192q0 -102 -65 -149t-143 -59v-100z" />
    <glyph glyph-name="uni1EE8" unicode="&#x1ee8;" horiz-adv-x="2436" 
d="M2068 2172h232q0 -262 -106.5 -412.5t-353.5 -180.5v-887q0 -230 -109 -393t-290 -249t-397 -86t-397 86t-290 249t-109 393v1356h248v-1356q0 -160 76 -270.5t201 -168t271 -57.5t271 57.5t201 168t76 270.5v1356h248v-267q132 29 180 128t48 263zM936 2256l244 464h276
l-312 -464h-208z" />
    <glyph glyph-name="uni1EEA" unicode="&#x1eea;" horiz-adv-x="2436" 
d="M2068 2172h232q0 -262 -106.5 -412.5t-353.5 -180.5v-887q0 -230 -109 -393t-290 -249t-397 -86t-397 86t-290 249t-109 393v1356h248v-1356q0 -160 76 -270.5t201 -168t271 -57.5t271 57.5t201 168t76 270.5v1356h248v-267q132 29 180 128t48 263zM1152 2256h-208
l-312 464h276z" />
    <glyph glyph-name="uni1EEC" unicode="&#x1eec;" horiz-adv-x="2436" 
d="M2068 2172h232q0 -262 -106.5 -412.5t-353.5 -180.5v-887q0 -230 -109 -393t-290 -249t-397 -86t-397 86t-290 249t-109 393v1356h248v-1356q0 -160 76 -270.5t201 -168t271 -57.5t271 57.5t201 168t76 270.5v1356h248v-267q132 29 180 128t48 263zM1148 2256h-196v216
q105 6 148.5 29t43.5 71q0 54 -63 79t-153 25l8 152q207 0 313.5 -72t106.5 -192q0 -102 -65 -149t-143 -59v-100z" />
    <glyph glyph-name="uni1EEE" unicode="&#x1eee;" horiz-adv-x="2436" 
d="M2068 2172h232q0 -262 -106.5 -412.5t-353.5 -180.5v-887q0 -230 -109 -393t-290 -249t-397 -86t-397 86t-290 249t-109 393v1356h248v-1356q0 -160 76 -270.5t201 -168t271 -57.5t271 57.5t201 168t76 270.5v1356h248v-267q132 29 180 128t48 263zM736 2232l-184 8
q0 153 87.5 250.5t216.5 97.5q76 0 130.5 -32t108 -64t125.5 -32q57 0 96.5 44.5t39.5 107.5l180 -16q0 -156 -87.5 -248t-216.5 -92q-69 0 -114 19.5t-80 44.5t-74 44.5t-96 19.5t-94.5 -44.5t-37.5 -107.5z" />
    <glyph glyph-name="uni1EF0" unicode="&#x1ef0;" horiz-adv-x="2436" 
d="M2068 2172h232q0 -262 -106.5 -412.5t-353.5 -180.5v-887q0 -230 -109 -393t-290 -249t-397 -86t-397 86t-290 249t-109 393v1356h248v-1356q0 -160 76 -270.5t201 -168t271 -57.5t271 57.5t201 168t76 270.5v1356h248v-267q132 29 180 128t48 263zM1044 -536
q-69 0 -118.5 47t-49.5 113t49.5 113t118.5 47t118.5 -47t49.5 -113t-49.5 -113t-118.5 -47z" />
    <glyph glyph-name="uni0244" unicode="&#x244;" horiz-adv-x="2088" 
d="M2096 1188v-164h-256v-332q0 -230 -109 -393t-290 -249t-397 -86t-397 86t-290 249t-109 393v332h-256v164h256v860h248v-860h1096v860h248v-860h256zM1592 1024h-1096v-332q0 -160 76 -270.5t201 -168t271 -57.5t271 57.5t201 168t76 270.5v332z" />
    <glyph glyph-name="uni0056" unicode="V" horiz-adv-x="1904" 
d="M332 2048l608 -1724h24l608 1724h260l-752 -2048h-256l-752 2048h260z" />
    <glyph glyph-name="uni1E7C" unicode="&#x1e7c;" horiz-adv-x="1904" 
d="M332 2048l608 -1724h24l608 1724h260l-752 -2048h-256l-752 2048h260zM644 2232l-184 8q0 153 87.5 250.5t216.5 97.5q76 0 130.5 -32t108 -64t125.5 -32q57 0 96.5 44.5t39.5 107.5l180 -16q0 -156 -87.5 -248t-216.5 -92q-69 0 -114 19.5t-80 44.5t-74 44.5t-96 19.5
t-94.5 -44.5t-37.5 -107.5z" />
    <glyph glyph-name="uni1E7E" unicode="&#x1e7e;" horiz-adv-x="1904" 
d="M332 2048l608 -1724h24l608 1724h260l-752 -2048h-256l-752 2048h260zM952 -508q-69 0 -118.5 47t-49.5 113t49.5 113t118.5 47t118.5 -47t49.5 -113t-49.5 -113t-118.5 -47z" />
    <glyph glyph-name="uni0057" unicode="W" horiz-adv-x="2672" 
d="M620 0l-560 2048h252l428 -1668h20l436 1668h280l436 -1668h20l428 1668h252l-560 -2048h-256l-452 1632h-16l-452 -1632h-256z" />
    <glyph glyph-name="uni0174" unicode="&#x174;" horiz-adv-x="2672" 
d="M620 0l-560 2048h252l428 -1668h20l436 1668h280l436 -1668h20l428 1668h252l-560 -2048h-256l-452 1632h-16l-452 -1632h-256zM1128 2232l208 280l208 -280h224v16l-324 416h-216l-324 -416v-16h224z" />
    <glyph glyph-name="uni1E80" unicode="&#x1e80;" horiz-adv-x="2672" 
d="M620 0l-560 2048h252l428 -1668h20l436 1668h280l436 -1668h20l428 1668h252l-560 -2048h-256l-452 1632h-16l-452 -1632h-256zM1444 2256h-208l-312 464h276z" />
    <glyph glyph-name="uni1E82" unicode="&#x1e82;" horiz-adv-x="2672" 
d="M620 0l-560 2048h252l428 -1668h20l436 1668h280l436 -1668h20l428 1668h252l-560 -2048h-256l-452 1632h-16l-452 -1632h-256zM1228 2256l244 464h276l-312 -464h-208z" />
    <glyph glyph-name="uni1E84" unicode="&#x1e84;" horiz-adv-x="2672" 
d="M620 0l-560 2048h252l428 -1668h20l436 1668h280l436 -1668h20l428 1668h252l-560 -2048h-256l-452 1632h-16l-452 -1632h-256zM1048 2304q-63 0 -111.5 48.5t-48.5 111.5q0 69 48.5 114.5t111.5 45.5q69 0 114.5 -45.5t45.5 -114.5q0 -63 -45.5 -111.5t-114.5 -48.5z
M1624 2304q-63 0 -111.5 48.5t-48.5 111.5q0 69 48.5 114.5t111.5 45.5q69 0 114.5 -45.5t45.5 -114.5q0 -63 -45.5 -111.5t-114.5 -48.5z" />
    <glyph glyph-name="uni1E86" unicode="&#x1e86;" horiz-adv-x="2672" 
d="M620 0l-560 2048h252l428 -1668h20l436 1668h280l436 -1668h20l428 1668h252l-560 -2048h-256l-452 1632h-16l-452 -1632h-256zM1336 2304q-69 0 -118.5 47t-49.5 113t49.5 113t118.5 47t118.5 -47t49.5 -113t-49.5 -113t-118.5 -47z" />
    <glyph glyph-name="uni1E88" unicode="&#x1e88;" horiz-adv-x="2672" 
d="M620 0l-560 2048h252l428 -1668h20l436 1668h280l436 -1668h20l428 1668h252l-560 -2048h-256l-452 1632h-16l-452 -1632h-256zM1336 -492q-69 0 -118.5 47t-49.5 113t49.5 113t118.5 47t118.5 -47t49.5 -113t-49.5 -113t-118.5 -47z" />
    <glyph glyph-name="uni0058" unicode="X" horiz-adv-x="1808" 
d="M368 2048l528 -852h16l528 852h292l-644 -1024l644 -1024h-292l-528 836h-16l-528 -836h-292l660 1024l-660 1024h292z" />
    <glyph glyph-name="uni1E8A" unicode="&#x1e8a;" horiz-adv-x="1808" 
d="M368 2048l528 -852h16l528 852h292l-644 -1024l644 -1024h-292l-528 836h-16l-528 -836h-292l660 1024l-660 1024h292zM904 2304q-69 0 -118.5 47t-49.5 113t49.5 113t118.5 47t118.5 -47t49.5 -113t-49.5 -113t-118.5 -47z" />
    <glyph glyph-name="uni1E8C" unicode="&#x1e8c;" horiz-adv-x="1808" 
d="M368 2048l528 -852h16l528 852h292l-644 -1024l644 -1024h-292l-528 836h-16l-528 -836h-292l660 1024l-660 1024h292zM616 2304q-63 0 -111.5 48.5t-48.5 111.5q0 69 48.5 114.5t111.5 45.5q69 0 114.5 -45.5t45.5 -114.5q0 -63 -45.5 -111.5t-114.5 -48.5zM1192 2304
q-63 0 -111.5 48.5t-48.5 111.5q0 69 48.5 114.5t111.5 45.5q69 0 114.5 -45.5t45.5 -114.5q0 -63 -45.5 -111.5t-114.5 -48.5z" />
    <glyph glyph-name="uni04B2" unicode="&#x4b2;" horiz-adv-x="1808" 
d="M368 2048l528 -852h16l528 852h292l-644 -1024l644 -1024h-292l-528 836h-16l-528 -836h-292l660 1024l-660 1024h292zM1808 220v-716h-236v716h236z" />
    <glyph glyph-name="uni04FC" unicode="&#x4fc;" horiz-adv-x="1808" 
d="M368 2048l528 -852h16l528 852h292l-644 -1024l644 -1024h-292l-528 836h-16l-528 -836h-292l660 1024l-660 1024h292zM1568 216h236v-340q0 -210 -109 -343t-319 -133q-42 0 -77.5 4t-74.5 16l20 224q18 -9 66 -14.5t66 -5.5q81 0 136.5 66t55.5 186v340z" />
    <glyph glyph-name="uni03A7" unicode="&#x3a7;" horiz-adv-x="1808" 
d="M368 2048l528 -852h16l528 852h292l-644 -1024l644 -1024h-292l-528 836h-16l-528 -836h-292l660 1024l-660 1024h292z" />
    <glyph glyph-name="uni0059" unicode="Y" horiz-adv-x="1872" 
d="M72 2048h284l568 -956h24l568 956h284l-740 -1204v-844h-248v844z" />
    <glyph glyph-name="uni01B3" unicode="&#x1b3;" horiz-adv-x="1988" 
d="M1572 1672l-508 -828v-844h-248v844l-740 1204h284l568 -956h24l404 680l44 72q99 165 242 211t290 -23l-64 -200q-72 30 -138.5 14t-117.5 -106z" />
    <glyph glyph-name="uni00DD" unicode="&#xdd;" horiz-adv-x="1872" 
d="M72 2048h284l568 -956h24l568 956h284l-740 -1204v-844h-248v844zM828 2256l244 464h276l-312 -464h-208z" />
    <glyph glyph-name="uni0176" unicode="&#x176;" horiz-adv-x="1872" 
d="M72 2048h284l568 -956h24l568 956h284l-740 -1204v-844h-248v844zM728 2232l208 280l208 -280h224v16l-324 416h-216l-324 -416v-16h224z" />
    <glyph glyph-name="uni0178" unicode="&#x178;" horiz-adv-x="1872" 
d="M72 2048h284l568 -956h24l568 956h284l-740 -1204v-844h-248v844zM648 2304q-63 0 -111.5 48.5t-48.5 111.5q0 69 48.5 114.5t111.5 45.5q69 0 114.5 -45.5t45.5 -114.5q0 -63 -45.5 -111.5t-114.5 -48.5zM1224 2304q-63 0 -111.5 48.5t-48.5 111.5q0 69 48.5 114.5
t111.5 45.5q69 0 114.5 -45.5t45.5 -114.5q0 -63 -45.5 -111.5t-114.5 -48.5z" />
    <glyph glyph-name="uni0232" unicode="&#x232;" horiz-adv-x="1872" 
d="M72 2048h284l568 -956h24l568 956h284l-740 -1204v-844h-248v844zM1404 2560v-200h-936v200h936z" />
    <glyph glyph-name="uni1E8E" unicode="&#x1e8e;" horiz-adv-x="1872" 
d="M72 2048h284l568 -956h24l568 956h284l-740 -1204v-844h-248v844zM936 2304q-69 0 -118.5 47t-49.5 113t49.5 113t118.5 47t118.5 -47t49.5 -113t-49.5 -113t-118.5 -47z" />
    <glyph glyph-name="uni1EF2" unicode="&#x1ef2;" horiz-adv-x="1872" 
d="M72 2048h284l568 -956h24l568 956h284l-740 -1204v-844h-248v844zM1044 2256h-208l-312 464h276z" />
    <glyph glyph-name="uni1EF4" unicode="&#x1ef4;" horiz-adv-x="1872" 
d="M72 2048h284l568 -956h24l568 956h284l-740 -1204v-844h-248v844zM936 -508q-69 0 -118.5 47t-49.5 113t49.5 113t118.5 47t118.5 -47t49.5 -113t-49.5 -113t-118.5 -47z" />
    <glyph glyph-name="uni1EF6" unicode="&#x1ef6;" horiz-adv-x="1872" 
d="M72 2048h284l568 -956h24l568 956h284l-740 -1204v-844h-248v844zM1040 2256h-196v216q105 6 148.5 29t43.5 71q0 54 -63 79t-153 25l8 152q207 0 313.5 -72t106.5 -192q0 -102 -65 -149t-143 -59v-100z" />
    <glyph glyph-name="uni1EF8" unicode="&#x1ef8;" horiz-adv-x="1872" 
d="M72 2048h284l568 -956h24l568 956h284l-740 -1204v-844h-248v844zM628 2232l-184 8q0 153 87.5 250.5t216.5 97.5q76 0 130.5 -32t108 -64t125.5 -32q57 0 96.5 44.5t39.5 107.5l180 -16q0 -156 -87.5 -248t-216.5 -92q-69 0 -114 19.5t-80 44.5t-74 44.5t-96 19.5
t-94.5 -44.5t-37.5 -107.5z" />
    <glyph glyph-name="uni024E" unicode="&#x24e;" horiz-adv-x="1880" 
d="M1872 1628v-164h-431l-381 -620v-844h-248v844l-381 620h-423v164h322l-258 420h284l250 -420h660l250 420h284l-258 -420h330zM703 1464l221 -372h24l221 372h-466z" />
    <glyph glyph-name="uni03A5" unicode="&#x3a5;" horiz-adv-x="1872" 
d="M72 2048h284l568 -956h24l568 956h284l-740 -1204v-844h-248v844z" />
    <glyph glyph-name="uni038E" unicode="&#x38e;" horiz-adv-x="2300" 
d="M492 2048h284l568 -956h24l568 956h284l-740 -1204v-844h-248v844zM72 1708l68 468h256l-160 -468h-164z" />
    <glyph glyph-name="uni03AB" unicode="&#x3ab;" horiz-adv-x="1872" 
d="M72 2048h284l568 -956h24l568 956h284l-740 -1204v-844h-248v844zM648 2304q-63 0 -111.5 48.5t-48.5 111.5q0 69 48.5 114.5t111.5 45.5q69 0 114.5 -45.5t45.5 -114.5q0 -63 -45.5 -111.5t-114.5 -48.5zM1224 2304q-63 0 -111.5 48.5t-48.5 111.5q0 69 48.5 114.5
t111.5 45.5q69 0 114.5 -45.5t45.5 -114.5q0 -63 -45.5 -111.5t-114.5 -48.5z" />
    <glyph glyph-name="uni1F59" unicode="&#x1f59;" horiz-adv-x="2296" 
d="M488 2048h284l568 -956h24l568 956h284l-740 -1204v-844h-248v844zM76 1936v112h248v-104q0 -99 27.5 -172t84.5 -136l-108 -84q-120 66 -186 165t-66 219z" />
    <glyph glyph-name="uni1F5B" unicode="&#x1f5b;" horiz-adv-x="2724" 
d="M916 2048h284l568 -956h24l568 956h284l-740 -1204v-844h-248v844zM76 1936v112h248v-104q0 -99 27.5 -172t84.5 -136l-108 -84q-120 66 -186 165t-66 219zM860 1604v-20h-128l-316 436v28h292z" />
    <glyph glyph-name="uni1F5D" unicode="&#x1f5d;" horiz-adv-x="2872" 
d="M1064 2048h284l568 -956h24l568 956h284l-740 -1204v-844h-248v844zM72 1936v112h248v-104q0 -99 29 -172t83 -136l-108 -84q-120 66 -186 165t-66 219zM484 1584v20l152 444h292v-28l-316 -436h-128z" />
    <glyph glyph-name="uni1F5F" unicode="&#x1f5f;" horiz-adv-x="2676" 
d="M868 2048h284l568 -956h24l568 956h284l-740 -1204v-844h-248v844zM716 2372l120 -36q0 -99 -65 -173.5t-167 -74.5q-74 0 -119 25t-85 50t-100 25q-45 0 -76.5 -34.5t-31.5 -85.5l-120 32q0 99 63 177.5t165 78.5q62 0 108.5 -26t92 -52t103.5 -26q45 0 78.5 34.5
t33.5 85.5zM364 1924v96h208v-100q0 -135 80 -244l-124 -68q-84 60 -124 149t-40 167z" />
    <glyph glyph-name="uni1FE8" unicode="&#x1fe8;" horiz-adv-x="1872" 
d="M72 2048h284l568 -956h24l568 956h284l-740 -1204v-844h-248v844zM1132 2560h220q0 -162 -112 -265t-304 -103q-189 0 -300.5 103t-111.5 265h220q0 -78 43.5 -137t148.5 -59t150.5 59t45.5 137z" />
    <glyph glyph-name="uni1FE9" unicode="&#x1fe9;" horiz-adv-x="1872" 
d="M72 2048h284l568 -956h24l568 956h284l-740 -1204v-844h-248v844zM1404 2560v-200h-936v200h936z" />
    <glyph glyph-name="uni1FEA" unicode="&#x1fea;" horiz-adv-x="2360" 
d="M552 2048h284l568 -956h24l568 956h284l-740 -1204v-844h-248v844zM520 1580h-128l-316 440v28h288l156 -444v-24z" />
    <glyph glyph-name="uni1FEB" unicode="&#x1feb;" horiz-adv-x="2332" 
d="M524 2048h284l568 -956h24l568 956h284l-740 -1204v-844h-248v844zM-36 1604l152 444h292v-28l-316 -440h-128v24z" />
    <glyph glyph-name="uni005A" unicode="Z" horiz-adv-x="1760" 
d="M180 0v180l1104 1648h-1116v220h1412v-180l-1104 -1648h1116v-220h-1412z" />
    <glyph glyph-name="uni0179" unicode="&#x179;" horiz-adv-x="1760" 
d="M180 0v180l1104 1648h-1116v220h1412v-180l-1104 -1648h1116v-220h-1412zM772 2256l244 464h276l-312 -464h-208z" />
    <glyph glyph-name="uni017B" unicode="&#x17b;" horiz-adv-x="1760" 
d="M180 0v180l1104 1648h-1116v220h1412v-180l-1104 -1648h1116v-220h-1412zM880 2304q-69 0 -118.5 47t-49.5 113t49.5 113t118.5 47t118.5 -47t49.5 -113t-49.5 -113t-118.5 -47z" />
    <glyph glyph-name="uni017D" unicode="&#x17d;" horiz-adv-x="1760" 
d="M180 0v180l1104 1648h-1116v220h1412v-180l-1104 -1648h1116v-220h-1412zM672 2664l208 -280l208 280h224v-16l-324 -416h-216l-324 416v16h224z" />
    <glyph glyph-name="uni1E90" unicode="&#x1e90;" horiz-adv-x="1760" 
d="M180 0v180l1104 1648h-1116v220h1412v-180l-1104 -1648h1116v-220h-1412zM672 2232l208 280l208 -280h224v16l-324 416h-216l-324 -416v-16h224z" />
    <glyph glyph-name="uni1E92" unicode="&#x1e92;" horiz-adv-x="1760" 
d="M180 0v180l1104 1648h-1116v220h1412v-180l-1104 -1648h1116v-220h-1412zM872 -508q-69 0 -118.5 47t-49.5 113t49.5 113t118.5 47t118.5 -47t49.5 -113t-49.5 -113t-118.5 -47z" />
    <glyph glyph-name="uni1E94" unicode="&#x1e94;" horiz-adv-x="1760" 
d="M180 0v180l1104 1648h-1116v220h1412v-180l-1104 -1648h1116v-220h-1412zM1340 -252v-200h-936v200h936z" />
    <glyph glyph-name="uni0224" unicode="&#x224;" horiz-adv-x="1760" 
d="M1200 0h-1020v180l1104 1648h-1116v220h1412v-180l-1104 -1648h724q189 0 298.5 -112t109.5 -292v-120h-224v76q0 87 -39.5 157.5t-144.5 70.5z" />
    <glyph glyph-name="uni01B5" unicode="&#x1b5;" horiz-adv-x="1760" 
d="M180 0v180l1104 1648h-1116v220h1412v-180l-1104 -1648h1116v-220h-1412zM460 964v184h880v-184h-880z" />
    <glyph glyph-name="uni0396" unicode="&#x396;" horiz-adv-x="1760" 
d="M180 0v180l1104 1648h-1116v220h1412v-180l-1104 -1648h1116v-220h-1412z" />
    <glyph glyph-name="uni2C7F" unicode="&#x2c7f;" horiz-adv-x="1760" 
d="M1388 -600q-125 0 -226.5 60.5t-194.5 150t-192 179t-217 150t-270 60.5h-108v180l1104 1648h-1116v220h1412v-180l-1112 -1660q154 -28 270 -94t207 -148t169 -158t154 -126t164 -50q57 0 101 7.5t83 16.5v-220q-33 -15 -96 -25.5t-132 -10.5z" />
    <glyph glyph-name="uni0061" unicode="a" horiz-adv-x="1588" 
d="M668 -36q-146 0 -265 55.5t-189 161t-70 255.5q0 132 52 214.5t139 129.5t192.5 70.5t212.5 37.5q140 18 227.5 27.5t128 32.5t40.5 80v8q0 148 -80.5 230t-243.5 82q-169 0 -265 -74t-135 -158l-224 80q60 140 160.5 218.5t220 110t235.5 31.5q74 0 170.5 -17.5
t187 -71.5t150.5 -163t60 -292v-1012h-236v208h-12q-24 -50 -80 -107t-149 -97t-227 -40zM704 176q140 0 236.5 55t146 142t49.5 183v216q-15 -18 -65.5 -32.5t-116 -25t-127 -18t-99.5 -12.5q-92 -12 -171.5 -38.5t-128 -79t-48.5 -142.5q0 -123 91.5 -185.5t232.5 -62.5z
" />
    <glyph glyph-name="uni00E4" unicode="&#xe4;" horiz-adv-x="1588" 
d="M668 -36q-146 0 -265 55.5t-189 161t-70 255.5q0 132 52 214.5t139 129.5t192.5 70.5t212.5 37.5q140 18 227.5 27.5t128 32.5t40.5 80v8q0 148 -80.5 230t-243.5 82q-169 0 -265 -74t-135 -158l-224 80q60 140 160.5 218.5t220 110t235.5 31.5q74 0 170.5 -17.5
t187 -71.5t150.5 -163t60 -292v-1012h-236v208h-12q-24 -50 -80 -107t-149 -97t-227 -40zM704 176q140 0 236.5 55t146 142t49.5 183v216q-15 -18 -65.5 -32.5t-116 -25t-127 -18t-99.5 -12.5q-92 -12 -171.5 -38.5t-128 -79t-48.5 -142.5q0 -123 91.5 -185.5t232.5 -62.5z
M532 1792q-63 0 -111.5 48.5t-48.5 111.5q0 69 48.5 114.5t111.5 45.5q69 0 114.5 -45.5t45.5 -114.5q0 -63 -45.5 -111.5t-114.5 -48.5zM1108 1792q-63 0 -111.5 48.5t-48.5 111.5q0 69 48.5 114.5t111.5 45.5q69 0 114.5 -45.5t45.5 -114.5q0 -63 -45.5 -111.5
t-114.5 -48.5z" />
    <glyph glyph-name="uni00E3" unicode="&#xe3;" horiz-adv-x="1588" 
d="M668 -36q-146 0 -265 55.5t-189 161t-70 255.5q0 132 52 214.5t139 129.5t192.5 70.5t212.5 37.5q140 18 227.5 27.5t128 32.5t40.5 80v8q0 148 -80.5 230t-243.5 82q-169 0 -265 -74t-135 -158l-224 80q60 140 160.5 218.5t220 110t235.5 31.5q74 0 170.5 -17.5
t187 -71.5t150.5 -163t60 -292v-1012h-236v208h-12q-24 -50 -80 -107t-149 -97t-227 -40zM704 176q140 0 236.5 55t146 142t49.5 183v216q-15 -18 -65.5 -32.5t-116 -25t-127 -18t-99.5 -12.5q-92 -12 -171.5 -38.5t-128 -79t-48.5 -142.5q0 -123 91.5 -185.5t232.5 -62.5z
M512 1720l-184 8q0 153 87.5 250.5t216.5 97.5q76 0 130.5 -32t108 -64t125.5 -32q57 0 96.5 44.5t39.5 107.5l180 -16q0 -156 -87.5 -248t-216.5 -92q-69 0 -114 19.5t-80 44.5t-74 44.5t-96 19.5t-94.5 -44.5t-37.5 -107.5z" />
    <glyph glyph-name="uni1E9A" unicode="&#x1e9a;" horiz-adv-x="1588" 
d="M668 -36q-146 0 -265 55.5t-189 161t-70 255.5q0 132 52 214.5t139 129.5t192.5 70.5t212.5 37.5q140 18 227.5 27.5t128 32.5t40.5 80v8q0 148 -80.5 230t-243.5 82q-169 0 -265 -74t-135 -158l-224 80q60 140 160.5 218.5t220 110t235.5 31.5q74 0 170.5 -17.5
t187 -71.5t150.5 -163t60 -292v-1012h-236v208h-12q-24 -50 -80 -107t-149 -97t-227 -40zM704 176q140 0 236.5 55t146 142t49.5 183v216q-15 -18 -65.5 -32.5t-116 -25t-127 -18t-99.5 -12.5q-92 -12 -171.5 -38.5t-128 -79t-48.5 -142.5q0 -123 91.5 -185.5t232.5 -62.5z
M692 1736v124q57 0 98.5 42t41.5 102q0 66 -41.5 109t-98.5 43v128q117 0 200.5 -78.5t83.5 -201.5q0 -120 -83.5 -194t-200.5 -74z" />
    <glyph glyph-name="uni00E0" unicode="&#xe0;" horiz-adv-x="1588" 
d="M668 -36q-146 0 -265 55.5t-189 161t-70 255.5q0 132 52 214.5t139 129.5t192.5 70.5t212.5 37.5q140 18 227.5 27.5t128 32.5t40.5 80v8q0 148 -80.5 230t-243.5 82q-169 0 -265 -74t-135 -158l-224 80q60 140 160.5 218.5t220 110t235.5 31.5q74 0 170.5 -17.5
t187 -71.5t150.5 -163t60 -292v-1012h-236v208h-12q-24 -50 -80 -107t-149 -97t-227 -40zM704 176q140 0 236.5 55t146 142t49.5 183v216q-15 -18 -65.5 -32.5t-116 -25t-127 -18t-99.5 -12.5q-92 -12 -171.5 -38.5t-128 -79t-48.5 -142.5q0 -123 91.5 -185.5t232.5 -62.5z
M928 1744h-208l-312 464h276z" />
    <glyph glyph-name="uni00E1" unicode="&#xe1;" horiz-adv-x="1588" 
d="M668 -36q-146 0 -265 55.5t-189 161t-70 255.5q0 132 52 214.5t139 129.5t192.5 70.5t212.5 37.5q140 18 227.5 27.5t128 32.5t40.5 80v8q0 148 -80.5 230t-243.5 82q-169 0 -265 -74t-135 -158l-224 80q60 140 160.5 218.5t220 110t235.5 31.5q74 0 170.5 -17.5
t187 -71.5t150.5 -163t60 -292v-1012h-236v208h-12q-24 -50 -80 -107t-149 -97t-227 -40zM704 176q140 0 236.5 55t146 142t49.5 183v216q-15 -18 -65.5 -32.5t-116 -25t-127 -18t-99.5 -12.5q-92 -12 -171.5 -38.5t-128 -79t-48.5 -142.5q0 -123 91.5 -185.5t232.5 -62.5z
M712 1744l244 464h276l-312 -464h-208z" />
    <glyph glyph-name="uni00E2" unicode="&#xe2;" horiz-adv-x="1588" 
d="M668 -36q-146 0 -265 55.5t-189 161t-70 255.5q0 132 52 214.5t139 129.5t192.5 70.5t212.5 37.5q140 18 227.5 27.5t128 32.5t40.5 80v8q0 148 -80.5 230t-243.5 82q-169 0 -265 -74t-135 -158l-224 80q60 140 160.5 218.5t220 110t235.5 31.5q74 0 170.5 -17.5
t187 -71.5t150.5 -163t60 -292v-1012h-236v208h-12q-24 -50 -80 -107t-149 -97t-227 -40zM704 176q140 0 236.5 55t146 142t49.5 183v216q-15 -18 -65.5 -32.5t-116 -25t-127 -18t-99.5 -12.5q-92 -12 -171.5 -38.5t-128 -79t-48.5 -142.5q0 -123 91.5 -185.5t232.5 -62.5z
M612 1720l208 280l208 -280h224v16l-324 416h-216l-324 -416v-16h224z" />
    <glyph glyph-name="uni00E5" unicode="&#xe5;" horiz-adv-x="1588" 
d="M668 -36q-146 0 -265 55.5t-189 161t-70 255.5q0 132 52 214.5t139 129.5t192.5 70.5t212.5 37.5q140 18 227.5 27.5t128 32.5t40.5 80v8q0 148 -80.5 230t-243.5 82q-169 0 -265 -74t-135 -158l-224 80q60 140 160.5 218.5t220 110t235.5 31.5q74 0 170.5 -17.5
t187 -71.5t150.5 -163t60 -292v-1012h-236v208h-12q-24 -50 -80 -107t-149 -97t-227 -40zM704 176q140 0 236.5 55t146 142t49.5 183v216q-15 -18 -65.5 -32.5t-116 -25t-127 -18t-99.5 -12.5q-92 -12 -171.5 -38.5t-128 -79t-48.5 -142.5q0 -123 91.5 -185.5t232.5 -62.5z
M820 1708q-102 0 -184.5 45t-131 122t-48.5 173t48.5 176t131 128t184.5 48t183.5 -48t129 -128t47.5 -176q0 -144 -103.5 -242t-256.5 -98zM820 1860q84 0 138 58t54 130q0 75 -54 135.5t-138 60.5t-138 -60.5t-54 -135.5q0 -72 54 -130t138 -58z" />
    <glyph glyph-name="uni0101" unicode="&#x101;" horiz-adv-x="1588" 
d="M668 -36q-146 0 -265 55.5t-189 161t-70 255.5q0 132 52 214.5t139 129.5t192.5 70.5t212.5 37.5q140 18 227.5 27.5t128 32.5t40.5 80v8q0 148 -80.5 230t-243.5 82q-169 0 -265 -74t-135 -158l-224 80q60 140 160.5 218.5t220 110t235.5 31.5q74 0 170.5 -17.5
t187 -71.5t150.5 -163t60 -292v-1012h-236v208h-12q-24 -50 -80 -107t-149 -97t-227 -40zM704 176q140 0 236.5 55t146 142t49.5 183v216q-15 -18 -65.5 -32.5t-116 -25t-127 -18t-99.5 -12.5q-92 -12 -171.5 -38.5t-128 -79t-48.5 -142.5q0 -123 91.5 -185.5t232.5 -62.5z
M1288 2048v-200h-936v200h936z" />
    <glyph glyph-name="uni0103" unicode="&#x103;" horiz-adv-x="1588" 
d="M668 -36q-146 0 -265 55.5t-189 161t-70 255.5q0 132 52 214.5t139 129.5t192.5 70.5t212.5 37.5q140 18 227.5 27.5t128 32.5t40.5 80v8q0 148 -80.5 230t-243.5 82q-169 0 -265 -74t-135 -158l-224 80q60 140 160.5 218.5t220 110t235.5 31.5q74 0 170.5 -17.5
t187 -71.5t150.5 -163t60 -292v-1012h-236v208h-12q-24 -50 -80 -107t-149 -97t-227 -40zM704 176q140 0 236.5 55t146 142t49.5 183v216q-15 -18 -65.5 -32.5t-116 -25t-127 -18t-99.5 -12.5q-92 -12 -171.5 -38.5t-128 -79t-48.5 -142.5q0 -123 91.5 -185.5t232.5 -62.5z
M1016 2048h220q0 -162 -112 -265t-304 -103q-189 0 -300.5 103t-111.5 265h220q0 -78 43.5 -137t148.5 -59t150.5 59t45.5 137z" />
    <glyph glyph-name="uni0105" unicode="&#x105;" horiz-adv-x="1588" 
d="M668 -36q-146 0 -265 55.5t-189 161t-70 255.5q0 132 52 214.5t139 129.5t192.5 70.5t212.5 37.5q140 18 227.5 27.5t128 32.5t40.5 80v8q0 148 -80.5 230t-243.5 82q-169 0 -265 -74t-135 -158l-224 80q60 140 160.5 218.5t220 110t235.5 31.5q74 0 170.5 -17.5
t187 -71.5t150.5 -163t60 -292v-1012h-236v208h-12q-24 -50 -80 -107t-149 -97t-227 -40zM704 176q140 0 236.5 55t146 142t49.5 183v216q-15 -18 -65.5 -32.5t-116 -25t-127 -18t-99.5 -12.5q-92 -12 -171.5 -38.5t-128 -79t-48.5 -142.5q0 -123 91.5 -185.5t232.5 -62.5z
M1184 -600q-123 0 -203.5 67.5t-80.5 196.5q0 111 83 220.5t281 199.5l108 -84q-90 -66 -161 -140t-71 -164q0 -45 22 -70.5t82 -25.5q45 0 80 12t56 24l16 -176q-33 -21 -86.5 -40.5t-125.5 -19.5z" />
    <glyph glyph-name="uni01CE" unicode="&#x1ce;" horiz-adv-x="1588" 
d="M668 -36q-146 0 -265 55.5t-189 161t-70 255.5q0 132 52 214.5t139 129.5t192.5 70.5t212.5 37.5q140 18 227.5 27.5t128 32.5t40.5 80v8q0 148 -80.5 230t-243.5 82q-169 0 -265 -74t-135 -158l-224 80q60 140 160.5 218.5t220 110t235.5 31.5q74 0 170.5 -17.5
t187 -71.5t150.5 -163t60 -292v-1012h-236v208h-12q-24 -50 -80 -107t-149 -97t-227 -40zM704 176q140 0 236.5 55t146 142t49.5 183v216q-15 -18 -65.5 -32.5t-116 -25t-127 -18t-99.5 -12.5q-92 -12 -171.5 -38.5t-128 -79t-48.5 -142.5q0 -123 91.5 -185.5t232.5 -62.5z
M612 2152l208 -280l208 280h224v-16l-324 -416h-216l-324 416v16h224z" />
    <glyph glyph-name="uni01DF" unicode="&#x1df;" horiz-adv-x="1588" 
d="M668 -36q-146 0 -265 55.5t-189 161t-70 255.5q0 132 52 214.5t139 129.5t192.5 70.5t212.5 37.5q140 18 227.5 27.5t128 32.5t40.5 80v8q0 148 -80.5 230t-243.5 82q-169 0 -265 -74t-135 -158l-224 80q60 140 160.5 218.5t220 110t235.5 31.5q74 0 170.5 -17.5
t187 -71.5t150.5 -163t60 -292v-1012h-236v208h-12q-24 -50 -80 -107t-149 -97t-227 -40zM704 176q140 0 236.5 55t146 142t49.5 183v216q-15 -18 -65.5 -32.5t-116 -25t-127 -18t-99.5 -12.5q-92 -12 -171.5 -38.5t-128 -79t-48.5 -142.5q0 -123 91.5 -185.5t232.5 -62.5z
M532 1792q-63 0 -111.5 48.5t-48.5 111.5q0 69 48.5 114.5t111.5 45.5q69 0 114.5 -45.5t45.5 -114.5q0 -63 -45.5 -111.5t-114.5 -48.5zM1108 1792q-63 0 -111.5 48.5t-48.5 111.5q0 69 48.5 114.5t111.5 45.5q69 0 114.5 -45.5t45.5 -114.5q0 -63 -45.5 -111.5
t-114.5 -48.5zM1288 2560v-200h-936v200h936z" />
    <glyph glyph-name="uni01E1" unicode="&#x1e1;" horiz-adv-x="1588" 
d="M668 -36q-146 0 -265 55.5t-189 161t-70 255.5q0 132 52 214.5t139 129.5t192.5 70.5t212.5 37.5q140 18 227.5 27.5t128 32.5t40.5 80v8q0 148 -80.5 230t-243.5 82q-169 0 -265 -74t-135 -158l-224 80q60 140 160.5 218.5t220 110t235.5 31.5q74 0 170.5 -17.5
t187 -71.5t150.5 -163t60 -292v-1012h-236v208h-12q-24 -50 -80 -107t-149 -97t-227 -40zM704 176q140 0 236.5 55t146 142t49.5 183v216q-15 -18 -65.5 -32.5t-116 -25t-127 -18t-99.5 -12.5q-92 -12 -171.5 -38.5t-128 -79t-48.5 -142.5q0 -123 91.5 -185.5t232.5 -62.5z
M824 1708q-69 0 -118.5 47t-49.5 113t49.5 113t118.5 47t118.5 -47t49.5 -113t-49.5 -113t-118.5 -47zM1292 2444v-200h-936v200h936z" />
    <glyph glyph-name="uni01FB" unicode="&#x1fb;" horiz-adv-x="1588" 
d="M668 -36q-146 0 -265 55.5t-189 161t-70 255.5q0 132 52 214.5t139 129.5t192.5 70.5t212.5 37.5q140 18 227.5 27.5t128 32.5t40.5 80v8q0 148 -80.5 230t-243.5 82q-169 0 -265 -74t-135 -158l-224 80q60 140 160.5 218.5t220 110t235.5 31.5q74 0 170.5 -17.5
t187 -71.5t150.5 -163t60 -292v-1012h-236v208h-12q-24 -50 -80 -107t-149 -97t-227 -40zM704 176q140 0 236.5 55t146 142t49.5 183v216q-15 -18 -65.5 -32.5t-116 -25t-127 -18t-99.5 -12.5q-92 -12 -171.5 -38.5t-128 -79t-48.5 -142.5q0 -123 91.5 -185.5t232.5 -62.5z
M820 1648q-96 0 -166 68t-70 164t70 164t166 68q99 0 167.5 -68t68.5 -164t-68.5 -164t-167.5 -68zM720 2176l200 248h272l-304 -248h-168zM820 1784q42 0 69 28.5t27 67.5q0 36 -27 64t-69 28q-39 0 -67.5 -28t-28.5 -64q0 -39 28.5 -67.5t67.5 -28.5z" />
    <glyph glyph-name="uni0201" unicode="&#x201;" horiz-adv-x="1588" 
d="M668 -36q-146 0 -265 55.5t-189 161t-70 255.5q0 132 52 214.5t139 129.5t192.5 70.5t212.5 37.5q140 18 227.5 27.5t128 32.5t40.5 80v8q0 148 -80.5 230t-243.5 82q-169 0 -265 -74t-135 -158l-224 80q60 140 160.5 218.5t220 110t235.5 31.5q74 0 170.5 -17.5
t187 -71.5t150.5 -163t60 -292v-1012h-236v208h-12q-24 -50 -80 -107t-149 -97t-227 -40zM704 176q140 0 236.5 55t146 142t49.5 183v216q-15 -18 -65.5 -32.5t-116 -25t-127 -18t-99.5 -12.5q-92 -12 -171.5 -38.5t-128 -79t-48.5 -142.5q0 -123 91.5 -185.5t232.5 -62.5z
M780 1736h-248l-420 364h332zM1144 1736h-220l-336 364h304z" />
    <glyph glyph-name="uni0203" unicode="&#x203;" horiz-adv-x="1588" 
d="M668 -36q-146 0 -265 55.5t-189 161t-70 255.5q0 132 52 214.5t139 129.5t192.5 70.5t212.5 37.5q140 18 227.5 27.5t128 32.5t40.5 80v8q0 148 -80.5 230t-243.5 82q-169 0 -265 -74t-135 -158l-224 80q60 140 160.5 218.5t220 110t235.5 31.5q74 0 170.5 -17.5
t187 -71.5t150.5 -163t60 -292v-1012h-236v208h-12q-24 -50 -80 -107t-149 -97t-227 -40zM704 176q140 0 236.5 55t146 142t49.5 183v216q-15 -18 -65.5 -32.5t-116 -25t-127 -18t-99.5 -12.5q-92 -12 -171.5 -38.5t-128 -79t-48.5 -142.5q0 -123 91.5 -185.5t232.5 -62.5z
M408 1776q0 162 112 267t304 105t302 -105t110 -267h-220q0 81 -45 140.5t-147 59.5q-108 0 -152 -61t-44 -139h-220z" />
    <glyph glyph-name="uni0227" unicode="&#x227;" horiz-adv-x="1588" 
d="M668 -36q-146 0 -265 55.5t-189 161t-70 255.5q0 132 52 214.5t139 129.5t192.5 70.5t212.5 37.5q140 18 227.5 27.5t128 32.5t40.5 80v8q0 148 -80.5 230t-243.5 82q-169 0 -265 -74t-135 -158l-224 80q60 140 160.5 218.5t220 110t235.5 31.5q74 0 170.5 -17.5
t187 -71.5t150.5 -163t60 -292v-1012h-236v208h-12q-24 -50 -80 -107t-149 -97t-227 -40zM704 176q140 0 236.5 55t146 142t49.5 183v216q-15 -18 -65.5 -32.5t-116 -25t-127 -18t-99.5 -12.5q-92 -12 -171.5 -38.5t-128 -79t-48.5 -142.5q0 -123 91.5 -185.5t232.5 -62.5z
M820 1792q-69 0 -118.5 47t-49.5 113t49.5 113t118.5 47t118.5 -47t49.5 -113t-49.5 -113t-118.5 -47z" />
    <glyph glyph-name="uni1E01" unicode="&#x1e01;" horiz-adv-x="1588" 
d="M668 -36q-146 0 -265 55.5t-189 161t-70 255.5q0 132 52 214.5t139 129.5t192.5 70.5t212.5 37.5q140 18 227.5 27.5t128 32.5t40.5 80v8q0 148 -80.5 230t-243.5 82q-169 0 -265 -74t-135 -158l-224 80q60 140 160.5 218.5t220 110t235.5 31.5q74 0 170.5 -17.5
t187 -71.5t150.5 -163t60 -292v-1012h-236v208h-12q-24 -50 -80 -107t-149 -97t-227 -40zM704 176q140 0 236.5 55t146 142t49.5 183v216q-15 -18 -65.5 -32.5t-116 -25t-127 -18t-99.5 -12.5q-92 -12 -171.5 -38.5t-128 -79t-48.5 -142.5q0 -123 91.5 -185.5t232.5 -62.5z
M536 -336q0 102 71 167t173 65q96 0 170 -65t74 -167q0 -105 -74 -168.5t-170 -63.5q-102 0 -173 63.5t-71 168.5zM660 -336q0 -51 34.5 -85.5t85.5 -34.5q45 0 82.5 34.5t37.5 85.5t-37.5 85.5t-82.5 34.5q-51 0 -85.5 -34.5t-34.5 -85.5z" />
    <glyph glyph-name="uni1EA1" unicode="&#x1ea1;" horiz-adv-x="1588" 
d="M668 -36q-146 0 -265 55.5t-189 161t-70 255.5q0 132 52 214.5t139 129.5t192.5 70.5t212.5 37.5q140 18 227.5 27.5t128 32.5t40.5 80v8q0 148 -80.5 230t-243.5 82q-169 0 -265 -74t-135 -158l-224 80q60 140 160.5 218.5t220 110t235.5 31.5q74 0 170.5 -17.5
t187 -71.5t150.5 -163t60 -292v-1012h-236v208h-12q-24 -50 -80 -107t-149 -97t-227 -40zM704 176q140 0 236.5 55t146 142t49.5 183v216q-15 -18 -65.5 -32.5t-116 -25t-127 -18t-99.5 -12.5q-92 -12 -171.5 -38.5t-128 -79t-48.5 -142.5q0 -123 91.5 -185.5t232.5 -62.5z
M808 -508q-69 0 -118.5 47t-49.5 113t49.5 113t118.5 47t118.5 -47t49.5 -113t-49.5 -113t-118.5 -47z" />
    <glyph glyph-name="uni1EA3" unicode="&#x1ea3;" horiz-adv-x="1588" 
d="M668 -36q-146 0 -265 55.5t-189 161t-70 255.5q0 132 52 214.5t139 129.5t192.5 70.5t212.5 37.5q140 18 227.5 27.5t128 32.5t40.5 80v8q0 148 -80.5 230t-243.5 82q-169 0 -265 -74t-135 -158l-224 80q60 140 160.5 218.5t220 110t235.5 31.5q74 0 170.5 -17.5
t187 -71.5t150.5 -163t60 -292v-1012h-236v208h-12q-24 -50 -80 -107t-149 -97t-227 -40zM704 176q140 0 236.5 55t146 142t49.5 183v216q-15 -18 -65.5 -32.5t-116 -25t-127 -18t-99.5 -12.5q-92 -12 -171.5 -38.5t-128 -79t-48.5 -142.5q0 -123 91.5 -185.5t232.5 -62.5z
M924 1744h-196v216q105 6 148.5 29t43.5 71q0 54 -63 79t-153 25l8 152q207 0 313.5 -72t106.5 -192q0 -102 -65 -149t-143 -59v-100z" />
    <glyph glyph-name="uni1EA5" unicode="&#x1ea5;" horiz-adv-x="1588" 
d="M668 -36q-146 0 -265 55.5t-189 161t-70 255.5q0 132 52 214.5t139 129.5t192.5 70.5t212.5 37.5q140 18 227.5 27.5t128 32.5t40.5 80v8q0 148 -80.5 230t-243.5 82q-169 0 -265 -74t-135 -158l-224 80q60 140 160.5 218.5t220 110t235.5 31.5q74 0 170.5 -17.5
t187 -71.5t150.5 -163t60 -292v-1012h-236v208h-12q-24 -50 -80 -107t-149 -97t-227 -40zM704 176q140 0 236.5 55t146 142t49.5 183v216q-15 -18 -65.5 -32.5t-116 -25t-127 -18t-99.5 -12.5q-92 -12 -171.5 -38.5t-128 -79t-48.5 -142.5q0 -123 91.5 -185.5t232.5 -62.5z
M304 1728l408 364h220l408 -364h-288l-228 212l-228 -212h-292zM1232 1972l196 360h292l-280 -360h-208z" />
    <glyph glyph-name="uni1EA7" unicode="&#x1ea7;" horiz-adv-x="1588" 
d="M668 -36q-146 0 -265 55.5t-189 161t-70 255.5q0 132 52 214.5t139 129.5t192.5 70.5t212.5 37.5q140 18 227.5 27.5t128 32.5t40.5 80v8q0 148 -80.5 230t-243.5 82q-169 0 -265 -74t-135 -158l-224 80q60 140 160.5 218.5t220 110t235.5 31.5q74 0 170.5 -17.5
t187 -71.5t150.5 -163t60 -292v-1012h-236v208h-12q-24 -50 -80 -107t-149 -97t-227 -40zM704 176q140 0 236.5 55t146 142t49.5 183v216q-15 -18 -65.5 -32.5t-116 -25t-127 -18t-99.5 -12.5q-92 -12 -171.5 -38.5t-128 -79t-48.5 -142.5q0 -123 91.5 -185.5t232.5 -62.5z
M928 2088l408 -364h-288l-228 212l-228 -212h-288l404 364h220zM216 2332l192 -364h-204l-284 364h296z" />
    <glyph glyph-name="uni1EA9" unicode="&#x1ea9;" horiz-adv-x="1588" 
d="M668 -36q-146 0 -265 55.5t-189 161t-70 255.5q0 132 52 214.5t139 129.5t192.5 70.5t212.5 37.5q140 18 227.5 27.5t128 32.5t40.5 80v8q0 148 -80.5 230t-243.5 82q-169 0 -265 -74t-135 -158l-224 80q60 140 160.5 218.5t220 110t235.5 31.5q74 0 170.5 -17.5
t187 -71.5t150.5 -163t60 -292v-1012h-236v208h-12q-24 -50 -80 -107t-149 -97t-227 -40zM704 176q140 0 236.5 55t146 142t49.5 183v216q-15 -18 -65.5 -32.5t-116 -25t-127 -18t-99.5 -12.5q-92 -12 -171.5 -38.5t-128 -79t-48.5 -142.5q0 -123 91.5 -185.5t232.5 -62.5z
M956 2064l380 -364h-248l-272 252l-268 -252h-248l380 364h276zM1376 1892h-168v184q84 6 124 22.5t40 61.5q0 48 -53.5 68t-134.5 20l8 132q180 0 272 -61t92 -163q0 -90 -55.5 -130.5t-124.5 -49.5v-84z" />
    <glyph glyph-name="uni1EAB" unicode="&#x1eab;" horiz-adv-x="1588" 
d="M668 -36q-146 0 -265 55.5t-189 161t-70 255.5q0 132 52 214.5t139 129.5t192.5 70.5t212.5 37.5q140 18 227.5 27.5t128 32.5t40.5 80v8q0 148 -80.5 230t-243.5 82q-169 0 -265 -74t-135 -158l-224 80q60 140 160.5 218.5t220 110t235.5 31.5q74 0 170.5 -17.5
t187 -71.5t150.5 -163t60 -292v-1012h-236v208h-12q-24 -50 -80 -107t-149 -97t-227 -40zM704 176q140 0 236.5 55t146 142t49.5 183v216q-15 -18 -65.5 -32.5t-116 -25t-127 -18t-99.5 -12.5q-92 -12 -171.5 -38.5t-128 -79t-48.5 -142.5q0 -123 91.5 -185.5t232.5 -62.5z
M912 2008l420 -336h-248l-268 212l-268 -212h-248l420 336h192zM1064 2360l112 -32q0 -81 -66 -148.5t-162 -67.5q-68 0 -109 24t-77 48t-90 24q-42 0 -79 -32t-37 -68l-108 28q0 81 64 150.5t160 69.5q56 0 98.5 -23t84 -46t93.5 -23q42 0 79 30t37 66z" />
    <glyph glyph-name="uni1EAD" unicode="&#x1ead;" horiz-adv-x="1588" 
d="M668 -36q-146 0 -265 55.5t-189 161t-70 255.5q0 132 52 214.5t139 129.5t192.5 70.5t212.5 37.5q140 18 227.5 27.5t128 32.5t40.5 80v8q0 148 -80.5 230t-243.5 82q-169 0 -265 -74t-135 -158l-224 80q60 140 160.5 218.5t220 110t235.5 31.5q74 0 170.5 -17.5
t187 -71.5t150.5 -163t60 -292v-1012h-236v208h-12q-24 -50 -80 -107t-149 -97t-227 -40zM704 176q140 0 236.5 55t146 142t49.5 183v216q-15 -18 -65.5 -32.5t-116 -25t-127 -18t-99.5 -12.5q-92 -12 -171.5 -38.5t-128 -79t-48.5 -142.5q0 -123 91.5 -185.5t232.5 -62.5z
M612 1720l208 280l208 -280h224v16l-324 416h-216l-324 -416v-16h224zM808 -508q-69 0 -118.5 47t-49.5 113t49.5 113t118.5 47t118.5 -47t49.5 -113t-49.5 -113t-118.5 -47z" />
    <glyph glyph-name="uni1EAF" unicode="&#x1eaf;" horiz-adv-x="1588" 
d="M668 -36q-146 0 -265 55.5t-189 161t-70 255.5q0 132 52 214.5t139 129.5t192.5 70.5t212.5 37.5q140 18 227.5 27.5t128 32.5t40.5 80v8q0 148 -80.5 230t-243.5 82q-169 0 -265 -74t-135 -158l-224 80q60 140 160.5 218.5t220 110t235.5 31.5q74 0 170.5 -17.5
t187 -71.5t150.5 -163t60 -292v-1012h-236v208h-12q-24 -50 -80 -107t-149 -97t-227 -40zM704 176q140 0 236.5 55t146 142t49.5 183v216q-15 -18 -65.5 -32.5t-116 -25t-127 -18t-99.5 -12.5q-92 -12 -171.5 -38.5t-128 -79t-48.5 -142.5q0 -123 91.5 -185.5t232.5 -62.5z
M1008 2004h224q0 -126 -112.5 -207t-307.5 -81t-307.5 81t-112.5 207h224q0 -63 44 -109.5t152 -46.5q105 0 150.5 46.5t45.5 109.5zM732 2036l148 272h224l-224 -272h-148z" />
    <glyph glyph-name="uni1EB1" unicode="&#x1eb1;" horiz-adv-x="1588" 
d="M668 -36q-146 0 -265 55.5t-189 161t-70 255.5q0 132 52 214.5t139 129.5t192.5 70.5t212.5 37.5q140 18 227.5 27.5t128 32.5t40.5 80v8q0 148 -80.5 230t-243.5 82q-169 0 -265 -74t-135 -158l-224 80q60 140 160.5 218.5t220 110t235.5 31.5q74 0 170.5 -17.5
t187 -71.5t150.5 -163t60 -292v-1012h-236v208h-12q-24 -50 -80 -107t-149 -97t-227 -40zM704 176q140 0 236.5 55t146 142t49.5 183v216q-15 -18 -65.5 -32.5t-116 -25t-127 -18t-99.5 -12.5q-92 -12 -171.5 -38.5t-128 -79t-48.5 -142.5q0 -123 91.5 -185.5t232.5 -62.5z
M1008 2004h224q0 -126 -112.5 -207t-307.5 -81t-307.5 81t-112.5 207h224q0 -63 44 -109.5t152 -46.5q105 0 150.5 46.5t45.5 109.5zM764 2036l-224 272h224l148 -272h-148z" />
    <glyph glyph-name="uni1EB3" unicode="&#x1eb3;" horiz-adv-x="1588" 
d="M668 -36q-146 0 -265 55.5t-189 161t-70 255.5q0 132 52 214.5t139 129.5t192.5 70.5t212.5 37.5q140 18 227.5 27.5t128 32.5t40.5 80v8q0 148 -80.5 230t-243.5 82q-169 0 -265 -74t-135 -158l-224 80q60 140 160.5 218.5t220 110t235.5 31.5q74 0 170.5 -17.5
t187 -71.5t150.5 -163t60 -292v-1012h-236v208h-12q-24 -50 -80 -107t-149 -97t-227 -40zM704 176q140 0 236.5 55t146 142t49.5 183v216q-15 -18 -65.5 -32.5t-116 -25t-127 -18t-99.5 -12.5q-92 -12 -171.5 -38.5t-128 -79t-48.5 -142.5q0 -123 91.5 -185.5t232.5 -62.5z
M992 2032h216q0 -126 -107.5 -207t-296.5 -81q-186 0 -295 81t-109 207h216q0 -63 43 -109.5t145 -46.5t145 46.5t43 109.5zM912 2060h-188l-4 176q99 3 143.5 18t44.5 54q0 42 -61 59t-151 17l12 116q201 0 302.5 -54.5t101.5 -141.5q0 -78 -62.5 -112.5t-137.5 -43.5v-88z
" />
    <glyph glyph-name="uni1EB5" unicode="&#x1eb5;" horiz-adv-x="1588" 
d="M668 -36q-146 0 -265 55.5t-189 161t-70 255.5q0 132 52 214.5t139 129.5t192.5 70.5t212.5 37.5q140 18 227.5 27.5t128 32.5t40.5 80v8q0 148 -80.5 230t-243.5 82q-169 0 -265 -74t-135 -158l-224 80q60 140 160.5 218.5t220 110t235.5 31.5q74 0 170.5 -17.5
t187 -71.5t150.5 -163t60 -292v-1012h-236v208h-12q-24 -50 -80 -107t-149 -97t-227 -40zM704 176q140 0 236.5 55t146 142t49.5 183v216q-15 -18 -65.5 -32.5t-116 -25t-127 -18t-99.5 -12.5q-92 -12 -171.5 -38.5t-128 -79t-48.5 -142.5q0 -123 91.5 -185.5t232.5 -62.5z
M1000 2044h220q0 -129 -110 -212.5t-302 -83.5q-189 0 -300.5 83.5t-111.5 212.5h220q0 -63 43.5 -111.5t148.5 -48.5t148.5 48.5t43.5 111.5zM1088 2448l120 -36q0 -102 -65 -175t-167 -73q-74 0 -119 25t-85 50t-100 25q-45 0 -76.5 -34.5t-31.5 -85.5l-124 28
q0 99 65 177.5t167 78.5q60 0 107 -25t93 -50t104 -25q45 0 78.5 34.5t33.5 85.5z" />
    <glyph glyph-name="uni1EB7" unicode="&#x1eb7;" horiz-adv-x="1588" 
d="M668 -36q-146 0 -265 55.5t-189 161t-70 255.5q0 132 52 214.5t139 129.5t192.5 70.5t212.5 37.5q140 18 227.5 27.5t128 32.5t40.5 80v8q0 148 -80.5 230t-243.5 82q-169 0 -265 -74t-135 -158l-224 80q60 140 160.5 218.5t220 110t235.5 31.5q74 0 170.5 -17.5
t187 -71.5t150.5 -163t60 -292v-1012h-236v208h-12q-24 -50 -80 -107t-149 -97t-227 -40zM704 176q140 0 236.5 55t146 142t49.5 183v216q-15 -18 -65.5 -32.5t-116 -25t-127 -18t-99.5 -12.5q-92 -12 -171.5 -38.5t-128 -79t-48.5 -142.5q0 -123 91.5 -185.5t232.5 -62.5z
M1016 2048h220q0 -162 -112 -265t-304 -103q-189 0 -300.5 103t-111.5 265h220q0 -78 43.5 -137t148.5 -59t150.5 59t45.5 137zM808 -508q-69 0 -118.5 47t-49.5 113t49.5 113t118.5 47t118.5 -47t49.5 -113t-49.5 -113t-118.5 -47z" />
    <glyph glyph-name="uni0250" unicode="&#x250;" horiz-adv-x="1588" 
d="M920 1572q146 0 265 -55.5t189 -161t70 -255.5q0 -132 -52 -214.5t-139 -129.5t-192.5 -70.5t-212.5 -37.5q-140 -18 -227.5 -27.5t-128 -32.5t-40.5 -80v-8q0 -148 80.5 -230t243.5 -82q169 0 265 74t135 158l224 -80q-60 -140 -160.5 -218.5t-220 -110t-235.5 -31.5
q-74 0 -170.5 17.5t-187 71.5t-150.5 163t-60 292v1012h236v-208h12q24 50 80 107t149 97t227 40zM884 1360q-140 0 -236.5 -55t-146 -142t-49.5 -183v-216q15 18 65.5 32.5t116 25t127 18t99.5 12.5q92 12 171.5 38.5t128 79t48.5 142.5q0 123 -91.5 185.5t-232.5 62.5z
" />
    <glyph glyph-name="uni0430" unicode="&#x430;" horiz-adv-x="1588" 
d="M668 -36q-146 0 -265 55.5t-189 161t-70 255.5q0 132 52 214.5t139 129.5t192.5 70.5t212.5 37.5q140 18 227.5 27.5t128 32.5t40.5 80v8q0 148 -80.5 230t-243.5 82q-169 0 -265 -74t-135 -158l-224 80q60 140 160.5 218.5t220 110t235.5 31.5q74 0 170.5 -17.5
t187 -71.5t150.5 -163t60 -292v-1012h-236v208h-12q-24 -50 -80 -107t-149 -97t-227 -40zM704 176q140 0 236.5 55t146 142t49.5 183v216q-15 -18 -65.5 -32.5t-116 -25t-127 -18t-99.5 -12.5q-92 -12 -171.5 -38.5t-128 -79t-48.5 -142.5q0 -123 91.5 -185.5t232.5 -62.5z
" />
    <glyph glyph-name="uni04D1" unicode="&#x4d1;" horiz-adv-x="1588" 
d="M668 -36q-146 0 -265 55.5t-189 161t-70 255.5q0 132 52 214.5t139 129.5t192.5 70.5t212.5 37.5q140 18 227.5 27.5t128 32.5t40.5 80v8q0 148 -80.5 230t-243.5 82q-169 0 -265 -74t-135 -158l-224 80q60 140 160.5 218.5t220 110t235.5 31.5q74 0 170.5 -17.5
t187 -71.5t150.5 -163t60 -292v-1012h-236v208h-12q-24 -50 -80 -107t-149 -97t-227 -40zM704 176q140 0 236.5 55t146 142t49.5 183v216q-15 -18 -65.5 -32.5t-116 -25t-127 -18t-99.5 -12.5q-92 -12 -171.5 -38.5t-128 -79t-48.5 -142.5q0 -123 91.5 -185.5t232.5 -62.5z
M1016 2048h220q0 -162 -112 -265t-304 -103q-189 0 -300.5 103t-111.5 265h220q0 -78 43.5 -137t148.5 -59t150.5 59t45.5 137z" />
    <glyph glyph-name="uni04D3" unicode="&#x4d3;" horiz-adv-x="1588" 
d="M668 -36q-146 0 -265 55.5t-189 161t-70 255.5q0 132 52 214.5t139 129.5t192.5 70.5t212.5 37.5q140 18 227.5 27.5t128 32.5t40.5 80v8q0 148 -80.5 230t-243.5 82q-169 0 -265 -74t-135 -158l-224 80q60 140 160.5 218.5t220 110t235.5 31.5q74 0 170.5 -17.5
t187 -71.5t150.5 -163t60 -292v-1012h-236v208h-12q-24 -50 -80 -107t-149 -97t-227 -40zM704 176q140 0 236.5 55t146 142t49.5 183v216q-15 -18 -65.5 -32.5t-116 -25t-127 -18t-99.5 -12.5q-92 -12 -171.5 -38.5t-128 -79t-48.5 -142.5q0 -123 91.5 -185.5t232.5 -62.5z
M532 1792q-63 0 -111.5 48.5t-48.5 111.5q0 69 48.5 114.5t111.5 45.5q69 0 114.5 -45.5t45.5 -114.5q0 -63 -45.5 -111.5t-114.5 -48.5zM1108 1792q-63 0 -111.5 48.5t-48.5 111.5q0 69 48.5 114.5t111.5 45.5q69 0 114.5 -45.5t45.5 -114.5q0 -63 -45.5 -111.5
t-114.5 -48.5z" />
    <glyph glyph-name="uni00E6" unicode="&#xe6;" horiz-adv-x="2604" 
d="M1824 -32q-208 0 -360 84.5t-224 227.5h-8q-30 -86 -112.5 -158t-200 -115t-251.5 -43q-146 0 -265 55.5t-189 161t-70 255.5q0 132 52.5 214.5t139 130t192.5 71t212 36.5q140 18 227.5 28t128 33t40.5 79v8q0 147 -81 229.5t-243 82.5q-168 0 -264.5 -74t-135.5 -158
l-224 80q60 140 160.5 218.5t220 110t235.5 31.5q73 0 168 -17t185.5 -69t148.5 -159q82 116 206 180.5t288 64.5q120 0 237 -40t213 -129.5t153 -236.5t57 -362v-100h-1115q8 -246 140.5 -377t338.5 -131q139 0 239 60t145 180l228 -64q-54 -174 -216 -281t-396 -107z
M704 176q140 0 236.5 55t146 142t49.5 183v216q-15 -18 -65.5 -32.5t-116 -25t-127 -18t-99.5 -12.5q-92 -12 -171.5 -38.5t-128 -79t-48.5 -142.5q0 -123 91.5 -185.5t232.5 -62.5zM1345 892h875q0 195 -114 323.5t-306 128.5q-135 0 -234 -63.5t-156 -166.5t-65 -222z" />
    <glyph glyph-name="uni01E3" unicode="&#x1e3;" horiz-adv-x="2604" 
d="M1824 -32q-208 0 -360 84.5t-224 227.5h-8q-30 -86 -112.5 -158t-200 -115t-251.5 -43q-146 0 -265 55.5t-189 161t-70 255.5q0 132 52.5 214.5t139 130t192.5 71t212 36.5q140 18 227.5 28t128 33t40.5 79v8q0 147 -81 229.5t-243 82.5q-168 0 -264.5 -74t-135.5 -158
l-224 80q60 140 160.5 218.5t220 110t235.5 31.5q73 0 168 -17t185.5 -69t148.5 -159q82 116 206 180.5t288 64.5q120 0 237 -40t213 -129.5t153 -236.5t57 -362v-100h-1115q8 -246 140.5 -377t338.5 -131q139 0 239 60t145 180l228 -64q-54 -174 -216 -281t-396 -107z
M704 176q140 0 236.5 55t146 142t49.5 183v216q-15 -18 -65.5 -32.5t-116 -25t-127 -18t-99.5 -12.5q-92 -12 -171.5 -38.5t-128 -79t-48.5 -142.5q0 -123 91.5 -185.5t232.5 -62.5zM1345 892h875q0 195 -114 323.5t-306 128.5q-135 0 -234 -63.5t-156 -166.5t-65 -222z
M1752 2048v-200h-936v200h936z" />
    <glyph glyph-name="uni01FD" unicode="&#x1fd;" horiz-adv-x="2604" 
d="M1824 -32q-208 0 -360 84.5t-224 227.5h-8q-30 -86 -112.5 -158t-200 -115t-251.5 -43q-146 0 -265 55.5t-189 161t-70 255.5q0 132 52.5 214.5t139 130t192.5 71t212 36.5q140 18 227.5 28t128 33t40.5 79v8q0 147 -81 229.5t-243 82.5q-168 0 -264.5 -74t-135.5 -158
l-224 80q60 140 160.5 218.5t220 110t235.5 31.5q73 0 168 -17t185.5 -69t148.5 -159q82 116 206 180.5t288 64.5q120 0 237 -40t213 -129.5t153 -236.5t57 -362v-100h-1115q8 -246 140.5 -377t338.5 -131q139 0 239 60t145 180l228 -64q-54 -174 -216 -281t-396 -107z
M704 176q140 0 236.5 55t146 142t49.5 183v216q-15 -18 -65.5 -32.5t-116 -25t-127 -18t-99.5 -12.5q-92 -12 -171.5 -38.5t-128 -79t-48.5 -142.5q0 -123 91.5 -185.5t232.5 -62.5zM1345 892h875q0 195 -114 323.5t-306 128.5q-135 0 -234 -63.5t-156 -166.5t-65 -222z
M1176 1744l244 464h276l-312 -464h-208z" />
    <glyph glyph-name="uni04D5" unicode="&#x4d5;" horiz-adv-x="2604" 
d="M1824 -32q-208 0 -360 84.5t-224 227.5h-8q-30 -86 -112.5 -158t-200 -115t-251.5 -43q-146 0 -265 55.5t-189 161t-70 255.5q0 132 52.5 214.5t139 130t192.5 71t212 36.5q140 18 227.5 28t128 33t40.5 79v8q0 147 -81 229.5t-243 82.5q-168 0 -264.5 -74t-135.5 -158
l-224 80q60 140 160.5 218.5t220 110t235.5 31.5q73 0 168 -17t185.5 -69t148.5 -159q82 116 206 180.5t288 64.5q120 0 237 -40t213 -129.5t153 -236.5t57 -362v-100h-1115q8 -246 140.5 -377t338.5 -131q139 0 239 60t145 180l228 -64q-54 -174 -216 -281t-396 -107z
M704 176q140 0 236.5 55t146 142t49.5 183v216q-15 -18 -65.5 -32.5t-116 -25t-127 -18t-99.5 -12.5q-92 -12 -171.5 -38.5t-128 -79t-48.5 -142.5q0 -123 91.5 -185.5t232.5 -62.5zM1345 892h875q0 195 -114 323.5t-306 128.5q-135 0 -234 -63.5t-156 -166.5t-65 -222z" />
    <glyph glyph-name="uni0062" unicode="b" horiz-adv-x="1748" 
d="M248 0v2048h236v-756h20q26 40 72.5 102.5t134 112t237.5 49.5q194 0 342 -97t231 -275t83 -420q0 -244 -83 -422.5t-230 -276t-339 -97.5q-148 0 -237 49.5t-137 113t-74 105.5h-28v-236h-228zM480 768q0 -261 113.5 -424.5t326.5 -163.5q148 0 247.5 78.5t150 212
t50.5 297.5q0 162 -49.5 292.5t-149 207t-249.5 76.5q-216 0 -328 -159t-112 -417z" />
    <glyph glyph-name="uni0180" unicode="&#x180;" horiz-adv-x="1748" 
d="M248 0v2048h236v-756h20q26 40 72.5 102.5t134 112t237.5 49.5q194 0 342 -97t231 -275t83 -420q0 -244 -83 -422.5t-230 -276t-339 -97.5q-148 0 -237 49.5t-137 113t-74 105.5h-28v-236h-228zM480 768q0 -261 113.5 -424.5t326.5 -163.5q148 0 247.5 78.5t150 212
t50.5 297.5q0 162 -49.5 292.5t-149 207t-249.5 76.5q-216 0 -328 -159t-112 -417zM-72 1668v184h880v-184h-880z" />
    <glyph glyph-name="uni0183" unicode="&#x183;" horiz-adv-x="1748" 
d="M1400 2048v-220h-916v-536h20q26 40 72.5 102.5t134 112t237.5 49.5q194 0 342 -97t231 -275t83 -420q0 -244 -83 -422.5t-230 -276t-339 -97.5q-148 0 -237 49.5t-137 113t-74 105.5h-28v-236h-228v2048h1152zM480 768q0 -261 113.5 -424.5t326.5 -163.5
q148 0 247.5 78.5t150 212t50.5 297.5q0 162 -49.5 292.5t-149 207t-249.5 76.5q-216 0 -328 -159t-112 -417z" />
    <glyph glyph-name="uni0253" unicode="&#x253;" horiz-adv-x="1716" 
d="M216 0v1664q0 198 116 305t284 107q36 0 72.5 -1.5t63.5 -10.5v-200q-15 3 -35 5.5t-41 2.5q-96 0 -160 -44t-64 -164v-372h20q26 40 72.5 102.5t134 112t237.5 49.5q194 0 342 -97t231 -275t83 -420q0 -244 -83 -422.5t-230 -276t-339 -97.5q-148 0 -237 49.5t-137 113
t-74 105.5h-28v-236h-228zM888 180q148 0 247.5 78.5t150 212t50.5 297.5q0 162 -49.5 292.5t-149 207t-249.5 76.5q-216 0 -328 -159t-112 -417q0 -261 113.5 -424.5t326.5 -163.5z" />
    <glyph glyph-name="uni1E03" unicode="&#x1e03;" horiz-adv-x="1748" 
d="M248 0v2048h236v-756h20q26 40 72.5 102.5t134 112t237.5 49.5q194 0 342 -97t231 -275t83 -420q0 -244 -83 -422.5t-230 -276t-339 -97.5q-148 0 -237 49.5t-137 113t-74 105.5h-28v-236h-228zM480 768q0 -261 113.5 -424.5t326.5 -163.5q148 0 247.5 78.5t150 212
t50.5 297.5q0 162 -49.5 292.5t-149 207t-249.5 76.5q-216 0 -328 -159t-112 -417zM944 1792q-69 0 -118.5 47t-49.5 113t49.5 113t118.5 47t118.5 -47t49.5 -113t-49.5 -113t-118.5 -47z" />
    <glyph glyph-name="uni1E05" unicode="&#x1e05;" horiz-adv-x="1748" 
d="M248 0v2048h236v-756h20q26 40 72.5 102.5t134 112t237.5 49.5q194 0 342 -97t231 -275t83 -420q0 -244 -83 -422.5t-230 -276t-339 -97.5q-148 0 -237 49.5t-137 113t-74 105.5h-28v-236h-228zM480 768q0 -261 113.5 -424.5t326.5 -163.5q148 0 247.5 78.5t150 212
t50.5 297.5q0 162 -49.5 292.5t-149 207t-249.5 76.5q-216 0 -328 -159t-112 -417zM948 -508q-69 0 -118.5 47t-49.5 113t49.5 113t118.5 47t118.5 -47t49.5 -113t-49.5 -113t-118.5 -47z" />
    <glyph glyph-name="uni1E07" unicode="&#x1e07;" horiz-adv-x="1748" 
d="M248 0v2048h236v-756h20q26 40 72.5 102.5t134 112t237.5 49.5q194 0 342 -97t231 -275t83 -420q0 -244 -83 -422.5t-230 -276t-339 -97.5q-148 0 -237 49.5t-137 113t-74 105.5h-28v-236h-228zM480 768q0 -261 113.5 -424.5t326.5 -163.5q148 0 247.5 78.5t150 212
t50.5 297.5q0 162 -49.5 292.5t-149 207t-249.5 76.5q-216 0 -328 -159t-112 -417zM1416 -252v-200h-936v200h936z" />
    <glyph glyph-name="uni0063" unicode="c" horiz-adv-x="1572" 
d="M840 -32q-216 0 -372 102t-240 281t-84 409q0 234 86.5 413.5t242 281t363.5 101.5q162 0 292 -60t213 -168t103 -252h-236q-27 105 -119.5 186.5t-248.5 81.5q-207 0 -333.5 -157.5t-126.5 -418.5q0 -267 125 -427.5t335 -160.5q138 0 236.5 71t131.5 197h236
q-20 -136 -98.5 -244.5t-207 -172t-298.5 -63.5z" />
    <glyph glyph-name="uni023C" unicode="&#x23c;" horiz-adv-x="1572" 
d="M1424 2048l-234 -585q104 -63 170 -162t84 -225h-236q-26 102 -103 173l-417 -1043q71 -26 152 -26q138 0 236.5 71t131.5 197h236q-20 -136 -98.5 -244.5t-207 -172t-298.5 -63.5q-124 0 -232 36l-232 -580h-192l265 660q-146 101 -225.5 277t-79.5 399
q0 234 86.5 413.5t242 281t363.5 101.5q101 0 193 -25l207 517h188zM949 1331q-52 13 -109 13q-207 0 -333.5 -157.5t-126.5 -418.5q0 -303 157 -464z" />
    <glyph glyph-name="uni0188" unicode="&#x188;" horiz-adv-x="1720" 
d="M1444 1076h-236q-27 105 -119.5 186.5t-248.5 81.5q-207 0 -333.5 -157.5t-126.5 -418.5q0 -267 125 -427.5t335 -160.5q138 0 236.5 71t131.5 197h236q-20 -136 -98.5 -244.5t-207 -172t-298.5 -63.5q-216 0 -372 102t-240 281t-84 409q0 234 86.5 413.5t242 281
t363.5 101.5q232 0 397 -121q42 123 143 188t232 65q36 0 72.5 -1.5t63.5 -10.5v-200q-15 3 -35 5.5t-41 2.5q-96 0 -160 -44t-64 -164v-200z" />
    <glyph glyph-name="uni0255" unicode="&#x255;" horiz-adv-x="1572" 
d="M840 -32q-150 0 -272 51t-211 144q-71 -68 -126.5 -126t-86.5 -89l-164 144q42 43 104 114t142 151q-82 180 -82 411q0 230 86.5 408t242 279t363.5 101q162 0 292 -60t213 -168t103 -252h-236q-27 105 -119.5 186.5t-248.5 81.5q-207 0 -333.5 -157.5t-126.5 -418.5
q0 -134 33 -245q126 98 277 167.5t322 69.5q201 0 298.5 -97t97.5 -247q0 -138 -76 -238.5t-205 -155t-287 -54.5zM526 315q123 -135 314 -135q138 0 233 64.5t95 163.5q0 75 -54.5 109.5t-105.5 34.5q-113 0 -239 -70.5t-243 -166.5z" />
    <glyph glyph-name="uni00E7" unicode="&#xe7;" horiz-adv-x="1572" 
d="M840 -32q-216 0 -372 102t-240 281t-84 409q0 234 86.5 413.5t242 281t363.5 101.5q162 0 292 -60t213 -168t103 -252h-236q-27 105 -119.5 186.5t-248.5 81.5q-207 0 -333.5 -157.5t-126.5 -418.5q0 -267 125 -427.5t335 -160.5q138 0 236.5 71t131.5 197h236
q-20 -136 -98.5 -244.5t-207 -172t-298.5 -63.5zM728 8h196l-16 -80q78 -12 143 -65.5t65 -170.5q0 -129 -106.5 -210.5t-313.5 -81.5l-8 156q93 0 154.5 29.5t61.5 98.5t-51 94t-165 34z" />
    <glyph glyph-name="uni0107" unicode="&#x107;" horiz-adv-x="1572" 
d="M840 -32q-216 0 -372 102t-240 281t-84 409q0 234 86.5 413.5t242 281t363.5 101.5q162 0 292 -60t213 -168t103 -252h-236q-27 105 -119.5 186.5t-248.5 81.5q-207 0 -333.5 -157.5t-126.5 -418.5q0 -267 125 -427.5t335 -160.5q138 0 236.5 71t131.5 197h236
q-20 -136 -98.5 -244.5t-207 -172t-298.5 -63.5zM724 1744l244 464h276l-312 -464h-208z" />
    <glyph glyph-name="uni0109" unicode="&#x109;" horiz-adv-x="1572" 
d="M840 -32q-216 0 -372 102t-240 281t-84 409q0 234 86.5 413.5t242 281t363.5 101.5q162 0 292 -60t213 -168t103 -252h-236q-27 105 -119.5 186.5t-248.5 81.5q-207 0 -333.5 -157.5t-126.5 -418.5q0 -267 125 -427.5t335 -160.5q138 0 236.5 71t131.5 197h236
q-20 -136 -98.5 -244.5t-207 -172t-298.5 -63.5zM624 1720l208 280l208 -280h224v16l-324 416h-216l-324 -416v-16h224z" />
    <glyph glyph-name="uni010B" unicode="&#x10b;" horiz-adv-x="1572" 
d="M840 -32q-216 0 -372 102t-240 281t-84 409q0 234 86.5 413.5t242 281t363.5 101.5q162 0 292 -60t213 -168t103 -252h-236q-27 105 -119.5 186.5t-248.5 81.5q-207 0 -333.5 -157.5t-126.5 -418.5q0 -267 125 -427.5t335 -160.5q138 0 236.5 71t131.5 197h236
q-20 -136 -98.5 -244.5t-207 -172t-298.5 -63.5zM832 1792q-69 0 -118.5 47t-49.5 113t49.5 113t118.5 47t118.5 -47t49.5 -113t-49.5 -113t-118.5 -47z" />
    <glyph glyph-name="uni010D" unicode="&#x10d;" horiz-adv-x="1572" 
d="M840 -32q-216 0 -372 102t-240 281t-84 409q0 234 86.5 413.5t242 281t363.5 101.5q162 0 292 -60t213 -168t103 -252h-236q-27 105 -119.5 186.5t-248.5 81.5q-207 0 -333.5 -157.5t-126.5 -418.5q0 -267 125 -427.5t335 -160.5q138 0 236.5 71t131.5 197h236
q-20 -136 -98.5 -244.5t-207 -172t-298.5 -63.5zM624 2152l208 -280l208 280h224v-16l-324 -416h-216l-324 416v16h224z" />
    <glyph glyph-name="uni1E09" unicode="&#x1e09;" horiz-adv-x="1572" 
d="M840 -32q-216 0 -372 102t-240 281t-84 409q0 234 86.5 413.5t242 281t363.5 101.5q162 0 292 -60t213 -168t103 -252h-236q-27 105 -119.5 186.5t-248.5 81.5q-207 0 -333.5 -157.5t-126.5 -418.5q0 -267 125 -427.5t335 -160.5q138 0 236.5 71t131.5 197h236
q-20 -136 -98.5 -244.5t-207 -172t-298.5 -63.5zM728 8h196l-16 -80q78 -12 143 -65.5t65 -170.5q0 -129 -106.5 -210.5t-313.5 -81.5l-8 156q93 0 154.5 29.5t61.5 98.5t-51 94t-165 34zM724 1744l244 464h276l-312 -464h-208z" />
    <glyph glyph-name="uni03F2" unicode="&#x3f2;" horiz-adv-x="1572" 
d="M840 -32q-216 0 -372 102t-240 281t-84 409q0 234 86.5 413.5t242 281t363.5 101.5q162 0 292 -60t213 -168t103 -252h-236q-27 105 -119.5 186.5t-248.5 81.5q-207 0 -333.5 -157.5t-126.5 -418.5q0 -267 125 -427.5t335 -160.5q138 0 236.5 71t131.5 197h236
q-20 -136 -98.5 -244.5t-207 -172t-298.5 -63.5z" />
    <glyph glyph-name="uni0441" unicode="&#x441;" horiz-adv-x="1572" 
d="M840 -32q-216 0 -372 102t-240 281t-84 409q0 234 86.5 413.5t242 281t363.5 101.5q162 0 292 -60t213 -168t103 -252h-236q-27 105 -119.5 186.5t-248.5 81.5q-207 0 -333.5 -157.5t-126.5 -418.5q0 -267 125 -427.5t335 -160.5q138 0 236.5 71t131.5 197h236
q-20 -136 -98.5 -244.5t-207 -172t-298.5 -63.5z" />
    <glyph glyph-name="uni0064" unicode="d" horiz-adv-x="1748" 
d="M796 -32q-192 0 -339 97.5t-230 276t-83 422.5q0 242 83 420t231 275t342 97q150 0 237.5 -49.5t134 -112t72.5 -102.5h20v756h236v-2048h-228v236h-28q-26 -42 -74 -105.5t-137 -113t-237 -49.5zM828 180q213 0 326.5 163.5t113.5 424.5q0 258 -112 417t-328 159
q-150 0 -249.5 -76.5t-149 -207t-49.5 -292.5q0 -164 50.5 -297.5t150 -212t247.5 -78.5z" />
    <glyph glyph-name="uni0111" unicode="&#x111;" horiz-adv-x="1748" 
d="M796 -32q-192 0 -339 97.5t-230 276t-83 422.5q0 242 83 420t231 275t342 97q150 0 237.5 -49.5t134 -112t72.5 -102.5h20v756h236v-2048h-228v236h-28q-26 -42 -74 -105.5t-137 -113t-237 -49.5zM828 180q213 0 326.5 163.5t113.5 424.5q0 258 -112 417t-328 159
q-150 0 -249.5 -76.5t-149 -207t-49.5 -292.5q0 -164 50.5 -297.5t150 -212t247.5 -78.5zM840 1668v184h880v-184h-880z" />
    <glyph glyph-name="uni0256" unicode="&#x256;" horiz-adv-x="1716" 
d="M1664 -576q-168 0 -284 107t-116 305v400h-20q-26 -42 -74 -105.5t-137 -113t-237 -49.5q-192 0 -339 97.5t-230 276t-83 422.5q0 242 83 420t231 275t342 97q150 0 237.5 -49.5t134 -112t72.5 -102.5h20v756h236v-2212q0 -120 64 -164t160 -44q21 0 41 2.5t35 5.5v-200
q-27 -9 -63.5 -10.5t-72.5 -1.5zM828 180q213 0 326.5 163.5t113.5 424.5q0 258 -112 417t-328 159q-150 0 -249.5 -76.5t-149 -207t-49.5 -292.5q0 -164 50.5 -297.5t150 -212t247.5 -78.5z" />
    <glyph glyph-name="uni0257" unicode="&#x257;" horiz-adv-x="1732" 
d="M796 -32q-192 0 -339 97.5t-230 276t-83 422.5q0 242 83 420t231 275t342 97q150 0 237.5 -49.5t134 -112t72.5 -102.5h20v380q0 198 116.5 303t287.5 105q33 0 71 -3.5t65 -12.5v-204q-15 6 -38 7t-38 1q-96 0 -162 -38t-66 -158v-1672h-228v236h-28q-26 -42 -74 -105.5
t-137 -113t-237 -49.5zM828 180q213 0 326.5 163.5t113.5 424.5q0 258 -112 417t-328 159q-150 0 -249.5 -76.5t-149 -207t-49.5 -292.5q0 -164 50.5 -297.5t150 -212t247.5 -78.5z" />
    <glyph glyph-name="uni018C" unicode="&#x18c;" horiz-adv-x="1748" 
d="M348 2048v-220h916v-536h-20q-26 40 -72.5 102.5t-134 112t-237.5 49.5q-194 0 -342 -97t-231 -275t-83 -420q0 -244 83 -422.5t230 -276t339 -97.5q148 0 237 49.5t137 113t74 105.5h28v-236h228v2048h-1152zM1268 768q0 -261 -113.5 -424.5t-326.5 -163.5
q-148 0 -247.5 78.5t-150 212t-50.5 297.5q0 162 49.5 292.5t149 207t249.5 76.5q216 0 328 -159t112 -417z" />
    <glyph glyph-name="uni0221" unicode="&#x221;" horiz-adv-x="2024" 
d="M796 -32q-192 0 -339 97.5t-230 276t-83 422.5q0 242 83 420t231 275t342 97q150 0 237.5 -49.5t134 -112t72.5 -102.5h20v756h236v-1712v-226q105 42 208 42q165 0 274.5 -99.5t109.5 -264.5q0 -162 -109 -263t-295 -101q-161 0 -255.5 72.5t-134.5 175.5l-194 -196
l-152 156l312 320v284h-20q-26 -42 -74 -105.5t-137 -113t-237 -49.5zM828 180q213 0 326.5 163.5t113.5 424.5q0 258 -112 417t-328 159q-150 0 -249.5 -76.5t-149 -207t-49.5 -292.5q0 -164 50.5 -297.5t150 -212t247.5 -78.5zM1500 -125v-39q0 -102 56.5 -155t131.5 -53
q72 0 116 45.5t44 114.5q0 63 -36.5 105t-99.5 51q-64 11 -117 -10.5t-95 -58.5z" />
    <glyph glyph-name="uni010F" unicode="&#x10f;" horiz-adv-x="1924" 
d="M796 -32q-192 0 -339 97.5t-230 276t-83 422.5q0 242 83 420t231 275t342 97q150 0 237.5 -49.5t134 -112t72.5 -102.5h20v756h236v-2048h-228v236h-28q-26 -42 -74 -105.5t-137 -113t-237 -49.5zM828 180q213 0 326.5 163.5t113.5 424.5q0 258 -112 417t-328 159
q-150 0 -249.5 -76.5t-149 -207t-49.5 -292.5q0 -164 50.5 -297.5t150 -212t247.5 -78.5zM1956 2048v-124q-3 -132 -42.5 -287.5t-117.5 -272.5l-200 40q51 120 87.5 261t36.5 255v128h236z" />
    <glyph glyph-name="uni1E0B" unicode="&#x1e0b;" horiz-adv-x="1748" 
d="M796 -32q-192 0 -339 97.5t-230 276t-83 422.5q0 242 83 420t231 275t342 97q150 0 237.5 -49.5t134 -112t72.5 -102.5h20v756h236v-2048h-228v236h-28q-26 -42 -74 -105.5t-137 -113t-237 -49.5zM828 180q213 0 326.5 163.5t113.5 424.5q0 258 -112 417t-328 159
q-150 0 -249.5 -76.5t-149 -207t-49.5 -292.5q0 -164 50.5 -297.5t150 -212t247.5 -78.5zM804 1792q-69 0 -118.5 47t-49.5 113t49.5 113t118.5 47t118.5 -47t49.5 -113t-49.5 -113t-118.5 -47z" />
    <glyph glyph-name="uni1E0D" unicode="&#x1e0d;" horiz-adv-x="1748" 
d="M796 -32q-192 0 -339 97.5t-230 276t-83 422.5q0 242 83 420t231 275t342 97q150 0 237.5 -49.5t134 -112t72.5 -102.5h20v756h236v-2048h-228v236h-28q-26 -42 -74 -105.5t-137 -113t-237 -49.5zM828 180q213 0 326.5 163.5t113.5 424.5q0 258 -112 417t-328 159
q-150 0 -249.5 -76.5t-149 -207t-49.5 -292.5q0 -164 50.5 -297.5t150 -212t247.5 -78.5zM816 -508q-69 0 -118.5 47t-49.5 113t49.5 113t118.5 47t118.5 -47t49.5 -113t-49.5 -113t-118.5 -47z" />
    <glyph glyph-name="uni1E0F" unicode="&#x1e0f;" horiz-adv-x="1748" 
d="M796 -32q-192 0 -339 97.5t-230 276t-83 422.5q0 242 83 420t231 275t342 97q150 0 237.5 -49.5t134 -112t72.5 -102.5h20v756h236v-2048h-228v236h-28q-26 -42 -74 -105.5t-137 -113t-237 -49.5zM828 180q213 0 326.5 163.5t113.5 424.5q0 258 -112 417t-328 159
q-150 0 -249.5 -76.5t-149 -207t-49.5 -292.5q0 -164 50.5 -297.5t150 -212t247.5 -78.5zM1284 -252v-200h-936v200h936z" />
    </font>
</defs>
</svg>
